<?xml version="1.0" encoding="utf-8"?>
<!-- Generator: Adobe Illustrator 25.1.0, SVG Export Plug-In . SVG Version: 6.00 Build 0)  -->
<svg version="1.1" id="Capa_1" xmlns="http://www.w3.org/2000/svg" xmlns:xlink="http://www.w3.org/1999/xlink" x="0px" y="0px"
	 width="100px" height="100px" viewBox="0 0 100 100" style="enable-background:new 0 0 100 100;" xml:space="preserve">
<style type="text/css">
	.st0{fill:#74ACDF;}
	.st1{fill:#FFFFFF;}
	.st2{fill:#F6B40E;}
	.st3{fill:#85340A;}
</style>
<g>
	<g>
		<rect x="-30" class="st0" width="160" height="100"/>
	</g>
	<g>
		<rect x="-30" y="33.3" class="st1" width="160" height="33.3"/>
	</g>
</g>
<g>
	<path class="st2" d="M49.4,50.3L55.2,63c0,0,0.1,0.2,0.3,0.2c0.2-0.1,0.1-0.3,0.1-0.3l-4.9-13.1 M50.5,54.7c-0.1,1.9,1.1,3,1,4.7
		c-0.2,1.7,0.8,2.7,1,3.4c0.2,0.7-0.2,1.1,0,1.2c0.2,0.1,0.6-0.4,0.5-1.4c-0.1-1-0.9-1.2-0.7-3.4c0.2-2.1-0.9-2.6-0.6-4.5"/>
	<path class="st3" d="M52.5,64.1c0,0-0.1,0-0.1,0c-0.2-0.1-0.1-0.3-0.1-0.4c0.1-0.2,0.2-0.5,0-0.8c-0.1-0.2-0.2-0.4-0.3-0.6
		c-0.4-0.6-0.8-1.5-0.7-2.8c0.1-0.8-0.2-1.5-0.4-2.2c-0.3-0.7-0.6-1.5-0.5-2.5l0.2,0c0,0.9,0.2,1.7,0.5,2.4c0.3,0.7,0.5,1.5,0.5,2.3
		c-0.1,1.2,0.4,2.1,0.7,2.7c0.1,0.2,0.2,0.4,0.3,0.6c0.1,0.4,0,0.8,0,1c0,0,0,0.1,0,0.1c0,0,0,0,0.1-0.1c0.1-0.1,0.3-0.5,0.2-1.2
		c0-0.3-0.2-0.5-0.3-0.8c-0.3-0.5-0.5-1.1-0.4-2.6c0.1-1-0.1-1.7-0.3-2.3c-0.2-0.5-0.3-1-0.3-1.8l-2.2-4.9l0.2-0.1l2.1,4.5
		c0,0,0,0,0,0l0.2,0c0,0.1,0,0.3,0,0.4l3.6,7.8c0,0,0.1,0.1,0.1,0.1c0,0,0,0,0,0c0,0,0-0.1,0-0.1l-4.9-13.1l0.2-0.1l4.9,13.1
		c0,0,0.1,0.2,0,0.3c0,0.1-0.1,0.1-0.1,0.1c-0.1,0-0.2,0-0.3-0.1c-0.1-0.1-0.1-0.1-0.1-0.1l-3.4-7.3c0.1,0.4,0.2,0.8,0.3,1.1
		c0.2,0.6,0.4,1.3,0.3,2.4c-0.1,1.4,0.2,1.9,0.4,2.5c0.1,0.3,0.2,0.5,0.3,0.9c0.1,0.7-0.1,1.3-0.4,1.5
		C52.6,64.1,52.5,64.1,52.5,64.1z"/>
	<path class="st2" d="M49.3,50l0.5,14c0,0,0,0.3,0.2,0.3c0.2,0,0.2-0.3,0.2-0.3l0.5-14 M48.7,54.5c-0.8,1.8-0.1,3.2-0.9,4.7
		c-0.8,1.5-0.3,2.8-0.4,3.5c-0.1,0.7-0.6,0.9-0.5,1.1c0.1,0.2,0.7-0.2,1-1.1c0.2-0.9-0.3-1.5,0.6-3.4c1-1.9,0.2-2.7,1.2-4.4"/>
	<path class="st3" d="M50,64.4c-0.2,0-0.3-0.2-0.3-0.4L49.4,56c-0.1,0.4-0.1,0.8-0.2,1.2c-0.1,0.7-0.1,1.4-0.6,2.3
		c-0.6,1.2-0.6,1.9-0.6,2.4c0,0.3,0,0.6-0.1,0.9c-0.2,0.7-0.6,1.1-0.9,1.2c-0.2,0-0.2,0-0.3-0.1c-0.1-0.1,0-0.3,0.1-0.4
		c0.1-0.2,0.3-0.4,0.4-0.7c0-0.2,0-0.4,0-0.7c-0.1-0.7-0.2-1.7,0.4-2.9c0.4-0.7,0.4-1.5,0.4-2.2c0-0.8,0.1-1.6,0.5-2.5l0.2,0.1
		c-0.4,0.9-0.4,1.6-0.4,2.4c0,0.8-0.1,1.5-0.5,2.3c-0.6,1.1-0.5,2.1-0.4,2.8c0,0.3,0.1,0.5,0,0.7c0,0.4-0.3,0.7-0.4,0.9
		c0,0-0.1,0.1-0.1,0.1c0,0,0,0,0.1,0c0.2-0.1,0.5-0.4,0.7-1c0.1-0.3,0.1-0.6,0.1-0.9c0-0.6-0.1-1.3,0.6-2.5c0.5-0.9,0.5-1.6,0.6-2.2
		c0-0.6,0.1-1.1,0.4-1.8L49.2,50l0.2,0l0.2,4.9c0,0,0,0,0,0l0.2,0.1c-0.1,0.1-0.1,0.3-0.2,0.4l0.3,8.6c0,0,0,0.2,0.1,0.2
		c0,0,0.1-0.1,0.1-0.1l0.5-14l0.2,0l-0.5,14c0,0,0,0.1,0,0.2C50.2,64.3,50.1,64.4,50,64.4z"/>
	<path class="st2" d="M49.4,49.7l-4.9,13.1c0,0-0.1,0.2,0.1,0.3c0.2,0.1,0.3-0.2,0.3-0.2l5.8-12.7 M47,53.7c-1.4,1.3-1.3,2.9-2.7,4
		c-1.3,1.1-1.4,2.5-1.7,3.1c-0.3,0.6-0.9,0.6-0.9,0.8c0.1,0.2,0.8,0.1,1.3-0.6c0.6-0.8,0.3-1.5,1.9-2.9c1.6-1.4,1.2-2.5,2.8-3.6"/>
	<path class="st3" d="M44.6,63.3c0,0-0.1,0-0.1,0c-0.2-0.1-0.2-0.3-0.1-0.5l2.8-7.6c-0.3,0.3-0.4,0.7-0.6,1
		c-0.3,0.6-0.6,1.2-1.4,1.9c-1,0.9-1.3,1.5-1.5,2c-0.1,0.3-0.2,0.5-0.4,0.8c-0.4,0.6-1,0.8-1.3,0.8c-0.2,0-0.2-0.1-0.2-0.2
		c-0.1-0.2,0.1-0.3,0.3-0.3c0.2-0.1,0.4-0.2,0.6-0.6c0.1-0.2,0.1-0.4,0.2-0.6c0.2-0.7,0.5-1.7,1.5-2.5c0.6-0.5,1-1.2,1.3-1.9
		c0.3-0.7,0.7-1.4,1.4-2.1l0.2,0.2c-0.7,0.6-1,1.4-1.3,2c-0.3,0.7-0.6,1.4-1.3,2c-0.9,0.8-1.2,1.7-1.4,2.4c-0.1,0.3-0.1,0.5-0.2,0.7
		c-0.2,0.4-0.5,0.6-0.7,0.7c0,0-0.1,0-0.1,0.1c0,0,0,0,0.1,0c0,0,0,0,0,0c0.2,0,0.6-0.1,1-0.7c0.2-0.2,0.3-0.5,0.4-0.8
		c0.2-0.6,0.4-1.2,1.5-2.1c0.8-0.7,1.1-1.3,1.4-1.8c0.3-0.5,0.5-1,1-1.5l1.9-5l0.2,0.1l-1.7,4.6c0,0,0,0,0,0l0.1,0.2
		c-0.1,0.1-0.2,0.2-0.3,0.3l-3,8.1c0,0,0,0.1,0,0.2c0,0,0.1-0.1,0.1-0.1l5.8-12.7l0.2,0.1l-5.8,12.7C44.9,63.1,44.8,63.2,44.6,63.3
		C44.7,63.3,44.6,63.3,44.6,63.3z"/>
	<path class="st2" d="M49.5,49.5L40,59.8c0,0-0.2,0.2-0.1,0.3c0.1,0.1,0.3-0.1,0.3-0.1l10.3-9.5 M45.9,52.3c-1.8,0.7-2.3,2.2-4,2.7
		c-1.7,0.5-2.2,1.8-2.7,2.2c-0.5,0.5-1.1,0.2-1.1,0.4c0,0.2,0.6,0.4,1.5-0.1c0.8-0.5,0.8-1.3,2.8-1.9c2-0.7,2.1-1.8,4-2.3"/>
	<path class="st3" d="M40,60.2c-0.1,0-0.1,0-0.2-0.1c-0.1-0.1-0.1-0.3,0.1-0.5l5.5-5.9c-0.4,0.2-0.7,0.4-0.9,0.7
		c-0.5,0.4-1,0.9-2.1,1.2c-1.3,0.4-1.7,0.9-2.1,1.3c-0.2,0.2-0.4,0.4-0.7,0.6c-0.6,0.4-1.2,0.4-1.5,0.2c-0.1-0.1-0.2-0.2-0.2-0.2
		c0-0.2,0.2-0.2,0.4-0.2c0.2,0,0.5,0,0.8-0.3c0.1-0.1,0.3-0.3,0.4-0.5c0.5-0.6,1.1-1.4,2.3-1.8c0.8-0.3,1.3-0.7,1.9-1.3
		c0.6-0.5,1.2-1.1,2.1-1.4l0.1,0.2c-0.9,0.3-1.5,0.9-2,1.4c-0.6,0.5-1.1,1.1-2,1.3c-1.2,0.4-1.8,1.1-2.2,1.7
		c-0.2,0.2-0.3,0.4-0.5,0.5c-0.3,0.3-0.7,0.3-0.9,0.3c0,0-0.1,0-0.1,0c0,0,0,0,0.1,0c0.2,0.1,0.6,0.1,1.2-0.2
		c0.3-0.2,0.4-0.3,0.6-0.6c0.4-0.4,0.9-0.9,2.2-1.4c1-0.3,1.5-0.8,2-1.2c0.4-0.4,0.8-0.7,1.5-1l3.6-3.9l0.2,0.2l-3.4,3.6
		c0,0,0,0,0,0l0.1,0.2c-0.1,0-0.3,0.1-0.4,0.1l-5.9,6.3c0,0-0.1,0.1-0.1,0.2c0,0,0.1,0,0.1-0.1l10.3-9.5l0.2,0.2l-10.3,9.5
		c0,0-0.1,0.1-0.1,0.1C40.1,60.2,40.1,60.2,40,60.2z"/>
	<path class="st3" d="M50.9,55c0.1,1.9,1.1,2.7,0.9,4.4c0.5-1.3-0.6-2.4-0.6-4.4 M49.7,50.2l4,8.7l-3.4-9"/>
	<path class="st3" d="M48.9,55c-0.6,1.8,0,2.9-0.8,4.4c0.9-1.1,0.3-2.4,1.1-4.2 M49.6,50l0.4,9.6l0.4-9.6"/>
	<path class="st3" d="M47.1,54.2c-1.2,1.4-1.1,2.7-2.4,3.8c1.3-0.6,1.2-2.1,2.7-3.5 M49.7,49.9l-3.4,9l4-8.7"/>
	<path class="st3" d="M45.7,52.7c-1.7,0.8-2,2.1-3.7,2.5c1.4-0.1,2-1.5,3.8-2.2 M49.7,49.8l-6.5,7l7-6.5"/>
	<path class="st2" d="M49.7,49.4L37,55.2c0,0-0.2,0.1-0.2,0.3c0.1,0.2,0.3,0.1,0.3,0.1l13.1-4.9 M45.3,50.5c-1.9-0.1-3,1.1-4.7,1
		c-1.7-0.2-2.7,0.8-3.4,1c-0.7,0.2-1.1-0.2-1.2,0c-0.1,0.2,0.4,0.6,1.4,0.5c1-0.1,1.2-0.9,3.4-0.7c2.1,0.2,2.6-0.9,4.5-0.6"/>
	<path class="st3" d="M37,55.7c-0.1,0-0.2-0.1-0.3-0.2c-0.1-0.2,0.1-0.3,0.2-0.4l7.3-3.4c-0.4,0.1-0.8,0.2-1.1,0.3
		c-0.6,0.2-1.3,0.4-2.4,0.3c-1.4-0.1-1.9,0.2-2.5,0.4C38,52.9,37.8,53,37.4,53c-0.7,0.1-1.3-0.1-1.5-0.4c-0.1-0.1-0.1-0.2,0-0.3
		c0.1-0.2,0.3-0.1,0.4-0.1c0.2,0.1,0.5,0.2,0.8,0c0.2-0.1,0.4-0.2,0.6-0.3c0.6-0.4,1.5-0.8,2.8-0.7c0.8,0.1,1.5-0.2,2.2-0.4
		c0.7-0.3,1.5-0.6,2.5-0.5l0,0.2c-0.9,0-1.7,0.2-2.4,0.5c-0.7,0.3-1.5,0.5-2.3,0.5c-1.2-0.1-2.1,0.4-2.7,0.7
		c-0.2,0.1-0.4,0.2-0.6,0.3c-0.4,0.1-0.8,0-1,0c0,0-0.1,0-0.1,0c0,0,0,0,0.1,0.1c0.1,0.1,0.5,0.3,1.2,0.2c0.3,0,0.5-0.2,0.8-0.3
		c0.5-0.3,1.1-0.5,2.6-0.4c1,0.1,1.7-0.1,2.3-0.3c0.5-0.2,1-0.3,1.8-0.3l4.9-2.2l0.1,0.2l-4.5,2.1c0,0,0,0,0,0l0,0.2
		c-0.1,0-0.3,0-0.4,0L37,55.3c0,0-0.1,0.1-0.1,0.1c0,0,0,0,0.1,0c0,0,0.1,0,0.1,0l13.1-4.9l0.1,0.2l-13.1,4.9
		C37.2,55.6,37.1,55.7,37,55.7C37,55.7,37,55.7,37,55.7z"/>
	<path class="st2" d="M50,49.3l-14,0.5c0,0-0.3,0-0.3,0.2c0,0.2,0.3,0.2,0.3,0.2l14,0.5 M45.5,48.7c-1.8-0.8-3.2-0.1-4.7-0.9
		c-1.5-0.8-2.8-0.3-3.5-0.4c-0.7-0.1-0.9-0.6-1.1-0.5c-0.2,0.1,0.2,0.7,1.1,1c0.9,0.2,1.5-0.3,3.4,0.6c1.9,1,2.7,0.2,4.4,1.2"/>
	<path class="st3" d="M50,50.8l-14-0.5c0,0-0.2,0-0.3-0.1c0,0-0.1-0.1-0.1-0.2c0-0.2,0.2-0.3,0.4-0.3c0,0,0,0,0,0l8.1-0.3
		c-0.4-0.1-0.8-0.1-1.2-0.2c-0.7-0.1-1.4-0.1-2.3-0.6c-1.2-0.6-1.9-0.6-2.4-0.6c-0.3,0-0.6,0-0.9-0.1c-0.7-0.2-1.1-0.6-1.2-0.9
		c0-0.2,0-0.2,0.1-0.3c0.1-0.1,0.3,0,0.4,0.1c0.2,0.1,0.4,0.3,0.7,0.4c0.2,0,0.4,0,0.7,0c0.7-0.1,1.7-0.2,2.9,0.4
		c0.7,0.4,1.5,0.4,2.2,0.4c0.8,0,1.6,0.1,2.5,0.5l-0.1,0.2c-0.9-0.4-1.6-0.4-2.4-0.4c-0.8,0-1.5-0.1-2.3-0.5
		c-1.1-0.6-2.1-0.5-2.8-0.4c-0.3,0-0.5,0.1-0.7,0c-0.4,0-0.7-0.3-0.9-0.4c0,0-0.1-0.1-0.1-0.1c0,0,0,0,0,0.1c0.1,0.2,0.4,0.5,1,0.7
		c0.3,0.1,0.6,0.1,0.9,0.1c0.6,0,1.3-0.1,2.5,0.6c0.9,0.5,1.6,0.5,2.2,0.6c0.6,0,1.1,0.1,1.8,0.4l5.3-0.2l0,0.2l-4.9,0.2
		c0,0,0,0,0,0L45,49.8c-0.1-0.1-0.3-0.1-0.4-0.2L36,49.9c0,0-0.2,0-0.2,0.1c0,0,0,0,0,0c0,0,0.1,0,0.1,0h0l14,0.5L50,50.8z"/>
	<path class="st2" d="M50.3,49.4l-13.1-4.9c0,0-0.2-0.1-0.3,0.1c-0.1,0.2,0.2,0.3,0.2,0.3l12.7,5.8 M46.3,47c-1.3-1.4-2.9-1.3-4-2.7
		c-1.1-1.3-2.5-1.4-3.1-1.7c-0.6-0.3-0.6-0.9-0.8-0.9c-0.2,0.1-0.1,0.8,0.6,1.3c0.8,0.6,1.5,0.3,2.9,1.9c1.4,1.6,2.5,1.2,3.6,2.8"/>
	<path class="st3" d="M49.7,50.8l-12.7-5.8c0,0-0.2-0.1-0.2-0.2c0-0.1,0-0.1,0-0.2c0.1-0.2,0.3-0.2,0.5-0.1l7.6,2.8
		c-0.3-0.3-0.7-0.4-1-0.6c-0.6-0.3-1.2-0.6-1.9-1.4c-0.9-1-1.5-1.3-2-1.5c-0.3-0.1-0.5-0.2-0.8-0.4c-0.6-0.4-0.8-1-0.8-1.3
		c0-0.2,0.1-0.2,0.2-0.2c0.2-0.1,0.3,0.1,0.3,0.3c0.1,0.2,0.2,0.4,0.6,0.6c0.2,0.1,0.4,0.1,0.6,0.2c0.7,0.2,1.7,0.5,2.5,1.5
		c0.5,0.6,1.2,1,1.9,1.3c0.7,0.3,1.4,0.7,2.1,1.4l-0.2,0.2c-0.6-0.7-1.4-1-2-1.3c-0.7-0.3-1.4-0.6-2-1.3c-0.8-0.9-1.7-1.2-2.4-1.4
		c-0.3-0.1-0.5-0.1-0.7-0.2c-0.4-0.2-0.6-0.5-0.7-0.7c0,0,0-0.1-0.1-0.1c0,0,0,0,0,0.1c0,0.2,0.1,0.6,0.7,1c0.2,0.2,0.5,0.3,0.8,0.4
		c0.6,0.2,1.2,0.4,2.1,1.5c0.7,0.8,1.3,1.1,1.8,1.4c0.5,0.3,1,0.5,1.5,1l5,1.9l-0.1,0.2l-4.6-1.7c0,0,0,0,0,0l-0.2,0.1
		c-0.1-0.1-0.2-0.2-0.3-0.3l-8.1-3c0,0-0.1,0-0.2,0c0,0,0.1,0.1,0.1,0.1l12.7,5.8L49.7,50.8z"/>
	<path class="st2" d="M50.5,49.5L40.2,40c0,0-0.2-0.2-0.3-0.1C39.8,40,40,40.2,40,40.2l9.5,10.3 M47.7,45.9c-0.7-1.8-2.2-2.3-2.7-4
		c-0.5-1.7-1.8-2.2-2.2-2.7c-0.5-0.5-0.2-1.1-0.4-1.1c-0.2,0-0.4,0.6,0.1,1.5c0.5,0.8,1.3,0.8,1.9,2.8c0.7,2,1.8,2.1,2.3,4"/>
	<path class="st3" d="M49.4,50.6l-9.5-10.3c0,0-0.1-0.1-0.1-0.1c-0.1-0.1,0-0.2,0-0.3c0.1-0.1,0.3-0.1,0.5,0.1l5.9,5.5
		c-0.2-0.4-0.4-0.7-0.7-0.9c-0.4-0.5-0.9-1-1.2-2.1c-0.4-1.3-0.9-1.7-1.3-2.1c-0.2-0.2-0.4-0.4-0.6-0.7c-0.4-0.6-0.4-1.2-0.2-1.5
		c0.1-0.1,0.2-0.2,0.2-0.2c0.2,0,0.2,0.2,0.2,0.4c0,0.2,0,0.5,0.3,0.8c0.1,0.1,0.3,0.3,0.5,0.4c0.6,0.5,1.4,1.1,1.8,2.3
		c0.3,0.8,0.7,1.3,1.3,1.9c0.5,0.6,1.1,1.2,1.4,2.1l-0.2,0.1c-0.3-0.9-0.9-1.5-1.4-2c-0.5-0.6-1.1-1.1-1.3-2
		c-0.4-1.2-1.1-1.8-1.7-2.2c-0.2-0.2-0.4-0.3-0.5-0.5c-0.3-0.3-0.3-0.7-0.3-0.9c0,0,0-0.1,0-0.1c0,0,0,0,0,0.1
		c-0.1,0.2-0.1,0.6,0.2,1.2c0.2,0.3,0.3,0.4,0.6,0.6c0.4,0.4,0.9,0.9,1.4,2.2c0.3,1,0.8,1.5,1.2,2c0.4,0.4,0.7,0.8,1,1.5l3.9,3.6
		l-0.2,0.2l-3.6-3.4c0,0,0,0,0,0l-0.2,0.1c0-0.1-0.1-0.3-0.1-0.4l-6.3-5.9c0,0-0.1-0.1-0.2-0.1c0,0,0,0,0,0.1c0,0,0.1,0.1,0.1,0.1
		l9.5,10.3L49.4,50.6z"/>
	<path class="st3" d="M45,50.9c-1.9,0.1-2.7,1.1-4.4,0.9c1.3,0.5,2.4-0.6,4.4-0.6 M49.8,49.7l-8.7,4l9-3.4"/>
	<path class="st3" d="M45,48.9c-1.8-0.6-2.9,0-4.4-0.8c1.1,0.9,2.4,0.3,4.2,1.1 M50,49.6L40.4,50l9.6,0.4"/>
	<path class="st3" d="M45.8,47.1c-1.4-1.2-2.7-1.1-3.8-2.4c0.6,1.3,2.1,1.2,3.5,2.7 M50.1,49.7l-9-3.4l8.7,4"/>
	<path class="st3" d="M47.3,45.7c-0.8-1.7-2.1-2-2.5-3.7c0.1,1.4,1.5,2,2.2,3.8 M50.2,49.7l-7-6.5l6.5,7"/>
	<path class="st2" d="M50.6,49.7L44.8,37c0,0-0.1-0.2-0.3-0.2c-0.2,0.1-0.1,0.3-0.1,0.3l4.9,13.1 M49.5,45.3c0.1-1.9-1.1-3-1-4.7
		c0.2-1.7-0.8-2.7-1-3.4c-0.2-0.7,0.2-1.1,0-1.2c-0.2-0.1-0.6,0.4-0.5,1.4c0.1,1,0.9,1.2,0.7,3.4c-0.2,2.1,0.9,2.6,0.6,4.5"/>
	<path class="st3" d="M49.2,50.3l-4.9-13.1c0,0,0-0.1,0-0.2c0-0.1,0-0.2,0.2-0.3c0.2-0.1,0.3,0.1,0.4,0.2l3.4,7.3
		c-0.1-0.4-0.2-0.8-0.3-1.1c-0.2-0.6-0.4-1.3-0.3-2.4c0.1-1.4-0.2-1.9-0.4-2.5C47.1,38,47,37.8,47,37.4c-0.1-0.7,0.1-1.3,0.4-1.5
		c0.1-0.1,0.2-0.1,0.3,0c0.2,0.1,0.1,0.3,0.1,0.4c-0.1,0.2-0.2,0.5,0,0.8c0.1,0.2,0.2,0.4,0.3,0.6c0.4,0.6,0.8,1.5,0.7,2.8
		c-0.1,0.8,0.2,1.5,0.4,2.2c0.3,0.7,0.6,1.5,0.5,2.5l-0.2,0c0-0.9-0.2-1.7-0.5-2.4c-0.3-0.7-0.5-1.5-0.5-2.3
		c0.1-1.2-0.4-2.1-0.7-2.7c-0.1-0.2-0.2-0.4-0.3-0.6c-0.1-0.4,0-0.8,0-1c0,0,0-0.1,0-0.1c0,0,0,0-0.1,0.1c-0.1,0.1-0.3,0.5-0.2,1.2
		c0,0.3,0.2,0.5,0.3,0.8c0.3,0.5,0.5,1.1,0.4,2.6c-0.1,1,0.1,1.7,0.3,2.3c0.2,0.5,0.3,1,0.3,1.8l2.2,4.9l-0.2,0.1l-2.1-4.5
		c0,0,0,0,0,0l-0.2,0c0-0.1,0-0.3,0-0.4L44.7,37c0,0-0.1-0.1-0.1-0.1c0,0,0,0,0,0.1c0,0,0,0.1,0,0.1l4.9,13.1L49.2,50.3z"/>
	<path class="st2" d="M50.7,50l-0.5-14c0,0,0-0.3-0.2-0.3c-0.2,0-0.2,0.3-0.2,0.3l-0.5,14 M51.3,45.5c0.8-1.8,0.1-3.2,0.9-4.7
		c0.8-1.5,0.3-2.8,0.4-3.5c0.1-0.7,0.6-0.9,0.5-1.1c-0.1-0.2-0.7,0.2-1,1.1c-0.2,0.9,0.3,1.5-0.6,3.4c-1,1.9-0.2,2.7-1.2,4.4"/>
	<path class="st3" d="M49.4,50l-0.2,0l0.5-14c0,0,0-0.1,0-0.2c0-0.1,0.1-0.2,0.3-0.2c0,0,0,0,0,0c0.2,0,0.3,0.2,0.3,0.4l0.3,8.1
		c0.1-0.4,0.1-0.8,0.2-1.2c0.1-0.7,0.1-1.4,0.6-2.3c0.6-1.2,0.6-1.9,0.6-2.4c0-0.3,0-0.6,0.1-0.9c0.2-0.7,0.6-1.1,0.9-1.2
		c0.2,0,0.2,0,0.3,0.1c0.1,0.1,0,0.3-0.1,0.4c-0.1,0.2-0.3,0.4-0.4,0.7c0,0.2,0,0.4,0,0.7c0.1,0.7,0.2,1.7-0.4,2.9
		c-0.4,0.7-0.4,1.5-0.4,2.2c0,0.8-0.1,1.6-0.5,2.5l-0.2-0.1c0.4-0.9,0.4-1.6,0.4-2.4c0-0.8,0.1-1.5,0.5-2.3c0.6-1.1,0.5-2.1,0.4-2.8
		c0-0.3-0.1-0.5,0-0.7c0-0.4,0.3-0.7,0.4-0.9c0,0,0.1-0.1,0.1-0.1c0,0,0,0-0.1,0c-0.2,0.1-0.5,0.4-0.7,1c-0.1,0.3-0.1,0.6-0.1,0.9
		c0,0.6,0.1,1.3-0.6,2.5c-0.5,0.9-0.5,1.6-0.6,2.2c0,0.6-0.1,1.1-0.4,1.8l0.2,5.3l-0.2,0l-0.2-4.9c0,0,0,0,0,0L50.2,45
		c0.1-0.1,0.1-0.3,0.2-0.4L50.1,36c0,0,0-0.2-0.1-0.2l0,0c0,0-0.1,0.1-0.1,0.1L49.4,50z"/>
	<path class="st2" d="M50.6,50.3l4.9-13.1c0,0,0.1-0.2-0.1-0.3c-0.2-0.1-0.3,0.2-0.3,0.2l-5.8,12.7 M53,46.3c1.4-1.3,1.3-2.9,2.7-4
		c1.3-1.1,1.4-2.5,1.7-3.1c0.3-0.6,0.9-0.6,0.9-0.8c-0.1-0.2-0.8-0.1-1.3,0.6c-0.6,0.8-0.3,1.5-1.9,2.9c-1.6,1.4-1.2,2.5-2.8,3.6"/>
	<path class="st3" d="M50.8,50.3l-0.2-0.1l1.7-4.6c0,0,0,0,0,0l-0.1-0.2c0.1-0.1,0.2-0.2,0.3-0.3l3-8.1c0,0,0-0.1,0-0.2
		c0,0-0.1,0.1-0.1,0.1l-5.8,12.7l-0.2-0.1l5.8-12.7c0,0,0.1-0.2,0.2-0.2c0.1,0,0.1,0,0.2,0c0.2,0.1,0.2,0.3,0.1,0.5l-2.8,7.6
		c0.3-0.3,0.4-0.7,0.6-1c0.3-0.6,0.6-1.2,1.4-1.9c1-0.9,1.3-1.5,1.5-2c0.1-0.3,0.2-0.5,0.4-0.8c0.4-0.6,1-0.8,1.3-0.8
		c0.2,0,0.2,0.1,0.2,0.2c0.1,0.2-0.1,0.3-0.3,0.3c-0.2,0.1-0.4,0.2-0.6,0.6c-0.1,0.2-0.1,0.4-0.2,0.6c-0.2,0.7-0.5,1.7-1.5,2.5
		c-0.6,0.5-1,1.2-1.3,1.9c-0.3,0.7-0.7,1.4-1.4,2.1l-0.2-0.2c0.7-0.6,1-1.4,1.3-2c0.3-0.7,0.6-1.4,1.3-2c0.9-0.8,1.2-1.7,1.4-2.4
		c0.1-0.3,0.1-0.5,0.2-0.7c0.2-0.4,0.5-0.6,0.7-0.7c0,0,0.1,0,0.1-0.1c0,0,0,0-0.1,0c-0.2,0-0.6,0.1-1,0.7c-0.2,0.2-0.3,0.5-0.4,0.8
		c-0.2,0.6-0.4,1.2-1.5,2.1c-0.8,0.7-1.1,1.3-1.4,1.8c-0.3,0.5-0.5,1-1,1.5L50.8,50.3z"/>
	<path class="st2" d="M50.5,50.5L60,40.2c0,0,0.2-0.2,0.1-0.3C60,39.8,59.8,40,59.8,40l-10.3,9.5 M54.1,47.7c1.8-0.7,2.3-2.2,4-2.7
		c1.7-0.5,2.2-1.8,2.7-2.2c0.5-0.5,1.1-0.2,1.1-0.4c0-0.2-0.6-0.4-1.5,0.1c-0.8,0.5-0.8,1.3-2.8,1.9c-2,0.7-2.1,1.8-4,2.3"/>
	<path class="st3" d="M50.6,50.6l-0.2-0.2l3.4-3.6c0,0,0,0,0,0l-0.1-0.2c0.1,0,0.3-0.1,0.4-0.1l5.9-6.3c0,0,0.1-0.1,0.1-0.2
		c0,0,0,0,0,0c0,0-0.1,0-0.1,0.1l-10.3,9.5l-0.2-0.2l10.3-9.5c0,0,0.1-0.1,0.3-0.1c0.1,0,0.1,0,0.2,0.1c0.1,0.1,0.1,0.3-0.1,0.5
		l-5.5,5.9c0.4-0.2,0.7-0.4,0.9-0.7c0.5-0.4,1-0.9,2.1-1.2c1.3-0.4,1.7-0.9,2.1-1.3c0.2-0.2,0.4-0.4,0.7-0.6
		c0.6-0.4,1.2-0.4,1.5-0.2c0.1,0.1,0.2,0.2,0.2,0.2c0,0.2-0.2,0.2-0.4,0.2c-0.2,0-0.5,0-0.8,0.3c-0.1,0.1-0.3,0.3-0.4,0.5
		c-0.5,0.6-1.1,1.4-2.3,1.8c-0.8,0.3-1.3,0.7-1.9,1.3c-0.6,0.5-1.2,1.1-2.1,1.4l-0.1-0.2c0.9-0.3,1.5-0.9,2-1.4
		c0.6-0.5,1.1-1.1,2-1.3c1.2-0.4,1.8-1.1,2.2-1.7c0.2-0.2,0.3-0.4,0.5-0.5c0.3-0.3,0.7-0.3,0.9-0.3c0,0,0.1,0,0.1,0c0,0,0,0-0.1,0
		c-0.2-0.1-0.6-0.1-1.2,0.2c-0.3,0.2-0.4,0.3-0.6,0.6c-0.4,0.4-0.9,0.9-2.2,1.4c-1,0.3-1.5,0.8-2,1.2c-0.4,0.4-0.8,0.7-1.5,1
		L50.6,50.6z"/>
	<path class="st3" d="M49.1,45c-0.1-1.9-1.1-2.7-0.9-4.4c-0.5,1.3,0.6,2.4,0.6,4.4 M50.3,49.8l-4-8.7l3.4,9"/>
	<path class="st3" d="M51.1,45c0.6-1.8,0-2.9,0.8-4.4c-0.9,1.1-0.3,2.4-1.1,4.2 M50.4,50L50,40.4L49.7,50"/>
	<path class="st3" d="M52.9,45.8c1.2-1.4,1.1-2.7,2.4-3.8c-1.3,0.6-1.2,2.1-2.7,3.5 M50.3,50.1l3.4-9l-4,8.7"/>
	<path class="st3" d="M54.3,47.3c1.7-0.8,2-2.1,3.7-2.5c-1.4,0.1-2,1.5-3.8,2.2 M50.3,50.2l6.5-7l-7,6.5"/>
	<path class="st2" d="M50.3,50.6L63,44.8c0,0,0.2-0.1,0.2-0.3c-0.1-0.2-0.3-0.1-0.3-0.1l-13.1,4.9 M54.7,49.5c1.9,0.1,3-1.1,4.7-1
		c1.7,0.2,2.7-0.8,3.4-1c0.7-0.2,1.1,0.2,1.2,0c0.1-0.2-0.4-0.6-1.4-0.5c-1,0.1-1.2,0.9-3.4,0.7c-2.1-0.2-2.6,0.9-4.5,0.6"/>
	<path class="st3" d="M50.3,50.8l-0.1-0.2l4.5-2.1c0,0,0,0,0,0l0-0.2c0.1,0,0.3,0,0.4,0l7.8-3.6c0,0,0.1-0.1,0.1-0.1c0,0,0,0,0,0
		c0,0-0.1,0-0.1,0l-13.1,4.9l-0.1-0.2l13.1-4.9c0,0,0.2-0.1,0.3,0c0.1,0,0.1,0.1,0.1,0.1c0,0.1,0,0.2-0.1,0.3
		c-0.1,0.1-0.1,0.1-0.1,0.1l-7.3,3.4c0.4-0.1,0.8-0.2,1.1-0.3c0.6-0.2,1.3-0.4,2.4-0.3c1.4,0.1,1.9-0.2,2.5-0.4
		c0.3-0.1,0.5-0.2,0.9-0.3c0.7-0.1,1.3,0.1,1.5,0.4c0.1,0.1,0.1,0.2,0,0.3c-0.1,0.2-0.3,0.1-0.4,0.1c-0.2-0.1-0.5-0.2-0.8,0
		c-0.2,0.1-0.4,0.2-0.6,0.3c-0.6,0.4-1.5,0.8-2.8,0.7c-0.8-0.1-1.5,0.2-2.2,0.4c-0.7,0.3-1.5,0.6-2.5,0.5l0-0.2
		c0.9,0,1.7-0.2,2.4-0.5c0.7-0.3,1.4-0.5,2.3-0.5c1.2,0.1,2.1-0.4,2.7-0.7c0.2-0.1,0.4-0.2,0.6-0.3c0.4-0.1,0.8,0,1,0
		c0,0,0.1,0,0.1,0c0,0,0,0-0.1-0.1c-0.1-0.1-0.5-0.3-1.2-0.2c-0.3,0-0.5,0.2-0.8,0.3c-0.5,0.3-1.1,0.5-2.6,0.4
		c-1-0.1-1.7,0.1-2.3,0.3c-0.5,0.2-1,0.3-1.8,0.3L50.3,50.8z"/>
	<path class="st2" d="M50,50.7l14-0.5c0,0,0.3,0,0.3-0.2c0-0.2-0.3-0.2-0.3-0.2l-14-0.5 M54.5,51.3c1.8,0.8,3.2,0.1,4.7,0.9
		c1.5,0.8,2.8,0.3,3.5,0.4c0.7,0.1,0.9,0.6,1.1,0.5c0.2-0.1-0.2-0.7-1.1-1c-0.9-0.2-1.5,0.3-3.4-0.6c-1.9-1-2.7-0.2-4.4-1.2"/>
	<path class="st3" d="M63.8,53.2c-0.1,0-0.2-0.1-0.3-0.2c-0.2-0.1-0.4-0.3-0.7-0.4c-0.2,0-0.4,0-0.7,0c-0.7,0.1-1.7,0.2-2.9-0.4
		c-0.7-0.4-1.5-0.4-2.2-0.4c-0.8,0-1.6-0.1-2.5-0.5l0.1-0.2c0.9,0.4,1.6,0.4,2.4,0.4c0.8,0,1.5,0.1,2.3,0.5c1.1,0.6,2.1,0.5,2.8,0.4
		c0.3,0,0.5-0.1,0.7,0c0.4,0,0.7,0.3,0.9,0.4c0,0,0.1,0.1,0.1,0.1c0,0,0,0,0-0.1c-0.1-0.2-0.4-0.5-1-0.7c-0.3-0.1-0.6-0.1-0.9-0.1
		c-0.6,0-1.3,0.1-2.5-0.6c-0.9-0.5-1.6-0.5-2.2-0.6c-0.6,0-1.1-0.1-1.8-0.4L50,50.8l0-0.2l4.9-0.2c0,0,0,0,0,0l0.1-0.2
		c0.1,0.1,0.3,0.1,0.4,0.2l8.6-0.3c0,0,0.2,0,0.2-0.1c0,0,0,0-0.1,0c0,0-0.1,0-0.1,0l-14-0.5l0-0.2l14,0.5c0,0,0.1,0,0.2,0
		c0.1,0,0.2,0.1,0.2,0.3c0,0.2-0.2,0.3-0.4,0.3c0,0,0,0,0,0L56,50.6c0.4,0.1,0.8,0.1,1.2,0.2c0.7,0.1,1.4,0.1,2.3,0.6
		c1.2,0.6,1.9,0.6,2.4,0.6c0.3,0,0.6,0,0.9,0.1c0.7,0.2,1.1,0.6,1.2,0.9c0,0.2,0,0.2-0.1,0.3C63.9,53.2,63.8,53.2,63.8,53.2z"/>
	<path class="st2" d="M49.7,50.6l13.1,4.9c0,0,0.2,0.1,0.3-0.1c0.1-0.2-0.2-0.3-0.2-0.3l-12.7-5.8 M53.7,53c1.3,1.4,2.9,1.3,4,2.7
		c1.1,1.3,2.5,1.4,3.1,1.7c0.6,0.3,0.6,0.9,0.8,0.9c0.2-0.1,0.1-0.8-0.6-1.3c-0.8-0.6-1.5-0.3-2.9-1.9c-1.4-1.6-2.5-1.2-3.6-2.8"/>
	<path class="st3" d="M61.6,58.3c-0.1,0-0.2-0.1-0.3-0.3c-0.1-0.2-0.2-0.4-0.6-0.6c-0.2-0.1-0.4-0.1-0.6-0.2
		c-0.7-0.2-1.7-0.5-2.5-1.5c-0.5-0.6-1.2-1-1.9-1.3c-0.7-0.3-1.4-0.7-2.1-1.4l0.2-0.2c0.6,0.7,1.4,1,2,1.3c0.7,0.3,1.4,0.6,2,1.3
		c0.8,0.9,1.7,1.2,2.4,1.4c0.3,0.1,0.5,0.1,0.7,0.2c0.4,0.2,0.6,0.5,0.7,0.7c0,0,0,0.1,0.1,0.1c0,0,0,0,0-0.1c0-0.2-0.1-0.6-0.7-1
		c-0.2-0.2-0.5-0.3-0.8-0.4c-0.6-0.2-1.2-0.4-2.1-1.5c-0.7-0.8-1.3-1.1-1.8-1.4c-0.5-0.3-1-0.5-1.5-1l-5-1.9l0.1-0.2l4.6,1.7
		c0,0,0,0,0,0l0.2-0.1c0.1,0.1,0.2,0.2,0.3,0.3l8.1,3c0,0,0.1,0,0.2,0c0,0-0.1-0.1-0.1-0.1l-12.7-5.8l0.1-0.2l12.7,5.8
		c0,0,0.2,0.1,0.2,0.2c0,0.1,0,0.1,0,0.2c-0.1,0.2-0.3,0.2-0.5,0.1l-7.6-2.8c0.3,0.3,0.7,0.4,1,0.6c0.6,0.3,1.2,0.6,1.9,1.4
		c0.9,1,1.5,1.3,2,1.5c0.3,0.1,0.5,0.2,0.8,0.4c0.6,0.4,0.8,1,0.8,1.3C61.8,58.2,61.7,58.2,61.6,58.3C61.6,58.3,61.6,58.3,61.6,58.3
		z"/>
	<path class="st2" d="M49.5,50.5L59.8,60c0,0,0.2,0.2,0.3,0.1c0.1-0.1-0.1-0.3-0.1-0.3l-9.5-10.3 M52.3,54.1c0.7,1.8,2.2,2.3,2.7,4
		c0.5,1.7,1.8,2.2,2.2,2.7c0.5,0.5,0.2,1.1,0.4,1.1c0.2,0,0.4-0.6-0.1-1.5c-0.5-0.8-1.3-0.8-1.9-2.8c-0.7-2-1.8-2.1-2.3-4"/>
	<path class="st3" d="M57.6,62.1C57.6,62.1,57.6,62.1,57.6,62.1c-0.2,0-0.2-0.2-0.2-0.4c0-0.2,0-0.5-0.3-0.8
		c-0.1-0.1-0.3-0.3-0.5-0.4c-0.6-0.5-1.4-1.1-1.8-2.3c-0.3-0.8-0.7-1.3-1.3-1.9c-0.5-0.6-1.1-1.2-1.4-2.1l0.2-0.1
		c0.3,0.9,0.9,1.5,1.4,2c0.5,0.6,1.1,1.1,1.3,2c0.4,1.2,1.1,1.8,1.7,2.2c0.2,0.2,0.4,0.3,0.5,0.5c0.3,0.3,0.3,0.7,0.3,0.9
		c0,0,0,0.1,0,0.1c0,0,0,0,0-0.1c0.1-0.2,0.1-0.6-0.2-1.2c-0.2-0.3-0.3-0.4-0.6-0.6c-0.4-0.4-0.9-0.9-1.4-2.2c-0.3-1-0.8-1.5-1.2-2
		c-0.4-0.4-0.7-0.8-1-1.5l-3.9-3.6l0.2-0.2l3.6,3.4c0,0,0,0,0,0l0.2-0.1c0,0.1,0.1,0.3,0.1,0.4l6.3,5.9c0,0,0.1,0.1,0.2,0.1
		c0,0,0-0.1-0.1-0.1l-9.5-10.3l0.2-0.2l9.5,10.3c0,0,0.1,0.1,0.1,0.1c0.1,0.1,0,0.2,0,0.3c-0.1,0.1-0.3,0.1-0.5-0.1l-5.9-5.5
		c0.2,0.4,0.4,0.7,0.7,0.9c0.4,0.5,0.9,1,1.2,2.1c0.4,1.3,0.9,1.7,1.3,2.1c0.2,0.2,0.4,0.4,0.6,0.7c0.4,0.6,0.4,1.2,0.2,1.5
		C57.8,62.1,57.7,62.1,57.6,62.1z"/>
	<path class="st3" d="M55,49.1c1.9-0.1,2.7-1.1,4.4-0.9c-1.3-0.5-2.4,0.6-4.4,0.6 M50.2,50.3l8.7-4l-9,3.4"/>
	<path class="st3" d="M55,51.1c1.8,0.6,2.9,0,4.4,0.8c-1.1-0.9-2.4-0.3-4.2-1.1 M50,50.4l9.6-0.4L50,49.7"/>
	<path class="st3" d="M54.2,52.9c1.4,1.2,2.7,1.1,3.8,2.4c-0.6-1.3-2.1-1.2-3.5-2.7 M49.9,50.3l9,3.4l-8.7-4"/>
	<path class="st3" d="M52.7,54.3c0.8,1.7,2.1,2,2.5,3.7c-0.1-1.4-1.5-2-2.2-3.8 M49.8,50.3l7,6.5l-6.5-7"/>
	<circle class="st2" cx="50" cy="50" r="5.7"/>
	<path class="st3" d="M50,55.9c-3.2,0-5.9-2.6-5.9-5.9s2.6-5.9,5.9-5.9s5.9,2.6,5.9,5.9S53.2,55.9,50,55.9z M50,44.4
		c-3.1,0-5.6,2.5-5.6,5.6s2.5,5.6,5.6,5.6s5.6-2.5,5.6-5.6S53.1,44.4,50,44.4z"/>
	<path class="st3" d="M51,49.3c0.4,0.4,1.4,0.4,2.1,0c-0.3-0.3-0.7-0.5-1.1-0.5l0,0C51.6,48.8,51.2,48.9,51,49.3z M52.7,49.2
		c-0.2,0.2-0.4,0.3-0.6,0.3c0.1-0.1,0.2-0.2,0.2-0.3c0-0.1-0.1-0.3-0.2-0.3C52.4,48.9,52.7,49.1,52.7,49.2z M51.7,48.9
		c-0.1,0.1-0.1,0.2-0.1,0.3c0,0.2,0.1,0.3,0.2,0.3c-0.2,0-0.4-0.1-0.6-0.3C51.3,49.1,51.5,49,51.7,48.9z"/>
	<path class="st3" d="M52,48.5L52,48.5c-0.6,0-0.7,0.1-1,0.4c-0.3,0.2-0.4,0.2-0.4,0.2c0,0,0,0.2,0.1,0.1c0.1,0,0.3-0.1,0.5-0.4
		c0.3-0.2,0.5-0.2,0.8-0.2c0.8,0,1.2,0.7,1.3,0.6C53.4,49.2,52.9,48.5,52,48.5z"/>
	<path class="st3" d="M50.4,48.3c-0.1,0.2-0.1,0.3-0.1,0.5c-0.1,0.7,0,1.3,0.4,2c0,0,0.1-0.1,0.2-0.1c-0.4-0.6-0.5-1.1-0.5-1.6
		c0-0.3,0.2-0.5,0.3-0.7c0.7-0.7,2-0.5,3,0.3C52.6,47.5,51.3,47.5,50.4,48.3z"/>
	<polygon class="st3" points="53.6,48.8 53.6,48.8 53.6,48.8 	"/>
	<path class="st3" d="M51.3,49.6c-0.4-0.2-0.4-0.3-0.5-0.3c-0.1,0-0.1,0.1,0.4,0.4c0.4,0.3,1.2,0.3,1.9-0.3l0,0
		C52.2,49.8,51.7,49.8,51.3,49.6z"/>
	<path class="st3" d="M50.8,51.3c-0.1,0-0.3-0.1-0.3-0.3c0,0.1-0.2,0.3-0.5,0.4c-0.3,0-0.5-0.3-0.5-0.4c0,0.1-0.1,0.3-0.3,0.3
		c-0.1,0-0.3-0.1-0.3-0.3c0-0.1,0.1-0.2,0.2-0.3h0c-0.2,0-0.3,0.2-0.3,0.4c0,0.2,0.2,0.4,0.4,0.4c0.1,0,0.2-0.1,0.3-0.2
		c0.2,0.1,0.4,0.1,0.5,0.1c0,0,0,0,0.1,0c0.1,0,0.3,0,0.5-0.1c0.1,0.1,0.2,0.2,0.3,0.2c0.2,0,0.4-0.2,0.4-0.4c0-0.2-0.1-0.4-0.3-0.4
		c0.1,0,0.2,0.1,0.2,0.3C51.1,51.2,51,51.3,50.8,51.3z"/>
	<path class="st3" d="M50,52.2L50,52.2c0.2,0,0.4-0.2,0.8,0c0.3,0.2,0.5,0.3,0.7,0.4c-0.4-0.3-0.6-0.7-1-0.7c-0.1,0-0.3,0-0.4,0.1h0
		C49.8,52,49.6,52,49.6,52c-0.4,0-0.6,0.4-1,0.7c0.2-0.1,0.4-0.3,0.7-0.4C49.6,52,49.8,52.2,50,52.2z"/>
	<path class="st3" d="M50,52.5L50,52.5c-0.2,0-0.3-0.1-0.6-0.1h0c-0.2,0-0.4,0-0.7,0.1c0,0-0.1,0-0.1,0c0.9,0.1,0.5,0.6,1.4,0.6h0
		c1,0,0.5-0.5,1.5-0.6c-0.1,0-0.1,0-0.2,0C50.4,52.4,50.3,52.5,50,52.5z M50,53.1L50,53.1c-0.7,0-0.5-0.5-1.3-0.5c0,0,0,0,0,0
		c0.8-0.2,0.9,0.1,1.3,0.1h0c0.3,0,0.5-0.3,1.3-0.1C50.5,52.6,50.7,53.1,50,53.1z"/>
	<polygon class="st3" points="48.7,52.6 48.7,52.6 48.7,52.6 	"/>
	<path class="st3" d="M50,53.2c-0.4,0-0.8,0.4-0.8,0.8c0.1-0.4,0.4-0.6,0.8-0.6c0.4,0,0.7,0.3,0.8,0.6C50.8,53.6,50.4,53.2,50,53.2z
		"/>
	<polygon class="st3" points="46.5,48.8 46.5,48.8 46.5,48.8 	"/>
	<path class="st3" d="M49.4,48.4c0.2,0.2,0.3,0.5,0.3,0.7c0.1,0.5-0.1,1-0.5,1.6c0,0,0.1,0,0.2,0.1c0.3-0.7,0.5-1.4,0.4-2
		c0-0.2-0.1-0.3-0.1-0.5c-1-0.8-2.3-0.9-3.2,0.4C47.5,47.9,48.7,47.8,49.4,48.4z"/>
	<path class="st3" d="M48.8,48.9c0.3,0.2,0.4,0.3,0.5,0.4c0.1,0,0.1-0.1,0.1-0.1c0,0-0.2,0-0.4-0.2c-0.3-0.2-0.4-0.4-1-0.4l0,0
		c-0.9,0-1.4,0.7-1.3,0.7c0.1,0,0.5-0.6,1.3-0.6C48.3,48.6,48.6,48.6,48.8,48.9z"/>
	<path class="st3" d="M47,49.3c0.2,0.2,0.6,0.3,1,0.3c0,0,0,0,0,0c0,0,0,0,0,0c0.4,0,0.7-0.1,1-0.3c-0.3-0.3-0.7-0.5-1.1-0.5l0,0
		C47.6,48.8,47.2,48.9,47,49.3z M48.8,49.2c-0.1,0.2-0.3,0.3-0.5,0.3c0.1-0.1,0.2-0.2,0.2-0.3c0-0.1-0.1-0.2-0.1-0.3
		C48.6,49,48.7,49.1,48.8,49.2z M47.8,48.9c-0.1,0.1-0.2,0.2-0.2,0.3c0,0.2,0.1,0.3,0.2,0.4c-0.2,0-0.5-0.1-0.7-0.3
		C47.4,49.1,47.6,48.9,47.8,48.9z"/>
	<path class="st3" d="M49.3,49.4c-0.1,0-0.2,0.1-0.5,0.3c-0.4,0.2-0.9,0.2-1.8-0.2l0,0c0.7,0.6,1.5,0.5,1.9,0.3
		C49.3,49.5,49.3,49.4,49.3,49.4z"/>
</g>
</svg>
