<?xml version="1.0" encoding="utf-8"?>
<!-- Generator: Adobe Illustrator 25.1.0, SVG Export Plug-In . SVG Version: 6.00 Build 0)  -->
<svg version="1.1" id="Capa_1" xmlns="http://www.w3.org/2000/svg" xmlns:xlink="http://www.w3.org/1999/xlink" x="0px" y="0px"
	 width="100px" height="100px" viewBox="0 0 100 100" style="enable-background:new 0 0 100 100;" xml:space="preserve">
<style type="text/css">
	.st0{fill:#CF142B;}
	.st1{fill:#00247D;}
	.st2{fill:#FFCC00;}
	.st3{fill:#FFFFFF;}
</style>
<path class="st0" d="M-25,0h150v100H-25V0z"/>
<path class="st1" d="M-25,0h150v66.7H-25V0z"/>
<path class="st2" d="M-25,0h150v33.3H-25V0z"/>
<g>
	<polygon class="st3" points="55.8,40.4 55.5,37.7 54.1,40.1 51.4,39.6 53.3,41.6 52,44.1 54.5,42.9 56.5,44.9 56.1,42.1 58.6,40.9 
			"/>
	<polygon class="st3" points="64.8,45.8 67.5,45.5 65.1,44.1 65.7,41.4 63.6,43.3 61.2,41.9 62.4,44.4 60.3,46.3 63.1,46 64.2,48.5 
			"/>
	<polygon class="st3" points="71.7,52.2 74.4,52.9 72.6,50.8 74.1,48.4 71.5,49.4 69.7,47.3 69.9,50.1 67.3,51.1 70,51.8 70.2,54.6 
			"/>
	<polygon class="st3" points="77.3,59.6 79.5,57.9 76.7,58 75.8,55.3 75,58 72.2,58.1 74.5,59.7 73.8,62.3 76,60.6 78.3,62.2 	"/>
	<polygon class="st3" points="25,58 24.2,55.3 23.3,58 20.5,57.9 22.7,59.6 21.7,62.2 24,60.6 26.2,62.3 25.5,59.7 27.8,58.1 	"/>
	<polygon class="st3" points="30.1,50.1 30.3,47.3 28.5,49.4 25.9,48.4 27.4,50.8 25.6,52.9 28.3,52.2 29.8,54.6 30,51.8 32.7,51.1 
			"/>
	<polygon class="st3" points="37.6,44.4 38.8,41.9 36.4,43.3 34.3,41.4 34.9,44.1 32.5,45.5 35.2,45.8 35.8,48.5 36.9,46 39.7,46.3 
			"/>
	<polygon class="st3" points="45.9,40.1 44.5,37.7 44.2,40.4 41.4,40.9 41.4,40.9 41.4,40.9 41.4,40.9 41.4,40.9 43.9,42.1 
		43.5,44.9 45.5,42.9 48,44.1 46.7,41.6 48.6,39.6 	"/>
</g>
</svg>
