<?xml version="1.0" encoding="utf-8"?>
<!-- Generator: Adobe Illustrator 25.1.0, SVG Export Plug-In . SVG Version: 6.00 Build 0)  -->
<svg version="1.1" id="Capa_1" xmlns="http://www.w3.org/2000/svg" xmlns:xlink="http://www.w3.org/1999/xlink" x="0px" y="0px"
	 width="100px" height="100px" viewBox="0 0 100 100" style="enable-background:new 0 0 100 100;" xml:space="preserve">
<style type="text/css">
	.st0{fill:#0038A8;}
	.st1{fill:#FFFFFF;}
	.st2{fill:#D52B1E;}
	.st3{fill:#009B3A;}
	.st4{fill:#FEDF00;}
</style>
<g>
	<g>
		<path class="st0" d="M-40.9,0h181.8v100H-40.9V0z"/>
	</g>
	<g>
		<path class="st1" d="M-40.9,0h181.8v66.7H-40.9V0z"/>
	</g>
	<g>
		<path class="st2" d="M-40.9,0h181.8v33.3H-40.9V0z"/>
	</g>
	<g>
		<path class="st1" d="M62.7,50c0,7-5.7,12.7-12.7,12.7c-7,0-12.7-5.7-12.7-12.7c0-7,5.7-12.7,12.7-12.7C57,37.3,62.7,43,62.7,50z"
			/>
		<path d="M50,63c-7.1,0-13-5.8-13-13c0-7.1,5.8-13,13-13c7.1,0,13,5.8,13,13C63,57.1,57.1,63,50,63z M50,37.6
			c-6.8,0-12.4,5.6-12.4,12.4c0,6.8,5.6,12.4,12.4,12.4c6.8,0,12.4-5.6,12.4-12.4C62.4,43.2,56.8,37.6,50,37.6z"/>
	</g>
	<g>
		<path class="st3" d="M56.1,48c-0.3,0-0.3,0.3-0.3,0.3s0-0.1,0,0c0,0.1,0.1,0.4,0.3,0.4c0.2,0,0.3-0.3,0.3-0.4
			C56.4,48.3,56.4,48,56.1,48"/>
		<path d="M56.1,48.9C56.1,48.9,56.1,48.9,56.1,48.9c-0.3,0-0.4-0.3-0.4-0.5c0,0,0,0,0,0l0,0c0,0,0-0.2,0.1-0.3
			C55.9,48,56,48,56.1,48v0c0.3,0,0.4,0.3,0.4,0.4c0,0.1,0,0.3-0.2,0.4C56.3,48.8,56.2,48.9,56.1,48.9z M55.9,48.3
			C55.9,48.3,55.9,48.4,55.9,48.3c0,0.1,0,0.4,0.2,0.4c0.1,0,0.1,0,0.1,0c0.1-0.1,0.1-0.2,0.1-0.3c0,0,0-0.3-0.2-0.3l0-0.1l0,0.1
			c-0.1,0-0.1,0-0.2,0C55.9,48.2,55.9,48.3,55.9,48.3z"/>
	</g>
	<g>
		<path d="M42,55.1l-0.1-0.2c0,0,0-0.1-0.1-0.1c0,0-0.1,0-0.1,0c0,0-0.1,0-0.1,0c0,0-0.1,0.1-0.1,0.1c0,0,0,0.1,0.1,0.2l0.1,0.2
			L42,55.1z M43.1,55l-1.4,0.8l-0.4-0.7c-0.1-0.1-0.1-0.2-0.1-0.3c0-0.1,0-0.2,0-0.2c0-0.1,0.1-0.1,0.2-0.2c0.1,0,0.1-0.1,0.2-0.1
			c0.1,0,0.1,0,0.2,0.1c0,0,0.1,0.1,0.1,0.1c0-0.1,0-0.1,0-0.1c0,0,0-0.1,0-0.1c0-0.1,0-0.1,0-0.1l0.3-0.4l0.3,0.5l-0.3,0.5
			c0,0.1-0.1,0.1-0.1,0.1c0,0,0,0.1,0,0.1l0,0l0.6-0.3L43.1,55z M40.7,53.9l-0.4-1.3l0.3-0.1l0.3,0.8l0.2-0.1l-0.2-0.7l0.3-0.1
			l0.2,0.7l0.3-0.1l-0.3-0.8l0.3-0.1l0.4,1.3L40.7,53.9z M40.7,51.3l0-0.1c0-0.1,0-0.2-0.1-0.2c0,0-0.1,0-0.1,0c0,0-0.1,0-0.1,0.1
			c0,0,0,0.1,0,0.2l0,0.1L40.7,51.3z M40.1,51.9L40,51.1c0-0.2,0-0.3,0.1-0.4c0.1-0.1,0.2-0.2,0.3-0.2c0.2,0,0.3,0,0.4,0.1
			c0.1,0.1,0.2,0.2,0.2,0.4l0,0.3l0.6-0.1l0.1,0.5L40.1,51.9z M40.1,48.8l0.1-0.5l1,0.1c0.1,0,0.2,0,0.3,0.1c0.1,0,0.2,0.1,0.2,0.2
			c0.1,0.1,0.1,0.1,0.1,0.2c0,0.1,0,0.2,0,0.3c0,0.1,0,0.2,0,0.3c0,0.1-0.1,0.2-0.1,0.2c0,0.1-0.1,0.1-0.2,0.2
			c-0.1,0-0.1,0.1-0.2,0.1c-0.1,0-0.2,0-0.3,0l-0.9-0.1l0.1-0.5l1,0.1c0.1,0,0.2,0,0.2-0.1c0.1,0,0.1-0.1,0.1-0.2
			c0-0.1,0-0.2-0.1-0.2c0-0.1-0.1-0.1-0.2-0.1L40.1,48.8z M41.7,47.4l0.1-0.2c0-0.1,0-0.1,0-0.2c0,0-0.1-0.1-0.1-0.1
			c0,0-0.1,0-0.1,0c0,0-0.1,0.1-0.1,0.2l-0.1,0.2L41.7,47.4z M41.1,47.2l0.1-0.2c0-0.1,0-0.1,0-0.2c0,0,0-0.1-0.1-0.1
			c0,0-0.1,0-0.1,0c0,0-0.1,0.1-0.1,0.1l-0.1,0.2L41.1,47.2z M40.3,47.5l0.3-0.9c0.1-0.1,0.1-0.2,0.2-0.3c0.1-0.1,0.2-0.1,0.3,0
			c0.1,0,0.2,0.1,0.2,0.2c0,0.1,0,0.1,0,0.2c0.1-0.1,0.1-0.2,0.2-0.2c0.1,0,0.2,0,0.3,0c0.1,0,0.1,0.1,0.2,0.1
			c0,0.1,0.1,0.1,0.1,0.2c0,0,0,0.1,0,0.2c0,0.1,0,0.2-0.1,0.2L41.8,48L40.3,47.5z M41.1,45.4l0.3-0.4l1,0.6l0.4-0.7l0.3,0.2
			l-0.7,1.1L41.1,45.4z M42.2,43.9l0.3-0.4l1.2,1l-0.3,0.4L42.2,43.9z M44.4,43l0.4-0.2c0.1,0.1,0.1,0.2,0.1,0.3
			c0,0.1,0,0.2-0.1,0.3c0,0.1-0.1,0.2-0.2,0.3c-0.1,0.1-0.3,0.2-0.4,0.2c-0.1,0-0.2,0-0.4,0c-0.1,0-0.3-0.1-0.4-0.3
			c-0.2-0.2-0.2-0.4-0.2-0.6c0-0.2,0.1-0.4,0.3-0.5c0.2-0.1,0.3-0.2,0.4-0.2c0.1,0,0.3,0,0.4,0.1l-0.3,0.4c0,0-0.1,0-0.1-0.1
			c0,0-0.1,0-0.1,0c0,0-0.1,0-0.1,0.1c-0.1,0.1-0.1,0.2-0.1,0.3c0,0.1,0.1,0.2,0.1,0.3c0.1,0.1,0.2,0.2,0.3,0.2c0.1,0,0.2,0,0.2-0.1
			c0.1-0.1,0.1-0.1,0.1-0.2C44.5,43.2,44.4,43.1,44.4,43 M46,42l-0.4-0.4l0.1,0.6L46,42z M46.3,42.3l-0.5,0.3l0.1,0.3L45.4,43
			l-0.2-1.7l0.5-0.2l1.3,1.2l-0.5,0.2L46.3,42.3z M48.2,40.6l0.1,0.9l0.1,0c0.1,0,0.2,0,0.2-0.1c0,0,0.1-0.1,0.1-0.1
			c0-0.1,0-0.2,0-0.3c0-0.2-0.1-0.3-0.1-0.3c-0.1-0.1-0.2-0.1-0.3-0.1L48.2,40.6z M47.7,40.3l0.7-0.1c0.1,0,0.3,0,0.4,0
			c0.1,0,0.2,0.1,0.2,0.1c0.1,0.1,0.1,0.1,0.2,0.2c0,0.1,0.1,0.2,0.1,0.3c0,0.2,0,0.3,0,0.4c0,0.1-0.1,0.2-0.1,0.3
			c-0.1,0.1-0.1,0.1-0.2,0.2c-0.1,0-0.2,0.1-0.3,0.1l-0.7,0.1L47.7,40.3z M49.9,40l1.3,0.1l0,0.3l-0.8-0.1l0,0.3l0.8,0.1l0,0.3
			L50.3,41l0,0.3l0.9,0.1l0,0.4l-1.3-0.1L49.9,40z M51.9,40.2l0.5,0.1L52,41.5l0.7,0.2l-0.1,0.4l-1.2-0.3L51.9,40.2z M54.6,42
			l0.1,0.1c0.1,0.1,0.1,0.1,0.2,0.1c0,0,0.1,0,0.1-0.1c0,0,0-0.1,0-0.1c0,0-0.1-0.1-0.1-0.1l-0.1-0.1L54.6,42z M54.6,41.1l0.7,0.5
			c0.1,0.1,0.2,0.2,0.3,0.3c0,0.1,0,0.2-0.1,0.4c-0.1,0.1-0.2,0.2-0.3,0.2c-0.1,0-0.3,0-0.4-0.1l-0.2-0.2l-0.3,0.5l-0.4-0.3
			L54.6,41.1z M56.3,43.6l0.3-0.5L56,43.3L56.3,43.6z M56.1,43.9l-0.4-0.4l-0.2,0.1l-0.4-0.4l0.7-0.3l0.8-0.4l0.4,0.4l-0.7,1.6
			L56,44.1L56.1,43.9z M57.6,44.6l0.1,0.2c0,0,0,0.1,0.1,0.1c0,0,0.1,0,0.1,0c0,0,0.1,0,0.1,0c0,0,0.1-0.1,0.1-0.1
			c0,0,0-0.1-0.1-0.2l-0.1-0.2L57.6,44.6z M56.5,44.7l1.4-0.9l0.4,0.7c0.1,0.1,0.1,0.2,0.2,0.3c0,0.1,0,0.2,0,0.2
			c0,0.1-0.1,0.1-0.2,0.2c-0.1,0-0.2,0.1-0.2,0.1c-0.1,0-0.1,0-0.2,0c-0.1,0-0.1-0.1-0.1-0.1c0,0.1,0,0.1,0,0.1c0,0,0,0.1,0,0.1
			c0,0,0,0.1,0,0.1L57.4,46l-0.3-0.5l0.3-0.5c0-0.1,0.1-0.1,0.1-0.1c0,0,0-0.1,0-0.1l0,0l-0.5,0.3L56.5,44.7z M58.4,46.8l0.5-0.4
			l-0.6,0L58.4,46.8z M58.1,47.1L58,46.5l-0.3,0l-0.2-0.5l1.7,0l0.2,0.5l-1.3,1.1l-0.2-0.5L58.1,47.1z M58.9,48.8l0.3,0l0.1,0.8
			l-0.7,0.1c-0.1-0.1-0.2-0.3-0.2-0.4c-0.1-0.1-0.1-0.2-0.1-0.4c0-0.2,0-0.3,0-0.5c0-0.1,0.1-0.2,0.3-0.3c0.1-0.1,0.3-0.1,0.4-0.2
			c0.2,0,0.3,0,0.5,0.1c0.1,0.1,0.2,0.1,0.3,0.3c0.1,0.1,0.1,0.2,0.1,0.4c0,0.2,0,0.3,0,0.4c0,0.1-0.1,0.2-0.1,0.2
			c-0.1,0.1-0.1,0.1-0.2,0.2L59.5,49c0.1,0,0.1-0.1,0.1-0.1c0,0,0-0.1,0-0.2c0-0.1-0.1-0.2-0.1-0.2c-0.1-0.1-0.2-0.1-0.4-0.1
			c-0.2,0-0.3,0.1-0.4,0.1c-0.1,0.1-0.1,0.2-0.1,0.3c0,0.1,0,0.1,0,0.2c0,0,0.1,0.1,0.1,0.2l0.2,0L58.9,48.8z M59.9,51.2l-0.1,0.5
			l-0.9-0.1c-0.1,0-0.2,0-0.3-0.1c-0.1,0-0.1-0.1-0.2-0.2c-0.1-0.1-0.1-0.1-0.1-0.2c0-0.1,0-0.2,0-0.4c0-0.1,0-0.2,0-0.3
			c0-0.1,0.1-0.2,0.1-0.2c0-0.1,0.1-0.1,0.2-0.2c0.1,0,0.1-0.1,0.2-0.1c0.1,0,0.2,0,0.3,0l0.9,0.1L60,50.6l-1-0.1
			c-0.1,0-0.2,0-0.2,0c-0.1,0-0.1,0.1-0.1,0.2c0,0.1,0,0.2,0,0.2c0,0.1,0.1,0.1,0.2,0.1L59.9,51.2z M58.5,53l0.6,0l-0.5-0.4L58.5,53
			z M58.1,53l0.2-0.5l-0.2-0.2l0.2-0.5l1.3,1.1l-0.2,0.5l-1.7,0l0.2-0.5L58.1,53z M59,54.5l-0.3,0.5l-0.6,0l0.3,0.6l-0.3,0.5l-0.5-1
			L57,54.6l0.3-0.4l0.6,0.3L59,54.5z"/>
	</g>
	<g>
		<path d="M50,60.7c-5.9,0-10.7-4.8-10.7-10.7c0-5.9,4.8-10.7,10.7-10.7c5.9,0,10.7,4.8,10.7,10.7l0,0C60.7,55.9,55.9,60.7,50,60.7z
			 M50,39.5c-5.8,0-10.5,4.7-10.5,10.5c0,5.8,4.7,10.5,10.5,10.5c5.8,0,10.5-4.7,10.5-10.5h0.1h-0.1C60.5,44.2,55.8,39.5,50,39.5z"
			/>
	</g>
	<g>
		<path d="M50,58c-4.4,0-8-3.6-8-8c0-4.4,3.6-8,8-8c4.4,0,8,3.6,8,8h0C58,54.4,54.4,58,50,58z M50,42.2c-4.3,0-7.8,3.5-7.8,7.8
			c0,4.3,3.5,7.8,7.8,7.8c4.3,0,7.8-3.5,7.8-7.8l0,0c0-2.1-0.8-4-2.3-5.5C54,43,52.1,42.2,50,42.2z"/>
	</g>
	<g>
		<path class="st4" d="M50,47.1l0.7,1.9l2,0l-1.6,1.2l0.6,1.9L50,51.1l-1.7,1.1l0.6-1.9l-1.6-1.2l2,0L50,47.1z"/>
		<path d="M51.7,52.3L50,51.1l-1.7,1.2l0.6-2L47.2,49l2.1,0l0.7-2l0.7,2l2.1,0l-1.7,1.3L51.7,52.3z M47.5,49.1l1.5,1.2l-0.6,1.8
			L50,51l1.6,1.1L51,50.3l1.5-1.2l-1.9,0L50,47.3l-0.6,1.8L47.5,49.1z"/>
	</g>
	<g>
		<path class="st3" d="M53.6,55.4c-0.1,0.1-0.3,0.1-0.4,0.1c-0.1,0-0.4,0-0.5,0c-0.1,0-0.2,0-0.3,0C51.9,55.5,53.4,55.5,53.6,55.4
			 M52.1,55c0-0.1,0.2-0.5,0.3-0.6c0.1-0.1,0.2-0.4,0.3-0.6c0-0.1,0.2-0.3,0.3-0.2c-0.3,0.3-0.6,0.8-0.7,1.1
			C52.3,54.8,52.2,54.9,52.1,55c0,0.1,0,0.2-0.1,0.2c-0.1,0,0,0,0,0S52.1,55,52.1,55L52.1,55z M54.3,55.3c0,0-0.3,0-0.4-0.1
			c-0.2-0.1-0.4-0.1-0.7-0.1c-0.2,0-0.4,0.1-0.6,0.1c-0.2,0.1-0.4,0.1-0.4,0.1s-0.1,0-0.1,0c0.1,0,0.3-0.2,0.3-0.2l0.1-0.2
			c0,0,0.7-0.9,0.7-1.2c0.1-0.2,0.2-0.5,0.2-0.6c0,0-0.5,0.2-0.7,0.3c-0.1,0.1-0.2,0.4-0.3,0.5c0,0.1-0.2,0.2-0.2,0.2
			c-0.2,0.1-0.3,0.5-0.3,0.8c-0.1,0.3-0.8,0.5-0.8,0.5s-0.2,0.1,0,0.1c0,0,0.1,0.1,0.2,0.1c0.1,0,0.5-0.2,0.6-0.2
			c0.2,0,0.3,0.1,0.5,0.1c0.2,0.1,0.3,0.1,0.4,0c0.1,0,0.3,0,0.4,0c0.1,0,0.3,0,0.4,0c0.1,0,0.3-0.2,0.3-0.2S54.1,55.5,54.3,55.3
			C54.4,55.3,54.3,55.3,54.3,55.3"/>
		<path d="M52.6,55.8c-0.1,0-0.2,0-0.3-0.1c-0.1,0-0.3-0.1-0.5-0.1c0,0-0.2,0-0.3,0.1c-0.2,0.1-0.3,0.1-0.3,0.1
			c-0.1,0-0.1-0.1-0.2-0.1c0,0,0,0,0,0c0,0-0.1,0-0.1-0.1c0-0.1,0.1-0.1,0.1-0.1c0.2,0,0.7-0.2,0.8-0.4c0-0.2,0.1-0.7,0.4-0.8
			c0.1,0,0.2-0.1,0.2-0.2c0-0.1,0.1-0.4,0.3-0.5c0.1-0.1,0.7-0.3,0.7-0.3c0.1,0.1-0.1,0.5-0.2,0.6c0,0.1,0,0.2-0.1,0.4
			c-0.1,0.2-0.4,0.7-0.5,0.8l-0.1,0.2c0,0-0.1,0.1-0.1,0.1c0.1,0,0.2,0,0.3-0.1c0.2-0.1,0.4-0.1,0.6-0.1c0.2,0,0.5,0,0.7,0.1
			c0.2,0.1,0.4,0.1,0.4,0.1l0,0.1l0-0.1c0,0,0.1,0,0.1,0.1c0,0.1-0.1,0.1-0.1,0.1c-0.1,0.1-0.4,0.2-0.4,0.2c0,0-0.2,0.1-0.3,0.2
			c-0.1,0-0.2,0-0.4,0c-0.1,0-0.3,0-0.4,0C52.7,55.8,52.7,55.8,52.6,55.8z M51.8,55.5C51.8,55.5,51.8,55.5,51.8,55.5
			c0.2,0,0.3,0.1,0.5,0.1c0.1,0,0.3,0.1,0.4,0c0.1-0.1,0.3,0,0.5,0c0.1,0,0.3,0,0.3,0c0.1,0,0.3-0.1,0.3-0.2c0,0,0.3-0.1,0.4-0.2
			c0,0,0,0,0,0c-0.1,0-0.3,0-0.4-0.1c-0.2-0.1-0.4-0.1-0.6-0.1c-0.2,0-0.4,0.1-0.6,0.1c-0.2,0.1-0.4,0.1-0.4,0.1c-0.1,0-0.1,0-0.1,0
			c0,0,0-0.1,0-0.1c0,0,0.2-0.1,0.3-0.2l0.2-0.2c0.1-0.1,0.7-0.9,0.6-1.1l0,0l0,0c0.1-0.2,0.2-0.4,0.2-0.5c-0.1,0-0.5,0.2-0.6,0.2
			c-0.1,0.1-0.2,0.3-0.2,0.5c0,0.2-0.2,0.3-0.3,0.3c-0.1,0.1-0.3,0.5-0.3,0.7c-0.1,0.3-0.8,0.5-0.8,0.5c0,0,0,0,0,0c0,0,0,0,0,0
			c0,0,0,0,0.1,0.1c0,0,0.1,0.1,0.1,0.1c0,0,0.2,0,0.3-0.1C51.7,55.5,51.8,55.5,51.8,55.5z M52.5,55.6c-0.1,0-0.2,0-0.2-0.1
			c0-0.1,0-0.1,0.5-0.1c0.3,0,0.7,0,0.8-0.1l0,0.1l0,0c-0.1,0.1-0.2,0.1-0.4,0.1l0,0c-0.1,0-0.2,0-0.3,0c-0.1,0-0.1,0-0.2,0
			c0,0-0.1,0-0.1,0C52.6,55.6,52.5,55.6,52.5,55.6z M52.1,55.2L52.1,55.2c-0.1,0-0.1-0.1-0.1-0.1c0,0,0,0,0-0.1c0,0,0.1-0.1,0.1-0.2
			h0c0,0,0.1-0.1,0.1-0.2c0.1-0.2,0.2-0.3,0.2-0.4c0,0,0.1-0.1,0.1-0.2c0.1-0.1,0.2-0.3,0.2-0.4c0,0,0.2-0.2,0.3-0.2
			c0,0,0.1,0,0.1,0.1l0,0l0,0c-0.4,0.3-0.6,0.9-0.7,1.1c0,0-0.1,0.2-0.2,0.3c0,0,0,0,0,0C52.1,55.1,52.1,55.2,52.1,55.2L52.1,55.2z"
			/>
	</g>
	<g>
		<path class="st3" d="M52.3,56.2c0,0-1-0.5-1.1-0.5c0,0-0.5-0.2-0.7-0.3c-0.1,0-0.3-0.1-0.4-0.1c-0.2,0-0.4,0.1-0.4,0.1l0.3,0.1
			c0,0,0.2,0.1,0.4,0.2c0.2,0.1,0.2,0.2,0.2,0.2l0.9,0.4l0.2,0.1C51.6,56.4,51.8,56.1,52.3,56.2"/>
		<path d="M51.6,56.4l-0.2-0.2l-0.9-0.4l0,0c0,0,0-0.1-0.1-0.2c-0.1-0.1-0.3-0.2-0.3-0.2l-0.4-0.2l0.1,0c0,0,0.3-0.1,0.4-0.1
			c0.1,0,0.3,0,0.4,0.1c0.1,0,0.4,0.2,0.5,0.2c0.1,0,0.1,0.1,0.1,0.1c0.1,0,0.8,0.4,1.1,0.5l0,0.1C51.8,56.2,51.7,56.4,51.6,56.4
			L51.6,56.4z M50.6,55.8l0.9,0.4l0.2,0.1c0.1-0.1,0.2-0.2,0.5-0.2c-0.4-0.2-0.8-0.4-0.9-0.5c0,0,0,0-0.2-0.1
			c-0.1-0.1-0.4-0.2-0.5-0.2c-0.1,0-0.3-0.1-0.4-0.1c-0.1,0-0.2,0-0.3,0.1l0.1,0c0,0,0.2,0.1,0.4,0.2C50.5,55.7,50.6,55.8,50.6,55.8
			z"/>
	</g>
	<g>
		<path class="st3" d="M53.3,54.1c0.3-0.3,0.5-0.7,0.7-0.9c0,0,0,0.1,0,0.2c0,0.1-0.1,0.1-0.1,0.2c-0.1,0.1-0.2,0.2-0.3,0.3
			C53.6,53.9,53.6,54,53.3,54.1c0,0.1,0,0.2,0,0.2c0,0.1-0.2,0.2-0.3,0.4c0,0.2,0,0.1-0.1,0.2C53.1,54.6,53.2,54.4,53.3,54.1
			 M52.6,55c0,0-0.6,0.4-0.5,0.3c0.2-0.1,0.8-0.3,0.9-0.3c0.2-0.1,0.3-0.3,0.5-0.4c0.2-0.2,0.6-0.6,0.7-0.8c0.1-0.2,0.2-0.4-0.2-1
			c0,0-0.1,0.1-0.2,0.2c-0.1,0.1-0.3,0.2-0.3,0.2l-0.2,0.2C53.4,53.4,52.7,54.8,52.6,55"/>
		<path d="M52.1,55.4C52.1,55.4,52.1,55.4,52.1,55.4c-0.1-0.1,0-0.1,0.2-0.3c0.1,0,0.2-0.1,0.2-0.1c0.1-0.2,0.8-1.5,0.8-1.5l0,0
			l0.2-0.2c0,0,0.2-0.1,0.3-0.2c0.1-0.1,0.2-0.2,0.2-0.2l0-0.1l0.1,0.1c0.3,0.6,0.3,0.8,0.2,1.1c-0.1,0.2-0.5,0.5-0.7,0.7l-0.1,0.1
			c0,0-0.1,0.1-0.1,0.1c-0.1,0.1-0.2,0.2-0.4,0.3C53,55.1,52.4,55.3,52.1,55.4C52.2,55.4,52.2,55.4,52.1,55.4z M52.7,55L52.7,55
			c0,0,0,0.1-0.2,0.2c0.2-0.1,0.5-0.2,0.6-0.2c0.1-0.1,0.2-0.2,0.3-0.3c0,0,0.1-0.1,0.1-0.1l0.1-0.1c0.2-0.2,0.6-0.6,0.6-0.7
			c0.1-0.2,0.1-0.4-0.1-0.9c0,0-0.1,0.1-0.1,0.1c-0.1,0.1-0.3,0.2-0.3,0.2l-0.2,0.2C53.4,53.6,52.8,54.8,52.7,55L52.7,55z
			 M52.9,54.9L52.9,54.9c0.1-0.4,0.2-0.6,0.4-0.9l0,0c0,0,0,0,0,0l0,0c0.2-0.1,0.3-0.3,0.4-0.5c0.1-0.2,0.2-0.3,0.3-0.4l0,0l0,0
			c0.1,0.1,0.1,0.1,0,0.2c0,0.1-0.1,0.1-0.1,0.1c0,0,0,0,0,0c0,0-0.1,0.1-0.1,0.1c-0.1,0.1-0.1,0.1-0.1,0.2c0,0.1-0.1,0.2-0.2,0.3
			c-0.1,0-0.1,0.1-0.1,0.2c0,0,0,0,0,0.1c0,0,0,0.1-0.1,0.2c-0.1,0.1-0.2,0.2-0.2,0.3C53,54.9,53,54.9,52.9,54.9
			C52.9,54.9,52.9,54.9,52.9,54.9z M54,53.3C54,53.3,54,53.4,54,53.3C54,53.4,54,53.3,54,53.3z"/>
	</g>
	<g>
		<path class="st3" d="M55.2,54.5c0,0-0.4,0-0.4,0c0,0-0.3,0-0.6,0c-0.3,0-0.4,0.1-0.5,0.2c-0.1,0.1-0.3,0.3-0.3,0.3l0.1,0
			c0.3-0.2,0.6-0.2,0.7-0.2c0.1,0,0.2,0,0.6-0.1c0.3-0.1,0.3,0,0.3,0c-0.2,0.1-0.3,0.1-0.5,0.1c-0.2,0-0.5,0.1-0.5,0.1
			c-0.1,0-0.8,0.2-0.8,0.2s0.8,0,0.8,0.1c0.1,0,0.2,0,0.3,0c0.3-0.1,0.4-0.2,0.5-0.2c0.1,0,0.3-0.1,0.3-0.1S55.1,54.7,55.2,54.5
			C55.3,54.5,55.2,54.5,55.2,54.5 M55.5,52.4c0-0.1,0.2-0.4,0.3-0.5c0.1-0.1,0.2-0.1,0.3-0.1c0,0,0.2,0,0,0.1
			c-0.1,0-0.3,0.1-0.3,0.2c-0.1,0.3-0.2,0.5-0.4,0.7c-0.1,0.1-0.2,0.3-0.2,0.3l-0.1,0C55.3,52.9,55.4,52.6,55.5,52.4L55.5,52.4z
			 M56.8,52.3c-0.1,0-0.2,0.1-0.2,0.1c-0.3,0.1-0.5,0.3-0.6,0.5c-0.1,0.1-0.2,0.2-0.5,0.3c-0.3,0.1-0.6,0.3-0.6,0.3
			c0,0-0.1,0-0.1,0.1c0,0,0.1,0,0.1,0s0.6-0.1,0.9-0.3c0.2-0.1,0.3-0.2,0.4-0.4c0.1-0.1,0.2-0.3,0.2-0.2c0,0.4-0.5,0.7-0.8,0.8
			c-0.1,0.1-0.3,0.1-0.5,0.1c-0.2,0-0.4,0-0.3,0c0-0.1,0-0.1,0.1-0.2c0.1-0.1,0.4-0.2,0.6-0.3c0.2-0.1,0.4-0.2,0.5-0.4
			c0.1-0.1,0.1-0.2,0.2-0.3c0.1-0.3,0.1-0.4,0.2-0.5c0.3-0.3,0.3-0.4,0.3-0.6c0,0-0.1,0.1-0.2,0.1c-0.1,0.1-0.2,0.1-0.5,0.2
			c-0.3,0.1-0.3,0.3-0.3,0.4c0,0-0.1,0.2-0.2,0.2c-0.1,0-0.2,0.2-0.3,0.4c0,0.1-0.1,0.2-0.2,0.1c-0.1,0,0.1-0.7,0.2-0.8
			c0-0.1,0-0.3,0-0.4c0-0.1,0-0.2-0.1-0.3c-0.1,0-0.1-0.2-0.1-0.2c-0.3,0.2-0.1,0.7-0.1,0.9c0,0.3-0.1,0.7-0.1,0.7
			c0.3,0.1,0.1,0.5,0,0.6c-0.1,0.1-0.3,0.1-0.3,0.2c-0.1,0.1-0.7,0.9-0.7,0.9l0.7-0.2c0,0,0.1,0,0-0.1c-0.1-0.1,0-0.4,0.1-0.5
			c0.2-0.1,0.4,0,0.4,0s0.3,0.1,0.7-0.1c0.3-0.1,0.5-0.4,0.6-0.5c0.1-0.1,0.2-0.4,0.3-0.6C56.7,52.4,56.8,52.2,56.8,52.3"/>
		<path d="M54,55.2c0,0-0.1,0-0.1,0c0,0-0.5,0-0.8-0.1l0-0.1c0,0,0.1,0,0.2,0l0,0c0,0,0.2-0.2,0.3-0.3c0,0,0,0,0,0l0,0l0.1-0.1
			c0,0,0.6-0.8,0.7-0.9c0-0.1,0.1-0.1,0.2-0.1c0.1,0,0.1-0.1,0.2-0.1c0.1-0.1,0.2-0.3,0.1-0.4c0,0,0-0.1-0.1-0.1l0,0l0,0
			c0,0,0.1-0.5,0.1-0.7c0,0,0-0.1,0-0.2c0-0.3-0.1-0.6,0.1-0.8L55,51l0,0.1c0,0,0,0.1,0.1,0.1c0.2,0,0.2,0.2,0.2,0.3
			c0,0,0,0.3-0.1,0.4c0,0.1-0.1,0.5-0.2,0.7c0,0,0-0.1,0.1-0.1c0.1-0.1,0.2-0.4,0.3-0.4c0,0,0.2-0.2,0.2-0.2c0,0,0,0,0-0.1
			c0-0.1,0.1-0.3,0.4-0.3c0.1,0,0.1,0,0.2,0c0.2,0,0.2-0.1,0.3-0.1c0,0,0.1,0,0.1-0.1c0.1-0.1,0.1-0.1,0.2-0.1l0,0l0,0
			c0,0.2-0.1,0.3-0.3,0.6c0,0.1-0.1,0.1-0.1,0.3c0,0.1,0,0.2-0.1,0.3c0.1-0.1,0.2-0.1,0.4-0.2c0,0,0.1-0.1,0.2-0.1l0,0
			c0,0,0.1,0,0.1,0c0,0,0,0.1-0.1,0.3l-0.1,0.1c-0.1,0.2-0.2,0.4-0.3,0.5c0,0-0.1,0.1-0.1,0.1c-0.1,0.1-0.3,0.3-0.6,0.4
			c-0.4,0.2-0.8,0.1-0.8,0.1c0,0-0.2-0.1-0.4,0c-0.1,0-0.1,0.2-0.1,0.3c0,0,0,0,0,0c0,0,0.1,0.1,0.1,0.1c0,0,0,0-0.1,0l-0.2,0
			c0.2,0,0.3,0,0.4,0c0,0,0,0,0.1,0c0,0,0.3,0,0.4,0c0,0,0.1,0,0.1,0c0,0.1,0,0.1,0,0.2c-0.1,0.1-0.2,0.2-0.2,0.2
			c0,0-0.2,0.1-0.3,0.1l0,0c-0.1,0-0.2,0.1-0.5,0.2C54.2,55.2,54.1,55.2,54,55.2z M53.5,55c0.2,0,0.4,0,0.5,0.1c0.1,0,0.2,0,0.3,0
			c0.3-0.1,0.4-0.2,0.5-0.2l0,0c0.1,0,0.2-0.1,0.2-0.1l0,0c0,0,0.1,0,0.1-0.2c0,0,0,0,0,0l0,0l0,0.1c-0.2,0-0.4,0-0.4,0
			c0,0,0,0-0.1,0c-0.1,0-0.3,0-0.5,0c-0.3,0-0.4,0.1-0.5,0.2c0,0-0.1,0.1-0.1,0.1c0.2-0.1,0.4-0.1,0.5-0.1c0,0,0,0,0.1,0l0,0
			c0.1,0,0.2,0,0.5-0.1c0.2-0.1,0.3-0.1,0.3,0c0,0,0,0,0,0.1c0,0,0,0.1-0.1,0.1c-0.2,0.1-0.3,0.1-0.5,0.1c-0.1,0-0.3,0-0.4,0
			c-0.1,0-0.2,0-0.2,0C53.8,54.9,53.7,54.9,53.5,55C53.5,55,53.5,55,53.5,55L53.5,55z M54.9,54.6C54.9,54.6,54.9,54.6,54.9,54.6
			C54.9,54.6,54.9,54.6,54.9,54.6z M54.8,52.8c0.1,0,0.1,0.1,0.1,0.2c0,0.2-0.1,0.4-0.2,0.5c-0.1,0.1-0.1,0.1-0.2,0.1
			c-0.1,0-0.1,0.1-0.1,0.1c-0.1,0.1-0.4,0.5-0.6,0.8l0.5-0.1c0,0,0-0.1,0-0.1c0-0.1,0.1-0.3,0.2-0.4c0.1-0.1,0.2-0.1,0.2-0.1
			c0,0,0,0,0,0c0,0,0,0,0-0.1c0-0.1,0-0.1,0.1-0.1c0,0,0,0,0,0c0.1-0.1,0.2-0.1,0.4-0.2c0,0,0.1,0,0.1,0c0,0,0.1,0,0.1-0.1
			c0,0,0.1,0,0.1,0c0.2-0.1,0.3-0.2,0.4-0.3c0.1-0.1,0.1-0.2,0.2-0.3c0-0.1,0.1-0.2,0.1-0.3c0-0.1,0.1-0.2,0.1-0.3
			c0.2-0.2,0.3-0.4,0.3-0.5c0,0,0,0,0,0c0,0-0.1,0-0.1,0.1c-0.1,0.1-0.2,0.1-0.4,0.1c0,0-0.1,0-0.2,0c-0.2,0.1-0.3,0.2-0.3,0.3
			c0,0,0,0.1,0,0.1c0,0-0.2,0.2-0.2,0.2c0,0-0.2,0.2-0.2,0.3c-0.1,0.1-0.1,0.2-0.2,0.2L54.8,52.8L54.8,52.8c0-0.1,0.2-0.8,0.2-0.8
			c0-0.1,0-0.3,0-0.4c0-0.1,0-0.2-0.1-0.2c-0.1,0-0.1-0.1-0.1-0.1c-0.1,0.2-0.1,0.4,0,0.6c0,0.1,0,0.1,0,0.2
			C54.9,52.3,54.8,52.6,54.8,52.8z M54.4,54.3L54.4,54.3L54.4,54.3z M55,53.7c0,0,0.3,0,0.7-0.1c0.2-0.1,0.3-0.2,0.5-0.3
			c-0.2,0.1-0.4,0.2-0.5,0.3c-0.1,0.1-0.3,0.1-0.5,0.1l-0.1,0C55.1,53.6,55,53.7,55,53.7C55,53.7,55,53.7,55,53.7
			C55,53.7,55,53.7,55,53.7z M55.3,53.2c-0.2,0.1-0.3,0.2-0.4,0.2c0.2,0,0.6-0.1,0.8-0.2c0.2-0.1,0.3-0.2,0.4-0.4c0,0,0-0.1,0.1-0.1
			c0.1-0.1,0.1-0.2,0.1-0.1c0.1,0,0.1,0.1,0.1,0.1c0,0.1,0,0.1,0,0.2c0-0.1,0.1-0.1,0.1-0.2l0.1-0.1c0-0.1,0.1-0.1,0.1-0.2
			c-0.1,0-0.1,0-0.1,0l0,0c-0.3,0.1-0.4,0.2-0.5,0.4c0,0,0,0-0.1,0.1c-0.1,0.1-0.2,0.2-0.4,0.3c0,0-0.1,0-0.1,0.1
			C55.4,53.2,55.4,53.2,55.3,53.2z M56.8,52.3L56.8,52.3C56.8,52.3,56.8,52.3,56.8,52.3L56.8,52.3z M55.1,53.1l0-0.1
			c0.2-0.1,0.3-0.3,0.4-0.5c0,0,0-0.1,0.1-0.1c0.1-0.2,0.2-0.4,0.3-0.5c0.1-0.1,0.2-0.1,0.2-0.1c0,0,0,0,0.1,0c0,0,0.1,0,0.2,0l0,0
			l0,0c0,0,0,0.1-0.2,0.1c-0.1,0-0.2,0.1-0.3,0.2c-0.1,0.3-0.2,0.5-0.4,0.7c-0.1,0.1-0.2,0.3-0.2,0.3l0,0L55.1,53.1z"/>
	</g>
	<g>
		<path class="st3" d="M54.8,54.2c0.1,0,0.1,0,0.2-0.1c0.1-0.1,0-0.3-0.1-0.3c-0.1,0-0.2,0-0.3,0.2c-0.1,0.2,0.1,0.3,0.1,0.3
			C54.7,54.2,54.7,54.2,54.8,54.2"/>
		<path d="M54.6,54.3C54.6,54.3,54.6,54.3,54.6,54.3c-0.1,0-0.2,0-0.2-0.1c0,0,0-0.1,0-0.2c0.1-0.2,0.2-0.2,0.3-0.2l0,0
			c0.1,0,0.2,0,0.2,0.1c0,0.1,0,0.2,0,0.3c-0.1,0.1-0.1,0.1-0.2,0.2C54.7,54.3,54.7,54.3,54.6,54.3z M54.8,53.8
			C54.8,53.8,54.8,53.8,54.8,53.8L54.8,53.8c-0.1,0-0.1,0-0.3,0.2c0,0,0,0.1,0,0.1c0,0,0.1,0.1,0.1,0.1c0,0,0.1,0,0.1,0l0,0
			c0,0,0,0,0.1-0.1C54.9,54,54.9,53.9,54.8,53.8C54.9,53.9,54.8,53.8,54.8,53.8z"/>
	</g>
	<g>
		<path class="st3" d="M54.4,52.9c-0.1,0.2-0.1,0.3-0.1,0.4c0,0,0.1,0.1,0.1,0.1c0.1,0,0.2-0.1,0.3-0.2c0.1-0.1,0.2-0.3,0-0.4
			C54.6,52.7,54.5,52.8,54.4,52.9"/>
		<path d="M54.4,53.5c-0.1,0-0.1,0-0.2-0.1l0,0c-0.1-0.1,0-0.3,0.1-0.5l0,0c0.1-0.2,0.3-0.2,0.4-0.1c0.1,0,0.1,0.1,0.1,0.2
			c0,0.1,0,0.2-0.1,0.3C54.7,53.4,54.5,53.5,54.4,53.5z M54.3,53.3C54.3,53.3,54.4,53.3,54.3,53.3c0,0,0.1,0.1,0.1,0.1
			c0,0,0.2-0.1,0.2-0.2c0-0.1,0.1-0.1,0.1-0.2c0,0,0-0.1-0.1-0.1c0,0-0.2-0.1-0.3,0.1l-0.1,0l0.1,0C54.3,53.1,54.3,53.3,54.3,53.3
			C54.3,53.3,54.3,53.3,54.3,53.3z"/>
	</g>
	<g>
		<path class="st3" d="M54.9,51C54.9,51,54.9,51,54.9,51c-0.1-0.2-0.3-0.4-0.3-0.4c-0.2,0.1-0.3,0.3-0.3,0.4c0,0.1,0,0.3,0,0.5
			c0,0.1,0,0.1-0.1,0.4c-0.1,0.2,0,0.5,0,0.5c0,0.1,0.1,0.3,0.1,0.3s0.1,0,0.1-0.1c0,0,0.1,0,0.1,0s0.1-0.2,0.1-0.3
			c0-0.1,0-0.2-0.1-0.5c-0.1-0.3-0.1-0.4,0-0.6C54.7,51.1,54.9,51,54.9,51"/>
		<path d="M54.4,52.9L54.4,52.9c0-0.1-0.1-0.3-0.1-0.4c0,0,0,0,0,0c0-0.1-0.1-0.3,0-0.5c0.1-0.2,0.1-0.3,0.1-0.4c0-0.1,0-0.3,0-0.4
			c0,0,0-0.1,0-0.1c0-0.1,0.1-0.3,0.3-0.5l0,0l0,0c0,0,0.1,0.2,0.2,0.3C55,51,55,51,55,51l0,0l0,0c0,0-0.2,0.1-0.2,0.3
			c0,0.2,0,0.3,0,0.6c0,0.2,0.1,0.4,0.1,0.5c0,0.1-0.1,0.3-0.1,0.4l0,0l0,0c0,0-0.1,0-0.1,0C54.5,52.8,54.5,52.8,54.4,52.9
			L54.4,52.9z M54.6,50.7c-0.1,0.1-0.2,0.3-0.2,0.3c0,0,0,0.1,0,0.1c0,0.1,0,0.2,0,0.4c0,0.1,0,0.2-0.1,0.4c-0.1,0.2,0,0.4,0,0.5
			c0,0,0,0,0,0c0,0.1,0.1,0.2,0.1,0.3c0,0,0,0,0.1,0c0,0,0.1,0,0.1,0c0-0.1,0.1-0.2,0.1-0.3c0-0.1,0-0.2-0.1-0.5
			c-0.1-0.3-0.1-0.4,0-0.6c0-0.2,0.2-0.3,0.2-0.3c0,0,0,0,0,0C54.8,50.9,54.7,50.8,54.6,50.7z"/>
	</g>
	<g>
		<path class="st3" d="M55.2,51.3c0,0,0.1,0,0.2-0.1c0.1-0.1,0.1-0.3,0.1-0.3c-0.2-0.3-0.4-0.1-0.4-0.1
			C54.8,51.3,55.2,51.3,55.2,51.3"/>
		<path d="M55.2,51.4c0,0-0.2,0-0.3-0.1c-0.1-0.1,0-0.2,0-0.4l0,0c0,0,0.1-0.1,0.3-0.1c0.1,0,0.2,0.1,0.2,0.2l0,0c0,0,0,0.2-0.1,0.3
			C55.4,51.4,55.2,51.4,55.2,51.4L55.2,51.4L55.2,51.4z M55.1,50.9c0,0.1-0.1,0.2,0,0.3c0,0.1,0.1,0.1,0.2,0.1c0,0,0.1,0,0.1-0.1
			c0-0.1,0-0.2,0-0.2c0-0.1-0.1-0.1-0.1-0.1C55.2,50.8,55.1,50.9,55.1,50.9z"/>
	</g>
	<g>
		<path class="st3" d="M55.8,50.7c-0.3,0-0.4,0.5-0.4,0.5s0,0.1-0.2,0.2c-0.1,0.1-0.1,0.2-0.1,0.5c0,0.2-0.2,0.6-0.2,0.6L55,52.6
			c0,0,0,0.1,0.1-0.1c0.2-0.3,0.3-0.2,0.4-0.6c0-0.3,0.5-0.3,0.5-0.3l-0.1,0c-0.4-0.2,0-0.7,0.1-0.8C56,50.7,56.1,50.7,55.8,50.7"/>
		<path d="M55,52.7C55,52.7,55,52.7,55,52.7C54.9,52.7,54.9,52.7,55,52.7l-0.1-0.1l0.1-0.2c0,0,0.2-0.4,0.2-0.6c0-0.1,0-0.1,0-0.2
			c0-0.1,0-0.3,0.1-0.3c0.1-0.1,0.1-0.2,0.1-0.2c0,0,0.1-0.5,0.5-0.5l0,0c0.2,0,0.2,0,0.2,0c0,0.1,0,0.1,0,0.1c0,0,0,0,0,0l0,0
			c-0.2,0.2-0.3,0.4-0.2,0.5c0,0.1,0.1,0.1,0.1,0.1l0.1,0l0,0.1c-0.1,0-0.4,0.1-0.4,0.3c0,0.2-0.1,0.3-0.2,0.4
			c-0.1,0.1-0.1,0.1-0.2,0.2C55.1,52.7,55,52.7,55,52.7z M55.8,50.8c-0.2,0-0.3,0.3-0.3,0.4c0,0-0.1,0.1-0.2,0.2
			c-0.1,0-0.1,0.1,0,0.2c0,0.1,0,0.1,0,0.2c0,0.1,0,0.3-0.1,0.4c0,0,0,0,0,0c0.1-0.1,0.1-0.1,0.2-0.3c0-0.2,0.2-0.3,0.3-0.3
			c-0.1-0.1-0.1-0.1-0.1-0.2C55.5,51.2,55.7,50.9,55.8,50.8L55.8,50.8z"/>
	</g>
	<g>
		<path class="st3" d="M55.7,51.3c-0.1,0.3,0.2,0.3,0.3,0.2c0,0,0.1-0.1,0.1-0.1c0.1-0.2,0-0.3-0.1-0.3C56,51,55.9,51,55.7,51.3"/>
		<path d="M55.9,51.6c-0.1,0-0.2,0-0.2-0.1c0,0-0.1-0.1,0-0.3c0.1-0.3,0.3-0.3,0.4-0.3c0,0,0.1,0.1,0.1,0.1c0,0.1,0,0.2-0.1,0.3
			c0,0-0.1,0.1-0.1,0.1C56,51.6,56,51.6,55.9,51.6z M56,51.1c-0.1,0-0.2,0.1-0.2,0.2l0,0c0,0.1,0,0.1,0,0.1c0,0,0.2,0,0.2,0
			c0,0,0.1,0,0.1-0.1c0-0.1,0.1-0.1,0-0.2C56.1,51.1,56.1,51.1,56,51.1C56,51.1,56,51.1,56,51.1z"/>
	</g>
	<g>
		<path class="st3" d="M55.1,50.3c0.1,0.2,0.3,0.6,0.4,0.6c0,0,0-0.1,0-0.1s0-0.1,0-0.3c0-0.2,0-0.3-0.1-0.5
			c-0.1-0.1-0.3-0.3-0.3-0.5c-0.1-0.2,0-0.6,0-0.6c0,0,0,0,0-0.1c0,0-0.3-0.2-0.3-0.2s0,0.1,0,0.3c0,0.1,0,0.1,0,0.2
			c0,0.1,0,0.2,0.2,0.5C54.9,50,55,50.1,55.1,50.3 M57,48.1c0,0-0.1,0.1-0.1,0.2c0,0-0.5,0.5-0.6,0.5c0,0-0.3,0.1-0.5,0.8
			c-0.2,0.7-0.1,1.3-0.1,1.3l0.1,0l0-0.1c0,0,0-0.2,0.1-0.4c0-0.2,0.2-0.4,0.3-0.6c0.1-0.2,0.2-0.4,0.2-0.4c0.1-0.3,0.2-0.5,0.3-0.7
			c0,0.2-0.9,1.6-1,2.1l0.3,0c0.2-0.2,0.5-0.6,0.7-0.8c0.2-0.3,0.3-0.7,0.3-0.8C57,48.9,57,48.1,57,48.1"/>
		<path d="M55.5,50.9c-0.1,0-0.2-0.1-0.4-0.6c0-0.1-0.1-0.2-0.1-0.3c0-0.1-0.1-0.2-0.2-0.4c-0.1-0.3-0.2-0.4-0.2-0.5
			c0,0,0-0.1,0-0.1c0,0,0-0.1,0-0.1c0-0.2,0-0.3,0-0.3l0-0.1l0.1,0.1c0.1,0.1,0.3,0.2,0.4,0.2c0,0,0.1,0.1,0,0.1c0,0.3,0,0.5,0,0.6
			c0,0.1,0.1,0.2,0.2,0.3c0,0.1,0.1,0.1,0.1,0.2c0.1,0.1,0.1,0.2,0.1,0.3c0,0.1,0,0.1,0,0.2c0,0,0,0.1,0,0.1c0-0.2,0-0.6,0.2-1.1
			c0.1-0.4,0.3-0.7,0.5-0.8c0,0,0.5-0.5,0.6-0.5c0,0,0.1-0.1,0.1-0.2l0,0l0.1,0c0,0,0,0.8,0,1c0,0.2-0.1,0.6-0.3,0.9L56.6,50
			c-0.2,0.3-0.4,0.6-0.6,0.7l0,0l-0.4,0.1l0,0L55.5,50.9C55.6,50.9,55.5,50.9,55.5,50.9C55.5,50.9,55.5,50.9,55.5,50.9z M54.7,48.8
			c0,0.1,0,0.1,0,0.2c0,0,0,0.1,0,0.1c0,0,0,0.1,0,0.1c0,0.1,0.1,0.2,0.2,0.4c0.1,0.1,0.1,0.3,0.2,0.4c0,0.1,0.1,0.2,0.1,0.2l0,0
			c0.2,0.3,0.2,0.4,0.3,0.5c0,0,0-0.1,0-0.2c0-0.1,0-0.1,0-0.2c0-0.1,0-0.2-0.1-0.3c0,0-0.1-0.1-0.1-0.1c-0.1-0.1-0.2-0.2-0.2-0.3
			c-0.1-0.2,0-0.4,0-0.6c0,0,0,0,0,0C54.9,48.9,54.8,48.8,54.7,48.8z M56.3,48.8C56.3,48.8,56.3,48.8,56.3,48.8
			c-0.2,0.1-0.4,0.5-0.5,0.7c-0.2,0.5-0.2,1-0.1,1.2l0,0l0,0l0.1-0.4c0-0.2,0.2-0.3,0.3-0.5l0.1-0.1c0.1-0.2,0.2-0.4,0.2-0.4
			c0.1-0.1,0.1-0.2,0.1-0.3c0.1-0.2,0.1-0.3,0.2-0.4l0.1-0.1l0,0.2c0,0.1-0.2,0.4-0.4,0.9c-0.2,0.4-0.4,0.9-0.5,1.1l0.2,0
			c0.2-0.2,0.4-0.5,0.6-0.7l0.1-0.1c0.2-0.2,0.3-0.7,0.3-0.8c0-0.1,0-0.5,0-0.8c0,0,0,0,0,0C56.9,48.4,56.3,48.8,56.3,48.8
			C56.3,48.8,56.3,48.8,56.3,48.8z"/>
	</g>
	<g>
		<path class="st3" d="M55.2,48.2c-0.1-0.1-0.2-0.2-0.2-0.2s0,0.2,0,0.4c0,0.1,0,0.4,0,0.5c0,0.1-0.1,0.3,0,0.6
			c0.1,0.2,0.2,0.3,0.3,0.4c0.1,0.1,0.2,0.8,0.2,0.8s0-0.9,0-1.1c0-0.2,0-0.6,0-0.8C55.5,48.6,55.4,48.4,55.2,48.2 M55.8,47.4
			c0-0.1,0.1-0.2,0.2-0.5c0-0.1,0-0.3,0-0.4c0-0.1,0-0.2,0-0.2c0,0,0,0,0,0.2c0,0,0,0.2,0,0.3c0,0.1,0,0.2-0.1,0.4
			C55.9,47.3,56,47.4,55.8,47.4c0.1,0.1,0,0.3,0,0.3s0,0.1,0,0.3c0,0.1,0,0.3,0,0.3s0.1-0.1,0.2-0.1c0,0,0-0.2,0-0.3
			c0-0.1,0.1-0.5,0.1-0.6c0.1-0.2,0.1-0.5,0-0.9c0-0.1,0-0.4,0-0.4s-0.1,0.1-0.2,0.5c0,0.1,0,0.4,0,0.7c0,0.2-0.2,0.9-0.2,0.9"/>
		<path d="M55.5,50.8c0-0.3-0.1-0.7-0.2-0.8c0,0-0.1-0.1-0.1-0.1c-0.1-0.1-0.1-0.2-0.2-0.3c-0.1-0.2-0.1-0.4,0-0.5c0,0,0-0.1,0-0.1
			c0-0.1,0-0.2,0-0.3c0-0.1,0-0.1,0-0.2c0-0.1,0-0.4,0-0.4l0-0.1l0.1,0c0,0,0.1,0,0.3,0.2l0,0c0.2,0.1,0.3,0.4,0.3,0.6
			c0.1,0.2,0,0.6,0,0.9c0,0.2,0,1.1,0,1.1L55.5,50.8z M55.1,48.2c0,0.1,0,0.2,0,0.3c0,0.1,0,0.1,0,0.2c0,0.1,0,0.2,0,0.3
			c0,0,0,0.1,0,0.1c0,0.1,0,0.3,0,0.4c0.1,0.1,0.1,0.2,0.2,0.3c0,0,0.1,0.1,0.1,0.1c0,0,0,0.1,0.1,0.2c0-0.2,0-0.4,0-0.5
			c0-0.3,0-0.6,0-0.8c-0.1-0.2-0.2-0.4-0.3-0.5C55.2,48.2,55.1,48.2,55.1,48.2z M55.7,48.4l0-0.2c0,0,0-0.1,0-0.2l-0.1,0
			c0,0,0.1-0.3,0.1-0.6l0,0l0,0c0,0,0,0,0,0c0-0.1,0-0.2,0-0.3c0-0.2,0-0.3,0-0.5c0-0.1,0-0.2,0-0.3c0.1-0.4,0.2-0.5,0.2-0.5
			l0.1-0.1l0,0.1c0,0.1,0,0.3,0,0.4c0.1,0.5,0,0.8,0,0.9c0,0.1-0.1,0.5-0.1,0.6c0,0.1,0,0.3,0,0.3l0,0l0,0c-0.1,0-0.1,0.1-0.1,0.1
			L55.7,48.4z M55.9,47.7c0,0,0,0.1,0,0.2c0,0,0,0.1,0,0.1c0,0,0.1,0,0.1,0C55.9,47.9,55.9,47.8,55.9,47.7c0.1,0,0.2-0.4,0.2-0.5
			c0-0.1,0.1-0.4,0-0.8c0,0,0,0,0,0c0,0,0,0.1,0,0.1c0,0,0,0.1,0,0.1c0,0,0,0.1,0,0.2c0,0.1,0,0.2-0.1,0.4c0,0.1,0,0.1,0,0.2
			c0,0.1,0,0.1,0,0.1C56,47.5,55.9,47.6,55.9,47.7L55.9,47.7z M56,46c0,0.1-0.1,0.2-0.1,0.3c0,0,0,0.1,0,0.3c0,0.1,0,0.1,0,0.2
			c0-0.1,0-0.1,0-0.2c0,0,0,0,0-0.1c0-0.1,0-0.2,0-0.2l0,0l0,0c0,0,0,0,0,0c0,0,0,0,0,0C56.1,46.2,56.1,46.1,56,46z"/>
	</g>
	<g>
		<path class="st3" d="M55.8,47.4C55.8,47.4,55.8,47.4,55.8,47.4C55.8,47.4,55.8,47.4,55.8,47.4"/>
		<path d="M55.9,47.4L55.9,47.4C55.8,47.4,55.8,47.4,55.9,47.4L55.9,47.4C55.8,47.4,55.8,47.4,55.9,47.4L55.9,47.4L55.9,47.4
			L55.9,47.4C55.9,47.4,55.9,47.4,55.9,47.4z"/>
	</g>
	<g>
		<path class="st3" d="M55.4,45.5c0.1,0,0.1,0.1,0.1,0.1c0,0.1,0,0.2,0,0.2c0,0,0,0.2,0,0.3c0,0.1,0.1,0.1,0,0.3
			c0,0.1-0.1,0.2-0.1,0.4c0,0.1,0.1,0.2,0.1,0.3c0,0.1,0,0.2,0,0.3c0,0.1,0.1,0.2,0.1,0.2s-0.1,0.1-0.1,0c0-0.2,0-0.3-0.1-0.4
			c-0.1-0.1-0.1-0.4,0-0.6c0,0,0-0.1,0-0.2c0-0.1-0.1-0.2-0.1-0.3c0-0.1,0-0.2,0-0.3 M55,46.5c0,0.1,0.1,0.2,0.2,0.4
			c0,0.1,0.1,0.3,0.1,0.3c0,0.1,0,0.1,0,0.2c0,0,0,0.2,0,0.2v0.1c0,0-0.3-0.2-0.5-0.3c-0.2-0.1-0.3-0.3-0.4-0.3
			c-0.1-0.1-0.4-0.5-0.4-0.7l-0.1-0.1c0,0-0.1,0.6,0.4,1c0.1,0.1,0.3,0.2,0.6,0.4c0.3,0.2,0.3,0.3,0.4,0.6c0.1,0.3,0.2,0.5,0.2,0.5
			c0,0.1,0,1.3,0,1.3l0,0.1c0,0,0.3-1.2,0.4-1.3c0,0-0.3,0-0.3-0.5l-0.1-0.3c0,0-0.1-0.4,0.1-0.6c0,0,0.1-0.4,0.1-0.8
			c0-0.2,0-0.3-0.1-0.5c0-0.3-0.2-0.8-0.2-0.8c0-0.2-0.1-0.2-0.1-0.3c0,0,0-0.2-0.1-0.2c0,0-0.1,0.2-0.1,0.2s-0.1,0.2-0.1,0.3
			c0,0.2-0.1,0.3-0.2,0.7c0,0.1,0,0.3,0,0.3C55,46.3,55,46.4,55,46.5"/>
		<path d="M55.6,50.2l-0.1,0l0-0.1c0-0.5,0-1.3,0-1.3c0-0.1-0.1-0.2-0.2-0.4l-0.1-0.2c0-0.1-0.1-0.1-0.1-0.2
			c-0.1-0.2-0.1-0.3-0.3-0.4c-0.3-0.2-0.5-0.3-0.6-0.4c-0.5-0.4-0.4-1.1-0.4-1.1l0-0.1l0.2,0.2l0,0c0,0.3,0.3,0.6,0.4,0.7l0.1,0.1
			c0.1,0.1,0.2,0.2,0.3,0.3c0.1,0.1,0.3,0.2,0.4,0.3c0,0,0-0.1,0-0.1c0,0,0-0.1,0-0.1c0-0.1-0.1-0.3-0.1-0.3l0,0
			C55,46.7,55,46.6,55,46.5c0-0.1,0-0.2,0-0.2c0,0,0-0.1,0-0.1c0,0,0-0.1,0-0.1c0-0.3,0.1-0.4,0.1-0.5c0-0.1,0-0.1,0-0.2
			c0-0.1,0.1-0.3,0.1-0.3c0-0.2,0.1-0.2,0.1-0.2c0.1,0,0.1,0.1,0.1,0.2c0,0,0,0,0,0l0,0.1c0,0.1,0.1,0.1,0.1,0.3l0,0
			c0.1,0.3,0.2,0.6,0.2,0.8c0,0.1,0,0.2,0,0.3l0,0.2c0,0.4-0.1,0.8-0.1,0.8c-0.1,0.2,0,0.6,0,0.6l0.1,0.3c0,0.4,0.2,0.4,0.2,0.5
			l0.1,0L56,48.9C55.9,49,55.7,49.7,55.6,50.2z M53.9,46.3c0,0.2,0,0.6,0.4,0.9c0.1,0.1,0.3,0.2,0.6,0.4c0.3,0.1,0.3,0.2,0.4,0.4
			c0,0.1,0,0.1,0.1,0.2l0.1,0.2c0.1,0.2,0.1,0.3,0.2,0.4c0,0.1,0,0.7,0,1c0.1-0.3,0.2-0.7,0.3-0.8c-0.1-0.1-0.3-0.2-0.2-0.5l0-0.3
			c0,0,0-0.3,0-0.5c0,0-0.1,0.1-0.1,0.1c-0.1,0-0.1-0.1-0.1-0.1l0-0.1c0-0.2,0-0.2-0.1-0.3c-0.1-0.2-0.1-0.4,0-0.7c0,0,0-0.1,0-0.2
			c0,0,0-0.1,0-0.2c0-0.1,0-0.1,0-0.1c0-0.1,0-0.2,0-0.2l0-0.1h0c0,0,0,0,0,0c0,0,0-0.1,0-0.1l0-0.1c0,0,0.1,0,0.1,0
			c0,0,0,0.1,0,0.2c0,0,0,0.1,0,0.2c0,0,0,0.2,0,0.3c0,0,0,0,0,0c0,0.1,0,0.1,0,0.2c0,0,0,0.1,0,0.1c0,0.1-0.1,0.2,0,0.3
			c0,0.1,0,0.1,0.1,0.2c0,0,0,0.1,0,0.1c0,0,0,0.1,0,0.2c0,0,0,0.1,0,0.1c0,0.1,0,0.1,0,0.1l0,0c0,0,0,0,0,0l0,0
			c0,0,0.1-0.4,0.1-0.7l0-0.2c0-0.1,0-0.1,0-0.3c0-0.2-0.1-0.5-0.2-0.8l0,0c0-0.1,0-0.2-0.1-0.2l0-0.1c0,0,0,0,0,0c0,0,0,0,0-0.1
			c0,0,0,0.1,0,0.1c0,0-0.1,0.2-0.1,0.3c0,0.1,0,0.1-0.1,0.2c0,0.1-0.1,0.3-0.1,0.5c0,0,0,0.1,0,0.1c0,0.1,0,0.1,0,0.2
			c0,0,0,0.1,0,0.1l0,0c0,0.1,0,0.1,0.1,0.4l0,0c0,0.1,0.1,0.3,0.1,0.4c0,0.1,0,0.1,0,0.2c0,0,0,0.2,0,0.2l0,0.2l-0.1-0.1
			c0,0-0.4-0.2-0.5-0.3c-0.1-0.1-0.2-0.2-0.4-0.3L54.4,47C54.3,46.9,54,46.6,53.9,46.3L53.9,46.3z"/>
	</g>
	<g>
		<path class="st3" d="M55.3,48.1c0,0-0.1-0.1-0.1-0.2c-0.1-0.1-0.2-0.2-0.6-0.4c-0.4-0.2-0.5-0.5-0.7-0.7c-0.1-0.1-0.3-0.1-0.3-0.1
			s0.2,0.2,0.2,0.3c0.1,0.1,0.1,0.2,0.3,0.4c0.2,0.2,0.5,0.3,0.6,0.3C55,47.8,55.3,48.1,55.3,48.1 M54.1,46.2c0,0,0.1,0.4,0.3,0.6
			c0.3,0.4,1,0.7,1,0.7c-0.1-0.3-0.2-0.6-0.2-0.7C54.8,46.4,54.1,46.2,54.1,46.2C54.1,46.2,54,46.2,54.1,46.2 M55,46.4
			c0.2-0.4-0.3-0.7-0.5-1c0.1,0,0.1,0.1,0.2,0.1C54.7,45.7,55,46,55,46l0.1-0.3l-0.6-0.5c0,0.1-0.2,0.1-0.2,0.1
			C54.2,45.8,55,46.4,55,46.4"/>
		<path d="M55.3,48.1c0,0-0.3-0.2-0.5-0.3l0,0c-0.2-0.1-0.4-0.1-0.6-0.3c-0.2-0.2-0.2-0.3-0.3-0.4l0,0c0-0.1-0.2-0.3-0.2-0.3
			l-0.1-0.1l0.1,0c0,0,0.2,0,0.3,0.1c0.1,0.1,0.2,0.1,0.2,0.2c0.1,0.1,0.2,0.3,0.5,0.4c0.4,0.2,0.5,0.3,0.7,0.4
			C55.3,47.9,55.3,48,55.3,48.1L55.3,48.1L55.3,48.1z M53.7,46.8c0.1,0.1,0.1,0.2,0.1,0.2c0,0,0,0,0,0c0,0.1,0.1,0.2,0.2,0.3
			c0.2,0.2,0.4,0.3,0.6,0.3l0,0c0.1,0,0.2,0.1,0.3,0.2c-0.1-0.1-0.2-0.2-0.5-0.3c-0.3-0.1-0.4-0.3-0.5-0.4c-0.1-0.1-0.1-0.2-0.2-0.2
			C53.8,46.9,53.8,46.8,53.7,46.8z M55.4,47.7l-0.1,0c0,0-0.6-0.3-1-0.7c-0.1-0.2-0.3-0.4-0.3-0.7l0,0l0,0l0,0c0,0,0-0.1,0-0.1l0,0
			l0,0c0.1,0,0.8,0.3,1.1,0.7c0.1,0.1,0.2,0.4,0.2,0.7L55.4,47.7z M54.1,46.3c0.1,0.2,0.2,0.4,0.3,0.5c0.2,0.3,0.6,0.5,0.8,0.6
			c-0.1-0.2-0.1-0.4-0.2-0.5C54.8,46.6,54.3,46.4,54.1,46.3z M54.9,46.4c0,0-0.8-0.7-0.7-1.2l0,0l0,0c0.1,0,0.2-0.1,0.2-0.1l0-0.1
			l0.7,0.6L55,46.1C55.1,46.2,55.1,46.3,54.9,46.4L54.9,46.4L54.9,46.4z M54.3,45.3c0,0.4,0.5,0.9,0.6,1c0-0.2-0.1-0.4-0.3-0.6
			c-0.1-0.1-0.2-0.2-0.2-0.3l0,0l0,0c0,0,0,0,0.1,0c0.1,0,0.1,0.1,0.1,0.1c0,0,0,0,0,0c0.1,0.1,0.2,0.2,0.2,0.3l0-0.2l-0.5-0.5
			C54.4,45.2,54.3,45.3,54.3,45.3z"/>
	</g>
	<g>
		<path class="st3" d="M53.9,45.5c-0.1,0.1-0.2,0.1-0.2,0.1l0.1,0.2l0,0.1c0,0,0.2,0.3,0.3,0.3c0,0,0.2,0,0.4,0.1
			c0.2,0.1,0.6,0.4,0.6,0.4s-0.6-0.7-0.8-1.2l-0.1-0.3l-0.2,0C54,45.3,54.1,45.5,53.9,45.5"/>
		<path d="M55.1,46.8c0,0-0.3-0.3-0.6-0.4c-0.1-0.1-0.2-0.1-0.3-0.1c0,0-0.1,0-0.1,0c-0.1,0-0.3-0.3-0.3-0.3l-0.1-0.1l-0.1-0.3h0.1
			c0,0,0,0,0.2-0.1v0c0.1,0,0.1-0.2,0.1-0.2l0-0.1l0.3,0l0.1,0.3C54.6,46,55.1,46.7,55.1,46.8L55.1,46.8z M53.8,45.8L53.8,45.8
			c0.1,0.2,0.2,0.3,0.3,0.3c0,0,0,0,0.1,0c0.1,0,0.2,0.1,0.3,0.1c0.1,0,0.1,0.1,0.2,0.1c-0.2-0.2-0.4-0.5-0.5-0.8l-0.1-0.3l-0.1,0
			c0,0.1,0,0.2-0.1,0.3l0,0l0,0c-0.1,0-0.1,0-0.1,0.1L53.8,45.8z"/>
	</g>
	<g>
		<path class="st3" d="M51.7,45.1c0.1,0.1,0.2,0.2,0.3,0.2c0.1,0.1,0.5,0.3,0.8,0.4c0.1,0,0.4,0.1,0.4,0.1c0-0.2,0.2-0.2,0.2-0.2
			l-0.5-0.1c-0.4,0-0.7-0.2-0.9-0.5c0.3,0.2,0.8,0.5,1.1,0.5c1.5-0.1-0.5-0.2-0.6-0.3c-0.2-0.1-0.3-0.3-0.3-0.3l-0.4,0
			C51.7,44.9,51.5,44.9,51.7,45.1"/>
		<path d="M53.3,45.8L53.3,45.8c-0.1,0-0.4-0.1-0.5-0.1c-0.2,0-0.5-0.2-0.8-0.4c-0.1-0.1-0.2-0.2-0.3-0.2c-0.1-0.1-0.1-0.1-0.1-0.2
			c0-0.1,0.1-0.1,0.1-0.1l0.5,0l0,0c0,0,0.2,0.2,0.3,0.3c0.1,0,0.4,0.1,0.6,0.1c0.5,0.1,0.6,0.1,0.6,0.2c0,0.1,0,0.1-0.3,0.1l0,0.1
			C53.4,45.7,53.3,45.7,53.3,45.8L53.3,45.8z M51.7,45C51.7,45,51.7,45,51.7,45L51.7,45c0.2,0.2,0.3,0.2,0.4,0.3
			c0.3,0.2,0.6,0.3,0.8,0.3c0,0,0.3,0,0.4,0c0,0,0,0,0-0.1l-0.2,0c0,0,0,0-0.1,0l-0.1,0c-0.4,0-0.7-0.2-1-0.5L52,45l0.1,0.1
			c0.1,0.1,0.2,0.1,0.3,0.2c-0.1-0.1-0.2-0.2-0.3-0.2L51.7,45C51.7,45,51.7,45,51.7,45z M53.1,45.5C53.1,45.5,53.1,45.5,53.1,45.5
			c0.2,0,0.3,0,0.4,0C53.4,45.4,53.2,45.4,53.1,45.5c-0.2-0.1-0.4-0.1-0.5-0.2C52.7,45.4,52.8,45.5,53.1,45.5L53.1,45.5z"/>
	</g>
	<g>
		<path class="st3" d="M53.5,46c0.1,0,0.2,0,0.2-0.1c0-0.1,0-0.2-0.2-0.2c-0.1,0-0.2,0-0.3,0.1C53.2,45.9,53.4,46,53.5,46
			C53.4,46,53.4,46,53.5,46 M53.7,45.1c-0.1,0-0.2,0.1-0.1,0.3c0,0.2,0.4,0.1,0.4,0.1l0.1,0c0,0,0,0,0-0.2
			C53.9,45.1,53.8,45.1,53.7,45.1 M54.2,45.3L54.2,45.3C54.2,45.3,54.2,45.3,54.2,45.3"/>
		<path d="M53.5,46.1C53.4,46.1,53.4,46,53.5,46.1c-0.1,0-0.3-0.1-0.3-0.2c0,0,0-0.1,0-0.1c0.1-0.2,0.2-0.2,0.3-0.2c0,0,0,0,0,0
			c0,0-0.1-0.1-0.1-0.1c0-0.2,0-0.3,0-0.3c0,0,0.1-0.1,0.2-0.1l0,0c0,0,0,0,0,0l0,0c0.2,0,0.3,0.1,0.3,0.2c0,0.2,0,0.2,0,0.3l-0.1,0
			c0,0-0.1,0-0.2,0c0.1,0.1,0.1,0.1,0.1,0.3C53.7,46,53.6,46,53.5,46.1C53.5,46,53.5,46.1,53.5,46.1z M53.4,45.7
			c-0.1,0-0.1,0-0.1,0.1c0,0,0,0,0,0.1c0,0.1,0.1,0.1,0.1,0.1c0,0,0,0,0.1,0l0,0c0.1,0,0.1,0,0.1-0.1C53.7,45.7,53.6,45.7,53.4,45.7
			C53.5,45.7,53.5,45.7,53.4,45.7z M53.7,45.2C53.6,45.2,53.6,45.2,53.7,45.2c-0.1,0-0.1,0.1-0.1,0.2c0,0,0,0,0,0.1
			c0.1,0,0.2,0,0.2,0l0,0c0,0,0-0.1,0-0.1C53.9,45.2,53.8,45.2,53.7,45.2z M54.2,45.3L54.2,45.3l0-0.1h0L54.2,45.3L54.2,45.3
			L54.2,45.3L54.2,45.3L54.2,45.3L54.2,45.3L54.2,45.3L54.2,45.3z"/>
	</g>
	<g>
		<path class="st3" d="M54.2,45.3C54.2,45.3,54.2,45.3,54.2,45.3c0.1,0,0.2-0.2,0.2-0.2c0-0.2-0.1-0.3-0.1-0.3C54,44.7,54,45,54,45
			C53.9,45.3,54.1,45.3,54.2,45.3 M53,44.2c0,0.1,0.2,0.2,0.2,0.3c0,0,0.2,0.2,0.3,0.3c0.1,0.1,0.3,0.5,0.3,0.5s0,0,0,0
			c0-0.1-0.1-0.5-0.2-0.5c-0.1-0.1-0.2-0.2-0.3-0.4c0,0-0.1-0.1-0.2-0.2c0.2,0.2,0.6,0.9,0.8,1.2c0,0,0-0.3,0-0.5
			c-0.1-0.5-0.2-0.6-0.2-0.7c-0.1-0.1-0.3-0.3-0.4-0.3c-0.1,0-0.3-0.1-0.5-0.2c-0.2-0.1,0,0.1,0,0.2C53,44,53,44.1,53,44.2"/>
		<path d="M53.7,45.3L53.7,45.3c-0.1-0.2-0.2-0.4-0.3-0.5c-0.1-0.1-0.2-0.3-0.3-0.3l0,0c-0.1-0.1-0.2-0.2-0.2-0.3l0,0
			c0-0.1-0.1-0.2-0.2-0.4c0,0,0-0.1,0-0.1c0-0.1-0.1-0.2,0-0.2c0,0,0.1,0,0.1,0c0.1,0,0.2,0.1,0.3,0.1c0,0,0.1,0,0.1,0.1
			c0.1,0,0.3,0.2,0.4,0.3l0,0c0.1,0.1,0.2,0.3,0.2,0.7c0,0,0,0,0,0c0,0,0,0,0,0c0.1,0,0.1-0.1,0.2,0c0.1,0,0.2,0.1,0.2,0.3
			c0,0.1-0.1,0.2-0.2,0.2c0,0,0,0,0,0l0-0.1l0,0l0,0l0,0.1c0,0-0.1,0-0.2,0l-0.1,0c0,0,0-0.1-0.1-0.1c0,0,0,0.1,0,0.1
			C53.8,45.3,53.8,45.3,53.7,45.3L53.7,45.3z M54.2,44.8C54.1,44.8,54.1,44.9,54.2,44.8C54,44.9,54,45,54,45c0,0.1,0,0.1,0,0.2
			c0,0,0.1,0,0.1,0c0,0,0,0,0,0c0,0,0,0,0,0c0,0,0.1-0.1,0.1-0.2C54.3,44.9,54.2,44.9,54.2,44.8C54.2,44.8,54.2,44.8,54.2,44.8z
			 M53.1,44.2c0,0,0,0.1,0.2,0.2l0,0c0,0,0.2,0.2,0.3,0.3c0,0.1,0.1,0.2,0.2,0.3c0-0.1,0-0.2-0.1-0.2c-0.2-0.3-0.4-0.6-0.5-0.7
			l0.1-0.1l0,0c0.1,0.1,0.1,0.2,0.2,0.2l0,0c0.1,0.1,0.2,0.2,0.3,0.4c0,0,0,0.1,0.1,0.1c0,0.1,0.1,0.1,0.1,0.2c0-0.1,0-0.2,0-0.2
			c0-0.4-0.2-0.6-0.2-0.7l0,0c-0.1-0.1-0.2-0.2-0.4-0.3c0,0-0.1,0-0.1-0.1c-0.1,0-0.2-0.1-0.3-0.1c0,0,0,0,0,0.1c0,0,0,0.1,0.1,0.1
			C53,44,53.1,44.1,53.1,44.2L53.1,44.2z"/>
	</g>
	<g>
		<path class="st3" d="M52.4,45c0.2,0.1,0.2,0.2,0.6,0.3c0.4,0.1,0.4,0,0.4,0s0.2-0.1,0.1-0.2c-0.5-0.2-1-0.5-1.3-0.8
			c0,0,0,0,0.2,0.1c0.1,0.1,0.2,0.2,0.2,0.2c0.2,0.1,0.3,0.2,0.5,0.3c0.1,0.1,0.4,0.1,0.4,0.1s0-0.1,0.1-0.1c0,0,0-0.1-0.2-0.3
			c-0.1-0.1-0.2-0.2-0.3-0.3c0,0-0.3-0.1-0.5-0.1c-0.2,0-0.6-0.3-0.6-0.3c0,0.1,0.1,0.3,0.2,0.5C52.1,44.7,52.2,44.9,52.4,45"/>
		<path d="M53.3,45.4c-0.1,0-0.2,0-0.3,0c-0.3,0-0.4-0.1-0.6-0.3l-0.1,0l0,0l0,0c-0.2-0.1-0.3-0.3-0.4-0.5l0,0
			c-0.1-0.2-0.2-0.4-0.2-0.5l0,0l0,0c0,0,0.1,0,0.3,0.1c0.1,0.1,0.3,0.2,0.4,0.2c0.3,0,0.5,0.1,0.5,0.1l0,0l0,0
			c0.1,0.1,0.2,0.2,0.3,0.3c0.1,0.1,0.3,0.3,0.3,0.4l0,0l0,0c0,0,0,0,0,0.1l0,0c0,0,0,0.1,0,0.1C53.5,45.4,53.4,45.4,53.3,45.4
			C53.4,45.4,53.4,45.4,53.3,45.4z M52.4,45L52.4,45c0.2,0.2,0.3,0.2,0.6,0.3c0.3,0,0.3,0,0.4,0c0,0,0.1-0.1,0.1-0.1
			c-0.6-0.3-1.1-0.5-1.3-0.8l0,0l0,0c0.1-0.1,0.2,0,0.3,0.1c0.1,0.1,0.2,0.1,0.2,0.2c0.2,0.1,0.2,0.2,0.4,0.2l0.1,0
			c0.1,0,0.2,0.1,0.3,0.1c0,0,0,0,0,0c0,0-0.1-0.1-0.2-0.2c-0.1-0.1-0.2-0.2-0.3-0.3c-0.1,0-0.3-0.1-0.5-0.1c-0.1,0-0.3-0.1-0.4-0.2
			c0,0-0.1,0-0.1-0.1c0,0.1,0.1,0.3,0.1,0.4l0,0C52.2,44.7,52.3,44.9,52.4,45L52.4,45z M53.5,45C53.5,45,53.5,45,53.5,45
			C53.5,45,53.5,45,53.5,45z"/>
	</g>
	<g>
		<path class="st3" d="M49.5,55.6c-0.2,0-1.3,0.5-1.3,0.5l-0.3,0.1c0.4-0.1,0.8,0.1,0.8,0.1l1.3-0.6c0,0,0,0,0,0
			C49.9,55.7,49.6,55.5,49.5,55.6"/>
		<path d="M48.6,56.4L48.6,56.4c0,0-0.4-0.2-0.8-0.1l0-0.1l0.3-0.1c0,0,1.1-0.4,1.3-0.5l0,0c0.2-0.1,0.4,0.1,0.4,0.1
			c0,0,0.1,0.1,0.1,0.1l0,0L48.6,56.4z M48.2,56.1c0.2,0,0.4,0.1,0.5,0.1l1.2-0.6c-0.1,0-0.2-0.1-0.3-0.1l0,0
			C49.3,55.7,48.2,56.1,48.2,56.1L48.2,56.1z"/>
	</g>
	<g>
		<path class="st3" d="M47.8,56.2C47.8,56.2,47.8,56.3,47.8,56.2c0.1,0.1,0.1,0.1,0.3,0.1c0.3,0,0.5,0,0.5-0.1
			C48.8,56.2,48,56.1,47.8,56.2"/>
		<path d="M48.3,56.4c-0.1,0-0.1,0-0.2,0c-0.2,0-0.3,0-0.3-0.1c0,0,0,0,0,0c0,0,0,0,0-0.1c0,0,0-0.1,0-0.1h0c0.2-0.1,0.9,0,0.9,0
			c0,0,0,0.1,0,0.1C48.7,56.4,48.5,56.4,48.3,56.4z M47.9,56.3c0,0,0.1,0,0.3,0.1c0.2,0,0.4,0,0.4,0C48.4,56.2,48,56.2,47.9,56.3z
			 M47.8,56.2L47.8,56.2C47.9,56.3,47.9,56.3,47.8,56.2C47.9,56.3,47.9,56.3,47.8,56.2L47.8,56.2z M47.8,56.2
			C47.8,56.2,47.8,56.2,47.8,56.2C47.8,56.2,47.8,56.2,47.8,56.2z"/>
	</g>
	<g>
		<path class="st3" d="M46,52.1l-0.1-0.4c0,0-0.1-1-0.2-1.2c0,0,0-0.1-0.1-0.1c-0.1,0-0.1,0.3-0.1,0.6c-0.2,1.4,0.9,2.5,0.9,2.5
			L46,52.1z"/>
		<path d="M46.4,53.6c0,0-1.2-1.1-0.9-2.6l0-0.1c0-0.2,0-0.4,0.1-0.5c0,0,0.1,0,0.1,0c0.1,0,0.1,0.1,0.1,0.1c0,0,0,0,0,0
			c0.1,0.2,0.2,1.1,0.2,1.2l0.1,0.3l0.5,1.5L46.4,53.6z M45.7,50.5c-0.1,0.1-0.1,0.3-0.1,0.4l0,0.1c-0.2,1,0.4,1.9,0.7,2.3l-0.4-1.2
			l-0.1-0.4c0-0.4-0.1-1-0.2-1.1C45.7,50.6,45.7,50.6,45.7,50.5C45.7,50.5,45.7,50.5,45.7,50.5z"/>
	</g>
	<g>
		<path class="st3" d="M51.7,56.4c0,0-0.1,0,0-0.1c0.1-0.1,0.3-0.1,0.3-0.1c0,0,0.2,0,0.3,0c0.1,0,0.2,0.1,0.2,0.2
			c0,0.1-0.2,0.1-0.3,0.1c-0.1,0-0.2,0-0.3,0C51.7,56.4,51.7,56.4,51.7,56.4"/>
		<path d="M52.1,56.5c-0.1,0-0.2,0-0.3,0c-0.1,0-0.1,0-0.1,0c0,0-0.1,0-0.1-0.1c0,0,0-0.1,0-0.1c0.1-0.1,0.3-0.2,0.4-0.2
			c0,0,0.2,0,0.3,0c0.1,0,0.2,0.1,0.2,0.2c0,0,0,0.1,0,0.1C52.4,56.4,52.2,56.5,52.1,56.5z M51.7,56.3c0,0,0,0,0.1,0
			c0.1,0,0.1,0,0.3,0c0.2,0,0.3-0.1,0.3-0.1c0,0-0.1-0.1-0.1-0.1c-0.1,0-0.2,0-0.2,0C51.9,56.2,51.7,56.2,51.7,56.3
			C51.7,56.3,51.7,56.3,51.7,56.3C51.7,56.3,51.7,56.3,51.7,56.3L51.7,56.3L51.7,56.3z"/>
	</g>
	<g>
		<path class="st3" d="M50.4,55.7c0,0-0.4-0.2-0.8-0.4c-0.5-0.2-1.1-0.6-1.5-1.2c-0.5-0.8-1-1.2-1.1-1.2c-0.1-0.1-0.1-0.1-0.2-0.1
			c0,0,0,0.1,0,0.1c0.1,0.2,0.4,0.5,0.5,0.7c0.2,0.3,0.5,0.7,0.5,0.9c0,0-0.1,0-0.1,0s-0.8-0.3-1.1-1.2c-0.2-0.7-0.1-0.9-0.2-1.2
			c-0.1-0.6-0.1-0.7-0.4-1.3c0,0-0.2-0.3-0.2-0.2c0,0.1,0,0.4,0,0.4l0,0.4c0,0,0,0.8,0,0.8c0,0-0.2,0.5,0.6,1.4c0,0,0,0.1-0.1,0
			c-0.1-0.1-0.7-0.5-0.9-1.3c-0.2-0.8-0.2-1.5-0.1-1.8c0.1-0.3,0.4-1,0.3-1.6c0-0.1,0-0.2-0.1-0.2c0,0-0.1,0.3-0.1,0.4
			c-0.1,0.1-0.2,0.3-0.2,0.4c-0.1,0.2-0.3,0.4-0.3,0.9c0.1,0.6,0.1,0.6,0.2,0.8c0,0.1,0.1,0.3,0,0.3c0,0-0.2-0.2-0.2-0.2
			s-0.5-1-0.2-1.9c0.3-0.8,1.2-1.6,1.2-1.6s0.7-0.6,0.8-0.7c0.1,0,0-0.1,0-0.1c-0.2,0-1.5,0.3-1.9,1.8c0,0,0,0.1-0.1,0
			c0,0,0-0.1,0-0.1s0.3-1.1,1.1-1.6c0.9-0.5,0.8-0.5,1.1-0.6c0.2-0.1,0.3-0.3,0.5-0.6c0,0,0.1-0.2,0.1-0.3c0,0,0,0-0.1,0.1
			c0,0-0.2,0.4-0.6,0.5c-0.4,0.1-0.7-0.1-1,0.4c-0.4,0.4-0.7,1-0.7,1s-0.1,0.1-0.1,0.1c0,0,0-0.2,0-0.2s0.5-1.1,0.9-1.3
			c0.4-0.2,0.8-0.4,1-0.6c0.3-0.2,0.8-0.7,0.9-0.9c0,0,0.3-0.3,0.3-0.4c0,0,0.1-0.1,0.1-0.1c0,0-0.3,0.1-0.3,0.1s-1.3,0.4-2.1,1.6
			c0,0.1-0.1,0.2-0.2,0.2c-0.1,0.1-0.1,0.2-0.1,0.2c-0.1,0,0.5-0.7,0.5-0.7l0.1-0.4c0,0,0.2-0.6,0.5-1.1c0,0,0.2-0.2,0.3-0.3
			c0.1-0.1-0.1,0.1-0.1,0c0,0-1.2,0.9-1.2,2c0,0.2-0.1,0.4-0.3,0.6c-0.2,0.3-0.3,0.5-0.4,0.9c0,0.2-0.1,0.4-0.1,0.5c0,0,0,0.2,0,0.1
			c-0.1,0,0-0.1,0-0.1s0.1-0.8,0.2-1.1c0.1-0.2,0.1-0.4,0.1-0.4s-0.1-0.6,0.1-1c0.1-0.3,0.4-0.7,0.5-0.8c0,0,0.2-0.3,0.2-0.6
			c0,0,0,0-0.1,0.1c-0.1,0.3-0.2,0.4-0.5,0.7c0,0-0.6,0.4-0.8,1.6c0,0,0,0.5-0.1,1.2c-0.1,0.5,0,1,0.1,1.3c0,0.2,0.1,0.2,0.1,0.2
			c0,0,0,0,0-0.1c-0.1-0.2-0.1-0.4-0.1-0.8c0-0.6,0.1-1.2,0.1-1.2s0-1-0.4-1.5c0,0,0.1,0.2,0.1,0.4c0.1,0.3,0,0.7-0.1,0.8
			c0,0.2-0.3,0.8-0.2,1.5c0,0,0.2,1.1,0.6,1.6c0,0,0.2,0.2,0,0c-0.2-0.2-0.5-1.1-0.5-1.1c0-0.1-0.3-0.6-0.5-0.8
			c-0.1-0.1-0.5-0.3-0.5-0.3s-0.2-0.1,0,0c0.1,0.1,0.3,0.4,0.3,0.5c0.1,0.2,0.3,0.5,0.4,0.7c0.1,0.2,0.4,1,0.4,1l0.2,0.5
			c0,0,0.3,0.2,0.4,0.3c0.1,0.1,0.4,0.5,0.6,1c0.1,0.2,0.3,0.5,0.3,0.5s0,0.1-0.2-0.2c-0.2-0.3-0.3-0.9-0.7-1.3
			c-0.3-0.3-1.1-0.7-1.1-0.7s0.5,0.9,0.7,1.1c0.2,0.3,0.6,0.6,0.6,0.7c0.1,0.1,0.6,0.7,0.7,0.8c0.1,0.2,0.2,0.2,0.3,0.3
			c0.1,0.1,0.5,0.4,0.6,0.4c0,0,0,0,0,0c-0.2-0.1-0.4-0.3-0.6-0.4c-0.2-0.1-1-0.5-1.6-1.3c-0.1-0.2-0.2-0.3-0.2-0.3
			c-0.1,0,0.4,1.5,1.3,2c0,0,1,0.4,1.2,0.6c0.1,0.1,0.4,0.2,0.5,0.3c0.1,0.1-0.1,0.1-0.1,0c-0.5,0-1.3-0.1-1.8-0.4
			c0,0-0.2-0.1,0,0.1c0.1,0.2,0.4,0.5,0.9,0.8c0.5,0.2,1.2,0.3,1.4,0.3c0.3,0,1.2,0,1.3,0.1c0.2,0.1,0.5,0.2,0.6,0.3
			c0.1,0,0.6,0.2,0.6,0.2s0.1,0.1,0.2,0.1c0.1,0,0.4,0,0.4,0C50.5,55.8,50.4,55.7,50.4,55.7"/>
		<path d="M50.3,55.9c-0.1,0-0.2,0-0.2,0c-0.1,0-0.2-0.1-0.2-0.1l0,0c0,0-0.4-0.2-0.6-0.2c-0.1,0-0.2-0.1-0.3-0.2
			c-0.1-0.1-0.2-0.1-0.3-0.1c-0.1,0-0.6-0.1-1-0.1c-0.1,0-0.3,0-0.3,0c-0.3,0-1-0.1-1.5-0.4c-0.4-0.2-0.7-0.5-0.8-0.7
			c0,0,0-0.1-0.1-0.1c-0.1-0.1-0.1-0.1-0.1-0.2c0,0,0.1,0,0.2,0c0.5,0.3,1.3,0.3,1.7,0.4c-0.1-0.1-0.2-0.1-0.3-0.1
			c-0.1,0-0.1-0.1-0.2-0.1c-0.2-0.1-1.2-0.6-1.2-0.6c-0.9-0.4-1.3-1.8-1.3-2c0,0,0-0.1,0-0.1c0.1,0,0.2,0.1,0.3,0.3
			c0.4,0.6,1.1,1,1.4,1.1c0,0,0,0,0.1,0c0,0-0.1-0.1-0.1-0.2c-0.1-0.1-0.6-0.7-0.7-0.8c0,0-0.1-0.1-0.2-0.2
			c-0.1-0.2-0.3-0.4-0.5-0.5c-0.1-0.2-0.7-1.1-0.7-1.1L43.4,50l0.1,0.1c0,0,0.4,0.1,0.7,0.3l-0.1-0.3c0,0-0.3-0.7-0.4-1
			c-0.1-0.2-0.2-0.5-0.4-0.7c0,0,0-0.1-0.1-0.1c-0.1-0.1-0.2-0.3-0.3-0.4c0-0.1-0.1-0.1,0-0.2c0,0,0.1,0,0.2,0c0,0,0.3,0.2,0.5,0.3
			c0.2,0.2,0.5,0.8,0.5,0.8l0,0c0,0,0,0,0,0c-0.1-0.3-0.1-0.5-0.1-0.5c-0.1-0.5,0.1-1.1,0.2-1.3c0-0.1,0-0.1,0-0.2c0,0,0,0,0-0.1
			c0-0.2,0.1-0.5,0.1-0.8c0-0.1-0.1-0.3-0.1-0.4c0-0.1,0-0.1,0-0.1l0,0l0,0c0.3,0.3,0.4,0.8,0.4,1.1c0-0.2,0-0.3,0-0.3
			c0.2-1.2,0.7-1.6,0.8-1.7c0.1-0.1,0.1-0.1,0.2-0.2c0.1-0.1,0.2-0.2,0.3-0.5C46,44,46,44,46,44c0,0,0,0,0,0.1
			c0,0.2-0.1,0.4-0.2,0.6c0,0-0.1,0.1-0.1,0.2c-0.1,0.2-0.3,0.4-0.3,0.6c-0.1,0.3-0.1,0.9-0.1,0.9l0,0l0,0c0,0-0.1,0.2-0.1,0.4
			c0,0.1-0.1,0.4-0.1,0.6c0,0,0-0.1,0-0.1c0.1-0.4,0.2-0.6,0.4-0.9c0.2-0.2,0.3-0.4,0.3-0.6c0-1.1,1.2-2,1.2-2l0,0l0,0c0,0,0,0,0,0
			c0.1,0,0.1-0.1,0.1,0c0,0,0,0.1,0,0.1c0,0-0.1,0.1-0.1,0.1c-0.1,0.1-0.1,0.1-0.1,0.1c-0.3,0.4-0.5,1-0.5,1.1l-0.1,0.2
			c0.8-0.9,1.9-1.3,1.9-1.3c0.3-0.1,0.3-0.1,0.3-0.1l0,0l0,0c0,0,0,0.1-0.1,0.1c0,0,0,0,0,0.1c0,0.1-0.2,0.2-0.3,0.3l0,0
			c0,0-0.1,0.1-0.1,0.1c-0.2,0.2-0.6,0.6-0.8,0.8c-0.2,0.2-0.5,0.3-1,0.6c-0.4,0.2-0.8,1.2-0.9,1.2c0,0,0,0,0,0c0,0,0.3-0.6,0.7-1
			c0.3-0.3,0.5-0.3,0.7-0.3c0.1,0,0.2,0,0.3-0.1c0.3-0.1,0.6-0.4,0.6-0.5c0,0,0-0.1,0.1-0.1c0,0,0,0,0.1,0c0,0.1-0.1,0.3-0.1,0.3
			c-0.2,0.4-0.4,0.5-0.6,0.6c-0.1,0.1-0.1,0.1-0.2,0.1c-0.1,0.1-0.3,0.1-0.9,0.5c-0.3,0.2-0.5,0.5-0.7,0.7c0.5-0.7,1.1-0.9,1.5-1
			l0,0c0,0,0,0,0.1,0c0,0,0,0.1,0,0.1c-0.1,0.1-0.8,0.7-0.8,0.7c0,0-0.8,0.8-1.1,1.6c-0.3,0.8,0.2,1.8,0.2,1.8c0,0,0,0.1,0.1,0.1
			c0,0,0-0.1,0-0.1l0,0c-0.1-0.2-0.1-0.3-0.2-0.8c0-0.4,0.1-0.6,0.2-0.8c0-0.1,0.1-0.1,0.1-0.1c0-0.1,0.1-0.1,0.1-0.2
			c0-0.1,0.1-0.1,0.1-0.2c0-0.1,0.1-0.2,0.1-0.3c0-0.1,0-0.2,0.1-0.2c0,0,0.1,0,0.1,0c0,0,0.1,0.1,0.1,0.2c0,0,0,0,0,0
			c0.1,0.7-0.2,1.4-0.3,1.6c-0.1,0.3-0.1,1.1,0.1,1.8c0.1,0.6,0.5,1,0.7,1.2c-0.3-0.3-0.6-0.8-0.5-1.2c0,0,0,0,0,0c0,0,0-0.8,0-0.8
			l0-0.3c0,0-0.1-0.3,0-0.4c0,0,0,0,0.1,0c0,0,0,0,0,0c0.1,0,0.2,0.3,0.2,0.3c0.3,0.7,0.3,0.8,0.4,1.4c0,0.1,0,0.2,0,0.3
			c0,0.2,0,0.5,0.2,0.9c0.3,0.9,1.1,1.2,1.1,1.2c0,0,0,0,0,0c0-0.1-0.1-0.3-0.2-0.4c-0.1-0.1-0.2-0.2-0.2-0.4
			c-0.1-0.1-0.2-0.2-0.3-0.4c-0.1-0.1-0.2-0.2-0.2-0.3c0-0.1-0.1-0.1,0-0.2c0,0,0,0,0.1,0c0,0,0.1,0,0.1,0.1c0,0,0,0,0,0
			c0.1,0.1,0.6,0.5,1.1,1.3c0.4,0.6,1,0.9,1.5,1.2c0.4,0.2,0.8,0.4,0.8,0.4l0,0c0,0,0.1,0.1,0.1,0.2c0,0,0,0-0.1,0
			C50.5,55.9,50.4,55.9,50.3,55.9z M45.1,54.1C45.1,54.1,45.1,54.1,45.1,54.1c0.2,0.2,0.4,0.5,0.8,0.7c0.5,0.2,1.2,0.3,1.4,0.3
			c0.1,0,0.2,0,0.3,0c0.5,0,0.9,0,1,0.1c0.1,0,0.2,0.1,0.3,0.1c0.1,0.1,0.2,0.1,0.3,0.1c0.1,0,0.6,0.2,0.6,0.2c0,0,0.1,0.1,0.2,0.1
			c0.1,0,0.4,0,0.4,0c0,0,0-0.1-0.1-0.1c0,0-0.4-0.2-0.8-0.4c-0.5-0.3-1.1-0.6-1.5-1.2c-0.5-0.7-0.9-1.1-1.1-1.2c0,0,0,0,0,0
			c0,0,0,0,0,0c0,0,0,0,0,0c0,0,0,0,0,0.1c0,0.1,0.1,0.2,0.2,0.3c0.1,0.1,0.2,0.3,0.3,0.4c0.1,0.1,0.1,0.2,0.2,0.4
			c0.1,0.2,0.3,0.4,0.3,0.5l0,0l0,0c0,0,0,0-0.1,0c0,0-0.8-0.3-1.1-1.2c-0.2-0.5-0.2-0.7-0.2-0.9c0-0.1,0-0.2,0-0.3
			c-0.1-0.6-0.1-0.6-0.4-1.3c0,0-0.1-0.1-0.1-0.2c0,0.1,0,0.2,0,0.3l0,0.4c0,0.3,0,0.8,0,0.8c0,0,0,0,0,0c-0.1,0.5,0.3,1,0.6,1.3
			l0,0l0,0c0,0,0,0.1,0,0.1c-0.1,0-0.1,0-0.1-0.1c0,0,0,0-0.1-0.1c-0.2-0.1-0.5-0.5-0.7-1c0,0,0,0,0,0c0,0-0.1,0-0.2-0.3
			c-0.1-0.1-0.1-0.2-0.2-0.3c-0.1-0.3-0.3-0.7-0.6-1c-0.2-0.2-0.8-0.5-1-0.6c0.1,0.3,0.5,0.8,0.6,1c0.1,0.2,0.3,0.4,0.5,0.5
			c0.1,0.1,0.1,0.2,0.2,0.2c0.1,0.1,0.6,0.7,0.7,0.8c0.1,0.1,0.2,0.2,0.2,0.2l0,0c0.1,0.1,0.3,0.2,0.4,0.3c0.1,0.1,0.2,0.1,0.2,0.1
			l0,0c0,0,0,0,0,0l0,0l0,0c0,0,0,0,0,0c-0.1-0.1-0.2-0.1-0.3-0.2c-0.1-0.1-0.2-0.1-0.3-0.2c0,0-0.1-0.1-0.2-0.1
			c-0.3-0.2-1-0.5-1.4-1.2c0-0.1-0.1-0.2-0.2-0.3c0,0.3,0.5,1.5,1.3,1.9c0,0,1,0.4,1.2,0.6c0,0,0.1,0.1,0.2,0.1
			c0.1,0.1,0.2,0.1,0.3,0.2c0,0,0,0.1,0,0.1c0,0.1-0.1,0-0.1,0C46.4,54.4,45.6,54.4,45.1,54.1z M44.4,50.5c0.1,0,0.3,0.2,0.4,0.3
			c0.2,0.3,0.4,0.6,0.6,1c0,0.1,0.1,0.2,0.2,0.3c0,0,0,0,0,0c-0.2-0.8-0.2-1.5-0.1-1.9c0.1-0.2,0.4-0.9,0.3-1.6c0,0,0,0,0,0
			c0,0,0,0,0,0c0,0,0,0,0,0.1c0,0.1-0.1,0.2-0.1,0.3c0,0.1-0.1,0.1-0.1,0.2c0,0.1-0.1,0.1-0.1,0.2c0,0.1-0.1,0.1-0.1,0.2
			c-0.1,0.2-0.2,0.4-0.2,0.7c0.1,0.5,0.1,0.6,0.2,0.8l0,0c0.1,0.2,0.1,0.3,0,0.3l0,0l0,0c0,0-0.1,0-0.2-0.2c0,0-0.5-1.1-0.2-1.9
			c0.3-0.8,1.2-1.6,1.2-1.7c0,0,0.6-0.5,0.8-0.7c-0.5,0.1-1.4,0.6-1.8,1.8c0,0,0,0.1-0.1,0.1c0,0,0,0-0.1,0c0,0,0,0,0,0
			c0,0,0-0.1,0-0.1c0-0.1,0.3-1.1,1.1-1.6c0.6-0.4,0.7-0.5,0.9-0.5c0.1,0,0.1-0.1,0.2-0.1c0.1-0.1,0.3-0.2,0.5-0.6c0,0,0,0,0,0
			c-0.1,0.1-0.3,0.3-0.6,0.4c-0.1,0-0.3,0.1-0.4,0.1c-0.2,0-0.4,0-0.7,0.3c-0.4,0.4-0.7,1-0.7,1c-0.1,0.2-0.1,0.2-0.2,0.2
			c0,0,0,0,0,0c0,0,0-0.1,0-0.2c0,0,0.5-1.1,0.9-1.3c0.5-0.3,0.8-0.4,1-0.6c0.2-0.2,0.6-0.6,0.8-0.8c0,0,0.1-0.1,0.1-0.1l0,0
			c0.1-0.1,0.3-0.3,0.3-0.3c0,0,0,0,0,0c0,0-0.1,0-0.1,0.1c0,0-1.3,0.4-2.1,1.6c0,0.1-0.1,0.2-0.2,0.2c0,0,0,0,0,0c0,0,0,0,0,0
			c0,0.1-0.1,0.1-0.1,0.1l0,0.1l-0.1,0c0,0-0.1,0,0.1-0.2c0,0,0,0,0,0c0.1-0.1,0.2-0.3,0.4-0.5l0.1-0.4c0,0,0.2-0.6,0.5-1.1
			c-0.4,0.3-1,1-1,1.7c0,0.2-0.1,0.4-0.3,0.7c-0.2,0.3-0.3,0.4-0.3,0.9c0,0.2-0.1,0.4-0.1,0.5c0,0.1,0,0.1,0,0.2c0,0,0,0-0.1,0
			c-0.1,0-0.1-0.2-0.1-0.2c0,0,0.1-0.8,0.2-1.1c0.1-0.2,0.1-0.4,0.1-0.4c0-0.1,0-0.6,0.1-1c0.1-0.2,0.2-0.5,0.4-0.6
			c0.1-0.1,0.1-0.1,0.1-0.2c0.1-0.1,0.1-0.3,0.1-0.4c-0.1,0.2-0.2,0.2-0.3,0.4c0,0.1-0.1,0.1-0.2,0.2l0,0c0,0-0.6,0.4-0.8,1.6l0,0
			c0,0,0,0.5-0.1,1.2c-0.1,0.5,0,1,0.1,1.3c0,0,0,0,0,0.1c0,0,0,0,0,0c0,0,0,0,0,0c0,0,0,0,0,0.1c0,0,0,0,0,0l0,0l0,0l0,0l0,0
			c0,0,0,0,0-0.1c0,0,0,0,0,0c0,0,0,0,0,0c-0.1-0.1-0.1-0.4-0.1-0.8c0-0.6,0.1-1.2,0.1-1.2c0,0,0-0.7-0.2-1.2c0,0.1,0,0.1,0,0.2
			c0,0.3,0,0.6-0.1,0.8c0,0,0,0.1,0,0.1c0,0,0,0.1,0,0.2c-0.1,0.3-0.2,0.8-0.2,1.3c0,0,0.2,0.9,0.5,1.5c0,0.1,0.1,0.1,0.1,0.1
			c0.1,0.1,0.1,0.1,0.1,0.2c0,0,0,0-0.2-0.1c0,0,0-0.1-0.1-0.1c-0.1-0.3-0.3-0.7-0.5-1l0,0c0-0.1-0.3-0.6-0.5-0.8
			c-0.1-0.1-0.3-0.2-0.4-0.3c0.1,0.1,0.2,0.3,0.2,0.4c0,0,0,0.1,0.1,0.1c0.1,0.2,0.3,0.5,0.4,0.7c0.1,0.2,0.4,0.9,0.4,1L44.4,50.5z"
			/>
	</g>
	<g>
		<path class="st3" d="M56.3,48c0.1,0,0.1,0.3,0.1,0.3s0-0.2,0-0.3c0-0.1,0-0.4,0-0.4l-0.1,0.1c-0.1,0.1-0.2,0.2-0.2,0.2
			S56.2,48,56.3,48"/>
		<path d="M56.4,48.4c0-0.1-0.1-0.3-0.1-0.3l0,0c-0.1,0-0.1,0-0.1,0l-0.1,0l0-0.1c0,0,0.1-0.2,0.2-0.3l0.2-0.1l0,0.1
			c0,0,0,0.3,0,0.4c0,0.1,0,0.3,0,0.3L56.4,48.4z M56.2,48C56.2,48,56.3,48,56.2,48L56.2,48L56.2,48c0.1,0,0.1,0,0.1,0.1
			c0-0.1,0-0.1,0-0.2l0,0C56.3,47.9,56.2,47.9,56.2,48z"/>
	</g>
</g>
</svg>
