<?xml version="1.0" encoding="utf-8"?>
<!-- Generator: Adobe Illustrator 25.1.0, SVG Export Plug-In . SVG Version: 6.00 Build 0)  -->
<svg version="1.1" id="Capa_1" xmlns="http://www.w3.org/2000/svg" xmlns:xlink="http://www.w3.org/1999/xlink" x="0px" y="0px"
	 width="100px" height="100px" viewBox="0 0 100 100" style="enable-background:new 0 0 100 100;" xml:space="preserve">
<style type="text/css">
	.st0{fill:#FFFFFF;}
	.st1{fill:#0038A8;}
	.st2{fill:#FCD116;}
	.st3{fill:#7B3F00;}
</style>
<g>
	<g>
		<path class="st0" d="M0,0h150v100H0V0z"/>
	</g>
	<g transform="matrix(35 0 0 35 170 170)">
		<g>
			<path class="st1" d="M-3.3-4.5h2.7v0.3h-2.7V-4.5z"/>
		</g>
		<g>
			<path class="st1" d="M-3.3-3.9h2.7v0.3h-2.7V-3.9z"/>
		</g>
		<g>
			<path class="st1" d="M-4.9-3.3h4.3V-3h-4.3V-3.3z"/>
		</g>
		<g>
			<path class="st1" d="M-4.9-2.6h4.3v0.3h-4.3V-2.6z"/>
		</g>
	</g>
	<g transform="matrix(3.7795276 0 0 3.7795276 234.28536 -392.51935)">
		<g>
			<g>
				<g>
					<path class="st2" d="M-55,112.6l0.5,0.7c-2,1.4-0.8,2.3-2.2,2.8c0.9-0.9-0.1-1,0.6-2.8"/>
					<path class="st3" d="M-56.9,116.2l0.1-0.1c0.4-0.4,0.4-0.6,0.4-1c0-0.4-0.1-0.9,0.3-1.8l0,0l0.1,0l0,0
						c-0.4,0.9-0.3,1.4-0.3,1.7c0,0.3,0.1,0.6-0.2,0.9c0.5-0.2,0.5-0.5,0.6-0.8c0.1-0.5,0.3-1.1,1.3-1.8l-0.5-0.7l0.1-0.1l0.5,0.8
						l0,0c-1,0.8-1.2,1.3-1.3,1.8c-0.1,0.4-0.2,0.7-0.9,1L-56.9,116.2z"/>
				</g>
				<g transform="matrix(.38981887 .941106 -.941106 .38981887 -17.008929 148.83334)">
					<g>
						<path class="st2" d="M-48,21.4l0.7,0.5c-1.3,2.1,0.2,2.4-1,3.3c0.5-1.1-0.5-0.9-0.5-2.8"/>
						<path class="st3" d="M-47.8,24.8c-0.1,0.2-0.2,0.3-0.4,0.5l-0.2,0.1l0.1-0.2c0.2-0.5,0.1-0.7-0.1-1.1
							c-0.2-0.3-0.4-0.8-0.4-1.7l0,0l0.1,0l0,0c0,0.9,0.2,1.3,0.4,1.7c0.2,0.3,0.3,0.5,0.1,1c0.3-0.4,0.3-0.6,0.3-1
							c-0.1-0.5-0.1-1.1,0.5-2.2l-0.7-0.5l0.1-0.1l0.8,0.5l0,0c-0.7,1.1-0.6,1.7-0.5,2.1C-47.8,24.3-47.7,24.5-47.8,24.8z"/>
					</g>
					<g>
						<path class="st3" d="M-48,21.4l-0.2,0.3l0,0c-0.2,1,0,1.7,0.1,2.2c0.1,0.3,0.1,0.5,0.1,0.7c0,0.1,0,0.3-0.1,0.4
							c0.7-0.8-0.4-1.2,0.8-3.1L-48,21.4z"/>
						<path class="st3" d="M-47.8,24.7c0,0.1-0.1,0.2-0.2,0.3l-0.1,0.1l0.1-0.2c0.1-0.1,0.1-0.3,0.1-0.4c0-0.2,0-0.4-0.1-0.7l0,0
							c-0.1-0.5-0.3-1.2-0.1-2.2l0,0l0.2-0.4l0.8,0.5l0,0c-0.7,1.1-0.6,1.7-0.5,2.1C-47.8,24.3-47.8,24.5-47.8,24.7z M-48,24.9
							c0.2-0.3,0.2-0.5,0.1-0.8c-0.1-0.5-0.1-1.1,0.5-2.2l-0.7-0.5l-0.2,0.3l0,0l0,0c-0.2,1,0,1.6,0.1,2.2l0,0
							c0.1,0.2,0.1,0.5,0.1,0.7C-47.9,24.7-48,24.8-48,24.9z"/>
					</g>
					<g>
						<path class="st3" d="M-48,25c0,0.1-0.1,0.2-0.2,0.3l-0.1-0.1c0.3-0.4,0.3-0.7,0.1-1.3c-0.1-0.5-0.3-1.2-0.1-2.2l0.1,0
							c-0.2,1,0,1.6,0.1,2.2C-48,24.3-47.9,24.6-48,25z"/>
					</g>
				</g>
				<g>
					<path class="st2" d="M-54.6,111.2l-0.7-0.7l-3.1,4.5l4.5-3.1L-54.6,111.2l-3.8,3.8"/>
					<path class="st3" d="M-58.6,115.2l3.3-4.7l1.5,1.5L-58.6,115.2z M-54.6,111.3l-3.4,3.4l4-2.7L-54.6,111.3z M-55.3,110.6l-2.7,4
						l3.4-3.4L-55.3,110.6z"/>
				</g>
				<g>
					<g transform="matrix(0 1.0186458 -1.0186458 0 -17.008929 148.83334)">
						<g transform="matrix(.92387953 .38268343 -.38268343 .92387953 0 0)">
							<g>
								<path class="st2" d="M-19.8,49.7l0.7,0.5c-1.3,2.1,0.2,2.4-1,3.3c0.5-1.1-0.5-0.9-0.5-2.8"/>
								<path class="st3" d="M-19,50.2L-19,50.2c-0.7,1.1-0.6,1.7-0.5,2.2c0.1,0.4,0.1,0.8-0.4,1.2l-0.2,0.1l0.1-0.2
									c0.2-0.5,0.1-0.7-0.1-1.1c-0.2-0.3-0.4-0.7-0.4-1.7l0,0l0.1,0l0,0c0,0.9,0.2,1.3,0.4,1.7c0.2,0.3,0.3,0.5,0.1,0.9
									c0.3-0.4,0.3-0.6,0.3-1c-0.1-0.5-0.1-1.1,0.5-2.2l-0.7-0.5l0.1-0.1L-19,50.2z"/>
							</g>
							<g>
								<path class="st3" d="M-19.8,49.7L-20,50l0,0c-0.2,1,0,1.7,0.1,2.2c0.1,0.3,0.1,0.5,0.1,0.7c0,0.1,0,0.3-0.1,0.4
									c0.7-0.8-0.4-1.2,0.8-3.1L-19.8,49.7z"/>
								<path class="st3" d="M-19,50.2L-19,50.2c-0.7,1.1-0.6,1.7-0.5,2.2c0,0.4,0.1,0.6-0.2,1l-0.1,0.1l0.1-0.2
									c0.1-0.1,0.1-0.3,0.1-0.4c0-0.2,0-0.4-0.1-0.7l0,0C-20,51.7-20.1,51-20,50l0,0l0.2-0.4L-19,50.2z M-19.7,53.2
									c0.2-0.3,0.2-0.5,0.1-0.8c-0.1-0.5-0.1-1.1,0.5-2.2l-0.7-0.5l-0.2,0.3l0,0l0,0c-0.2,1,0,1.6,0.1,2.2l0,0
									c0.1,0.2,0.1,0.5,0.1,0.7C-19.7,53-19.7,53.1-19.7,53.2z"/>
							</g>
							<g>
								<path class="st3" d="M-19.9,50c-0.2,1,0,1.6,0.1,2.2c0.1,0.5,0.2,0.9-0.2,1.3l-0.1-0.1c0.3-0.4,0.3-0.7,0.1-1.3
									C-20,51.7-20.2,51-19.9,50L-19.9,50z"/>
							</g>
						</g>
						<g>
							<path class="st2" d="M-36.9,36.9h-1l1,5.2l1-5.2H-36.9v5.2"/>
							<path class="st3" d="M-35.9,36.9l-1,5.6l-1-5.6H-35.9z M-36.9,41.7L-36,37h-0.8V41.7z M-37,41.7V37h-0.8L-37,41.7z"/>
						</g>
						<g>
							<path class="st3" d="M-36.9,36.9h1H-36.9v5.2l1-5.2"/>
						</g>
					</g>
					<g transform="matrix(-.72029135 .72029135 -.72029135 -.72029135 -17.008929 148.83334)">
						<g transform="matrix(.92387953 .38268343 -.38268343 .92387953 0 0)">
							<g>
								<path class="st2" d="M20.2,49.7l0.7,0.5c-1.3,2.1,0.2,2.4-1,3.3c0.5-1.1-0.5-1-0.5-2.9"/>
								<path class="st3" d="M20.2,49.6l0.8,0.5l0,0c-0.7,1.1-0.6,1.7-0.5,2.1c0.1,0.4,0.1,0.8-0.4,1.2l-0.2,0.1l0.1-0.2
									c0.2-0.5,0.1-0.8-0.1-1.1c-0.2-0.3-0.4-0.8-0.4-1.8l0,0l0.1,0l0,0c0,0.9,0.2,1.4,0.4,1.7c0.2,0.3,0.3,0.6,0.1,1
									c0.3-0.4,0.3-0.6,0.3-1c-0.1-0.5-0.1-1.1,0.5-2.2L20.2,49.6L20.2,49.6z"/>
							</g>
							<g>
								<path class="st3" d="M20.2,49.7L20,50l0,0c-0.2,1,0,1.7,0.1,2.2c0.1,0.3,0.1,0.5,0.1,0.7c0,0.1,0,0.3-0.1,0.4
									c0.7-0.8-0.4-1.2,0.8-3.1L20.2,49.7z"/>
								<path class="st3" d="M20.2,49.7l0.8,0.5l0,0c-0.7,1.1-0.6,1.7-0.5,2.1c0,0.4,0.1,0.6-0.2,1l-0.1,0.1l0.1-0.2
									c0.1-0.1,0.1-0.3,0.1-0.4c0-0.2,0-0.4-0.1-0.7l0,0C20,51.7,19.9,51,20,50l0,0L20.2,49.7z M20.9,50.2l-0.7-0.5L20.1,50l0,0
									l0,0c-0.2,1,0,1.6,0.1,2.2l0,0c0.1,0.2,0.1,0.5,0.1,0.7c0,0.1,0,0.2,0,0.3c0.2-0.3,0.2-0.5,0.1-0.8
									C20.3,51.9,20.3,51.3,20.9,50.2z"/>
							</g>
							<g>
								<path class="st3" d="M20,50c-0.2,1,0,1.6,0.1,2.2c0.1,0.5,0.2,0.9-0.2,1.3L20,53.5c0.3-0.4,0.3-0.7,0.1-1.3
									C20,51.7,19.8,51,20,50L20,50z"/>
							</g>
						</g>
						<g>
							<path class="st2" d="M0,52.2h-1l1,5.2l1-5.2H0v5.2"/>
							<path class="st3" d="M1,52.2l-1,5.6l-1-5.6L1,52.2z M0,57l0.8-4.7H0V57z M0,57l0-4.7h-0.8L0,57z"/>
						</g>
						<g>
							<path class="st3" d="M0,52.2h1H0v5.2l1-5.2"/>
						</g>
					</g>
					<g transform="matrix(-1.0186458 0 0 -1.0186458 -17.008929 148.83334)">
						<g transform="matrix(.92387953 .38268343 -.38268343 .92387953 0 0)">
							<g>
								<path class="st2" d="M48.5,21.4l0.7,0.5c-1.3,2.1,0.2,2.4-1,3.3c0.5-1.1-0.5-0.9-0.5-2.8"/>
								<path class="st3" d="M48.5,21.4l0.8,0.5l0,0c-0.7,1.1-0.6,1.7-0.5,2.1c0.1,0.4,0.1,0.8-0.4,1.2l-0.2,0.1l0.1-0.2
									c0.2-0.5,0.1-0.7-0.1-1.1c-0.2-0.3-0.4-0.7-0.4-1.7l0,0l0.1,0l0,0c0,0.9,0.2,1.3,0.4,1.7c0.2,0.3,0.3,0.5,0.1,0.9
									c0.3-0.4,0.3-0.6,0.3-1c-0.1-0.5-0.1-1.1,0.5-2.2L48.5,21.4L48.5,21.4z"/>
							</g>
							<g>
								<path class="st3" d="M48.5,21.4l-0.2,0.3l0,0c-0.2,1,0,1.7,0.1,2.2c0.1,0.3,0.1,0.5,0.1,0.7c0,0.1,0,0.3-0.1,0.4
									c0.7-0.8-0.4-1.2,0.8-3.1L48.5,21.4z"/>
								<path class="st3" d="M48.5,21.4l0.8,0.5l0,0c-0.7,1.1-0.6,1.7-0.5,2.1c0,0.4,0.1,0.6-0.2,1l-0.1,0.1l0.1-0.2
									c0.1-0.1,0.1-0.3,0.1-0.4c0-0.2,0-0.4-0.1-0.7l0,0c-0.1-0.5-0.3-1.2-0.1-2.2l0,0L48.5,21.4z M49.2,21.9l-0.7-0.5l-0.2,0.3
									l0,0l0,0c-0.2,1,0,1.6,0.1,2.2l0,0c0.1,0.2,0.1,0.5,0.1,0.7c0,0.1,0,0.2,0,0.3c0.2-0.3,0.2-0.5,0.1-0.8
									C48.6,23.6,48.5,23,49.2,21.9z"/>
							</g>
							<g>
								<path class="st3" d="M48.2,21.7L48.2,21.7c-0.1,1,0.1,1.7,0.2,2.2c0.1,0.5,0.2,0.9-0.2,1.3l-0.1-0.1
									c0.3-0.4,0.3-0.7,0.1-1.3C48.2,23.4,48.1,22.7,48.2,21.7z"/>
							</g>
						</g>
						<g>
							<path class="st2" d="M36.9,36.9h-1l1,5.2l1-5.2H36.9v5.2"/>
							<path class="st3" d="M35.9,36.9h2l-1,5.6L35.9,36.9z M36.9,37H36l0.8,4.7V37z M37.8,37H37v4.7L37.8,37z"/>
						</g>
						<g>
							<path class="st3" d="M36.9,36.9h1H36.9v5.2l1-5.2"/>
						</g>
						<g transform="matrix(.70710678 .70710678 -.70710678 .70710678 0 0)">
							<g transform="matrix(.92387953 .38268343 -.38268343 .92387953 0 0)">
								<g>
									<path class="st2" d="M48.5-18.6l0.7,0.5c-1.3,2.1,0.2,2.4-1,3.3c0.5-1.1-0.5-0.9-0.5-2.8"/>
									<path class="st3" d="M47.7-17.6L47.7-17.6L47.7-17.6c0.1,1,0.3,1.4,0.5,1.7c0.2,0.3,0.3,0.5,0.1,1c0.3-0.4,0.3-0.6,0.3-1
										c-0.1-0.5-0.1-1.1,0.5-2.2l-0.7-0.5l0.1-0.1l0.8,0.5l0,0c-0.7,1.1-0.6,1.7-0.5,2.1c0.1,0.4,0.1,0.8-0.4,1.2l-0.2,0.1
										l0.1-0.2c0.2-0.5,0.1-0.8-0.1-1.1C48-16.2,47.7-16.6,47.7-17.6L47.7-17.6z"/>
								</g>
								<g>
									<path class="st3" d="M48.5-18.6l-0.2,0.3l0,0c-0.2,1,0,1.7,0.1,2.2c0.1,0.3,0.1,0.5,0.1,0.7c0,0.1,0,0.3-0.1,0.4
										c0.7-0.8-0.4-1.2,0.8-3.1L48.5-18.6z"/>
									<path class="st3" d="M48.3-18.2l0.2-0.4l0.8,0.5l0,0c-0.7,1.1-0.6,1.7-0.5,2.1c0,0.4,0.1,0.6-0.2,1l-0.1,0.1l0.1-0.2
										c0.1-0.1,0.1-0.3,0.1-0.4c0-0.2,0-0.4-0.1-0.7l0,0C48.3-16.6,48.1-17.2,48.3-18.2L48.3-18.2z M48.5-18.5l-0.2,0.3l0,0l0,0
										c-0.2,1,0,1.6,0.1,2.2l0,0c0.1,0.2,0.1,0.5,0.1,0.7c0,0.1,0,0.2,0,0.3c0.2-0.3,0.2-0.5,0.1-0.8c-0.1-0.5-0.1-1.1,0.5-2.2
										L48.5-18.5z"/>
								</g>
								<g>
									<path class="st3" d="M48.2-18.3L48.2-18.3c-0.1,1,0.1,1.7,0.2,2.2c0.1,0.5,0.2,0.9-0.2,1.3l-0.1-0.1
										c0.3-0.4,0.3-0.7,0.1-1.3C48.2-16.5,48.1-17.2,48.2-18.3z"/>
								</g>
							</g>
							<g>
								<path class="st2" d="M52.2,0h-1l1,5.2l1-5.2L52.2,0v5.2"/>
								<path class="st3" d="M51.2,0l2,0l-1,5.6L51.2,0z M52.2,0h-0.8l0.8,4.7V0z M53.1,0h-0.8l0,4.7L53.1,0z"/>
							</g>
							<g>
								<path class="st3" d="M52.2,0l1,0L52.2,0v5.2l1-5.2"/>
							</g>
						</g>
					</g>
					<g transform="matrix(0 -1.0186458 1.0186458 0 -17.008929 148.83334)">
						<g transform="matrix(.92387953 .38268343 -.38268343 .92387953 0 0)">
							<g>
								<path class="st2" d="M20.2-46.8l0.7,0.5c-1.3,2.1,0.2,2.4-1,3.3c0.5-1.1-0.5-0.9-0.5-2.8"/>
								<path class="st3" d="M19.9-42.9l0.1-0.2c0.2-0.5,0.1-0.7-0.1-1.1c-0.2-0.3-0.4-0.8-0.4-1.7l0,0l0.1,0l0,0
									c0,0.9,0.2,1.3,0.4,1.7c0.2,0.3,0.3,0.5,0.1,1c0.3-0.4,0.3-0.6,0.3-1c-0.1-0.5-0.1-1.1,0.5-2.2l-0.7-0.5l0.1-0.1l0.8,0.5
									l0,0c-0.7,1.1-0.6,1.7-0.5,2.1c0.1,0.4,0.1,0.8-0.4,1.2L19.9-42.9z"/>
							</g>
							<g>
								<path class="st3" d="M20.2-46.8L20-46.5l0,0c-0.2,1,0,1.7,0.1,2.2c0.1,0.3,0.1,0.5,0.1,0.7c0,0.1,0,0.3-0.1,0.4
									c0.7-0.8-0.4-1.2,0.8-3.1L20.2-46.8z"/>
								<path class="st3" d="M20.1-43.1l0.1-0.2c0.1-0.1,0.1-0.3,0.1-0.4c0-0.2,0-0.4-0.1-0.7l0,0c-0.1-0.5-0.3-1.2-0.1-2.2l0,0
									l0.2-0.4l0.8,0.5l0,0c-0.7,1.1-0.6,1.7-0.5,2.1c0,0.4,0.1,0.6-0.2,1L20.1-43.1z M20.1-46.5L20.1-46.5c-0.2,1,0,1.7,0.1,2.2
									l0,0c0.1,0.2,0.1,0.5,0.1,0.7c0,0.1,0,0.2,0,0.3c0.2-0.3,0.2-0.5,0.1-0.8c-0.1-0.5-0.1-1.1,0.5-2.2l-0.7-0.5L20.1-46.5
									L20.1-46.5z"/>
							</g>
							<g>
								<path class="st3" d="M20-43.1c0.3-0.4,0.3-0.7,0.1-1.3c-0.1-0.5-0.3-1.2-0.1-2.2l0.1,0c-0.2,1,0,1.6,0.1,2.2
									C20.3-43.8,20.4-43.4,20-43.1L20-43.1z"/>
							</g>
						</g>
						<g>
							<path class="st2" d="M36.9-36.9h-1l1,5.2l1-5.2H36.9v5.2"/>
							<path class="st3" d="M35.9-37h2l-1,5.6L35.9-37z M36.9-36.9H36l0.8,4.7V-36.9z M37-36.9v4.7l0.8-4.7H37z"/>
						</g>
						<g>
							<path class="st3" d="M36.9-36.9h1H36.9v5.2l1-5.2"/>
						</g>
					</g>
					<g transform="matrix(.72029135 -.72029135 .72029135 .72029135 -17.008929 148.83334)">
						<g transform="matrix(.92387953 .38268343 -.38268343 .92387953 0 0)">
							<g>
								<path class="st2" d="M-19.8-46.8l0.7,0.5c-1.3,2.1,0.2,2.4-1,3.3c0.5-1.1-0.5-0.9-0.5-2.8"/>
								<path class="st3" d="M-20.1-42.9L-20-43c0.2-0.5,0.1-0.8-0.1-1.1c-0.2-0.3-0.4-0.8-0.4-1.7l0,0l0.1,0l0,0
									c0,0.9,0.2,1.3,0.4,1.7c0.2,0.3,0.3,0.5,0.1,1c0.3-0.4,0.3-0.6,0.3-1c-0.1-0.5-0.1-1.1,0.5-2.2l-0.7-0.5l0.1-0.1l0.8,0.5
									l0,0c-0.7,1.1-0.6,1.7-0.5,2.1c0.1,0.4,0.1,0.8-0.4,1.2L-20.1-42.9z"/>
							</g>
							<g>
								<path class="st3" d="M-19.8-46.8l-0.2,0.3l0,0c-0.2,1,0,1.7,0.1,2.2c0.1,0.3,0.1,0.5,0.1,0.7c0,0.1,0,0.3-0.1,0.4
									c0.7-0.8-0.4-1.2,0.8-3.1L-19.8-46.8z"/>
								<path class="st3" d="M-19.9-43.1l0.1-0.2c0.1-0.1,0.1-0.3,0.1-0.4c0-0.2,0-0.4-0.1-0.7l0,0c-0.1-0.5-0.3-1.2-0.1-2.2l0,0
									l0.2-0.4l0.8,0.5l0,0c-0.7,1.1-0.6,1.7-0.5,2.1c0,0.4,0.1,0.6-0.2,1L-19.9-43.1z M-19.9-46.5L-19.9-46.5
									c-0.2,1,0,1.7,0.1,2.2l0,0c0.1,0.2,0.1,0.5,0.1,0.7c0,0.1,0,0.2,0,0.3c0.2-0.3,0.2-0.5,0.1-0.8c-0.1-0.5-0.1-1.1,0.5-2.2
									l-0.7-0.5L-19.9-46.5L-19.9-46.5z"/>
							</g>
							<g>
								<path class="st3" d="M-20-43L-20-43c0.3-0.5,0.2-0.8,0.1-1.3c-0.1-0.5-0.3-1.2-0.1-2.2l0.1,0c-0.2,1,0,1.6,0.1,2.2
									C-19.7-43.8-19.6-43.4-20-43z"/>
							</g>
						</g>
						<g>
							<path class="st2" d="M0-52.2h-1L0-47l1-5.2H0v5.2"/>
							<path class="st3" d="M0-46.7l-1-5.6l2,0L0-46.7z M-0.9-52.2L0-47.5v-4.7L-0.9-52.2z M0-52.2l0,4.7l0.8-4.7H0z"/>
						</g>
						<g>
							<path class="st3" d="M0-52.2h1H0v5.2l1-5.2"/>
						</g>
					</g>
				</g>
			</g>
			<g>
				<path class="st3" d="M-55,112.6l-0.3,0.2l0,0c-0.5,0.9-0.6,1.6-0.7,2.1c0,0.3-0.1,0.5-0.2,0.7c-0.1,0.1-0.2,0.2-0.3,0.3
					c1-0.5,0.1-1.3,1.9-2.7L-55,112.6z"/>
				<path class="st3" d="M-56.6,116.1l0.2-0.1c0.1-0.1,0.2-0.2,0.3-0.3c0.1-0.2,0.1-0.4,0.2-0.7l0,0c0.1-0.5,0.2-1.2,0.7-2.1l0,0
					l0.4-0.3l0.5,0.8l0,0c-1,0.8-1.2,1.3-1.3,1.8c-0.1,0.4-0.2,0.6-0.6,0.9L-56.6,116.1z M-55.3,112.9L-55.3,112.9L-55.3,112.9
					c-0.5,0.9-0.6,1.6-0.7,2.1l0,0c0,0.3-0.1,0.5-0.2,0.7c0,0.1-0.1,0.2-0.1,0.2c0.3-0.2,0.4-0.4,0.4-0.7c0.1-0.5,0.3-1.1,1.3-1.8
					l-0.5-0.7L-55.3,112.9z"/>
			</g>
			<g>
				<g>
					<path class="st3" d="M-56.7,116.2L-56.7,116.2c0.4-0.3,0.5-0.7,0.6-1.2c0.1-0.5,0.2-1.2,0.7-2.1l0.1,0.1
						c-0.5,0.9-0.6,1.6-0.7,2.1C-56.1,115.5-56.1,115.9-56.7,116.2z"/>
				</g>
				<g>
					<path class="st2" d="M-54.6,111.2h-1l1,5.3l1-5.3H-54.6v5.3"/>
					<path class="st3" d="M-54.6,116.8l-1-5.7h2.1L-54.6,116.8z M-54.6,111.3v4.7l0.9-4.7H-54.6z M-55.6,111.3l0.9,4.7v-4.7H-55.6z"
						/>
				</g>
			</g>
		</g>
		<g>
			<path class="st3" d="M-54.6,111.2h1H-54.6v5.3l1-5.3"/>
		</g>
		<g>
			<path class="st3" d="M-54.6,111.2l0.7,0.7L-54.6,111.2l-3.8,3.8l4.5-3.1"/>
		</g>
		<g>
			<circle class="st2" cx="-54.6" cy="111.2" r="1.8"/>
			<path class="st3" d="M-54.6,113c-1,0-1.8-0.8-1.8-1.8s0.8-1.8,1.8-1.8s1.8,0.8,1.8,1.8S-53.6,113-54.6,113z M-54.6,109.5
				c-1,0-1.7,0.8-1.7,1.7s0.8,1.7,1.7,1.7s1.7-0.8,1.7-1.7S-53.7,109.5-54.6,109.5z"/>
		</g>
		<g>
			<g>
				<path class="st3" d="M-53.3,110.5c-0.1,0.1-0.2-0.1-0.6-0.1s-0.5,0.2-0.5,0.2c-0.1,0,0.3-0.3,0.5-0.4
					C-53.8,110.2-53.5,110.3-53.3,110.5 M-53.8,110.6c0.1,0.1,0,0.3-0.1,0.3s-0.3-0.2-0.2-0.3"/>
			</g>
			<g>
				<path class="st3" d="M-54.3,110.8c0-0.2,0.2-0.2,0.4-0.2s0.4,0.2,0.5,0.2c-0.1,0-0.2-0.2-0.5-0.2S-54.2,110.6-54.3,110.8
					 M-54.3,110.8c0.1-0.1,0.1,0.1,0.3,0.1c0.2,0,0.3,0,0.4-0.1c0.1-0.1-0.2,0.2-0.3,0.2C-54.1,111-54.3,110.9-54.3,110.8"/>
			</g>
			<g>
				<path class="st3" d="M-55.5,110.6c-0.1,0-0.2,0.2,0,0.3C-55.7,110.8-55.6,110.7-55.5,110.6z"/>
			</g>
			<g>
				<path class="st3" d="M-53.7,110.6c0,0,0.2,0.2,0,0.3C-53.5,110.8-53.7,110.7-53.7,110.6z"/>
			</g>
			<g>
				<path class="st3" d="M-54.9,111.3c-0.1,0-0.1,0.2-0.2,0.3s-0.2,0.2-0.2,0.1c0.1-0.1,0.3-0.1,0.4-0.1s0.2,0.1,0.3,0.1
					s0.1-0.1,0.3-0.1c0.1,0,0.3,0,0.4,0.1c0,0,0-0.1-0.2-0.1s-0.1-0.2-0.2-0.3c0,0.1,0,0,0.1,0.1c0,0.1-0.1,0.1-0.2,0
					c0,0.1-0.1,0.1-0.1,0.1s-0.2,0-0.1-0.1c0,0.1-0.2,0.1-0.2,0C-54.9,111.4-54.9,111.4-54.9,111.3z"/>
			</g>
			<g>
				<path class="st3" d="M-55.4,111.9c-0.1,0.1-0.2,0.1-0.2,0.3c0-0.1,0.1-0.1,0.1-0.1c0,0,0,0,0,0c0,0,0,0,0,0
					C-55.5,112-55.4,111.9-55.4,111.9L-55.4,111.9z"/>
			</g>
			<g>
				<path class="st3" d="M-55.5,112C-55.5,112-55.5,112-55.5,112C-55.5,112-55.4,112-55.5,112C-55.4,112-55.5,112-55.5,112
					L-55.5,112z"/>
			</g>
			<g>
				<path class="st3" d="M-55.4,112c0.1,0,0.2,0,0.3,0.1c0.1,0,0.2,0,0.5,0c0.3,0,0.4,0,0.5,0c0.1,0,0.2,0,0.3-0.1
					c-0.2,0-0.4-0.1-0.5-0.1c-0.1,0-0.2,0-0.3,0c-0.1,0-0.1,0-0.3,0C-55,111.9-55.2,112-55.4,112z"/>
			</g>
			<g>
				<path class="st3" d="M-53.9,112C-53.8,112-53.8,112-53.9,112C-53.8,112-53.8,112-53.9,112C-53.8,112-53.8,112-53.9,112
					L-53.9,112z"/>
			</g>
			<g>
				<path class="st3" d="M-53.8,112C-53.8,112-53.8,112-53.8,112C-53.8,112-53.8,112-53.8,112c0,0,0.1,0.1,0.1,0.1
					c0-0.1,0-0.2-0.2-0.3C-53.8,111.9-53.8,112-53.8,112L-53.8,112z"/>
			</g>
			<g>
				<path class="st3" d="M-53.8,112C-53.8,112-53.8,112-53.8,112c-0.2,0.1-0.2,0.1-0.3,0.1c-0.2,0-0.3,0.1-0.5,0.1s-0.4-0.1-0.5-0.1
					c-0.1,0-0.1,0-0.3-0.1c0,0,0,0,0,0c0.5,0.2,0.5,0.3,0.9,0.3C-54.2,112.3-54.3,112.2-53.8,112L-53.8,112z"/>
			</g>
			<g>
				<path class="st3" d="M-55.5,112C-55.5,112-55.5,112-55.5,112C-55.5,112-55.5,112-55.5,112C-55.5,112-55.5,112-55.5,112z"/>
			</g>
			<g>
				<path class="st3" d="M-53.8,112C-53.8,112-53.8,112-53.8,112C-53.8,112-53.8,112-53.8,112C-53.8,112-53.8,112-53.8,112
					L-53.8,112z"/>
			</g>
			<g transform="matrix(-.10186458 0 0 .10186458 -17.008929 148.83334)">
				<g>
					<path class="st3" d="M382.3-376.4c-1.1,1.3-1.7-1-5.7-1c-4,0-4.6,2.4-5.2,1.9c-0.6-0.5,3.3-3.3,4.6-3.5
						C377.2-379.1,380.8-377.8,382.3-376.4 M377.7-375c1.1,1,0.2,3-1,3c-1.1,0-3.2-1.9-2.2-3.2"/>
				</g>
				<g>
					<path class="st3" d="M372.4-373.5c0.2-1.9,1.7-2.2,4.3-2.2s3.7,1.9,4.6,2.4c-1.1,0-2.1-1.6-4.6-1.6s-2.5,0-4.3,1.6
						 M372.9-373.1c0.6-1,1.4,1,3.2,1c1.7,0,2.7-0.5,3.8-1.3c1.1-0.8-1.6,1.9-3.3,1.9C374.8-371.5,372.4-372.4,372.9-373.1"/>
				</g>
			</g>
			<g>
				<path class="st3" d="M-54.6,112.4C-54.7,112.4-54.9,112.5-54.6,112.4C-54.3,112.5-54.6,112.4-54.6,112.4"/>
			</g>
		</g>
	</g>
</g>
</svg>
