<?xml version="1.0" encoding="utf-8"?>
<!-- Generator: Adobe Illustrator 25.1.0, SVG Export Plug-In . SVG Version: 6.00 Build 0)  -->
<svg version="1.1" id="Capa_1" xmlns="http://www.w3.org/2000/svg" xmlns:xlink="http://www.w3.org/1999/xlink" x="0px" y="0px"
	 width="100px" height="100px" viewBox="0 0 100 100" style="enable-background:new 0 0 100 100;" xml:space="preserve">
<style type="text/css">
	.st0{fill:#009B3A;}
	.st1{fill:#FEDF00;}
	.st2{fill:#002776;}
	.st3{clip-path:url(#SVGID_1_);fill:#FFFFFF;}
	.st4{fill-rule:evenodd;clip-rule:evenodd;fill:#009B3A;}
	.st5{clip-path:url(#SVGID_2_);}
	.st6{fill:#FFFFFF;}
</style>
<g>
	<rect x="-21.4" class="st0" width="142.9" height="100"/>
	<path class="st1" d="M8.1,50L50,76.8L91.9,50L50,23.2L8.1,50z"/>
	<circle class="st2" cx="50" cy="50" r="17.7"/>
	<g>
		<defs>
			<circle id="SVGID_5_" cx="50" cy="50" r="17.7"/>
		</defs>
		<clipPath id="SVGID_1_">
			<use xlink:href="#SVGID_5_"  style="overflow:visible;"/>
		</clipPath>
		<path class="st3" d="M-3.1,85.4c0-23.7,19.2-43,43-43s43,19.2,43,43h-2.5c0-22.3-18.1-40.4-40.4-40.4S-0.5,63-0.5,85.4H-3.1z"/>
	</g>
	<g transform="translate(-420,1470)">
		<g transform="rotate(-7)">
			<path id="O" class="st4" d="M454.9-1425.2c0.4-0.1,0.7-0.5,0.6-0.9c-0.1-0.5-0.4-0.8-0.9-0.7c-0.4,0.1-0.7,0.5-0.6,0.9
				C454.1-1425.5,454.5-1425.1,454.9-1425.2 M454.9-1425.5c0.2,0,0.4-0.3,0.4-0.6c0-0.3-0.3-0.5-0.5-0.5c-0.2,0-0.4,0.3-0.4,0.6
				C454.4-1425.7,454.6-1425.5,454.9-1425.5"/>
		</g>
		<g transform="rotate(-4)">
			<g id="R">
				<g>
					<path id="P" class="st4" d="M456.3-1425.3l0.3,0l0-0.6l0.7,0c0.3,0,0.5-0.3,0.5-0.6c0-0.3-0.3-0.5-0.6-0.5l-1,0.1L456.3-1425.3
						z M456.5-1426.3l0.6,0c0.1,0,0.2-0.1,0.2-0.2c0-0.1-0.1-0.2-0.2-0.2l-0.6,0L456.5-1426.3z"/>
				</g>
				<path class="st0" d="M457.7-1425.4c0-0.2-0.1-0.8-0.4-0.7l-0.5,0c0.5,0,0.6,0.5,0.6,0.7"/>
			</g>
		</g>
		<g transform="rotate(-1)">
			<path id="D" class="st4" d="M458.4-1425.5l0.8,0c0.4,0,0.7-0.3,0.7-0.7l0-0.2c0-0.4-0.3-0.7-0.7-0.7l-0.8,0L458.4-1425.5z
				 M458.7-1425.8l0.5,0c0.3,0,0.5-0.2,0.4-0.5l0-0.1c0-0.3-0.2-0.5-0.5-0.4l-0.5,0L458.7-1425.8z"/>
		</g>
		<g transform="rotate(2)">
			<path id="E" class="st0" d="M460.6-1425.5l1.5,0.1l0-0.3l-1.2,0l0-0.4l1,0l0-0.3l-1,0l0-0.3l1.2,0l0-0.3l-1.4-0.1L460.6-1425.5z"
				/>
		</g>
		<g transform="rotate(5)">
			<path id="M" class="st0" d="M462.7-1425.4l0.3,0l0.1-1.2l0.2,1.2l0.3,0l0.4-1.1l-0.1,1.2l0.3,0l0.1-1.7l-0.4,0l-0.4,1.1l-0.2-1.2
				l-0.4,0L462.7-1425.4z"/>
		</g>
		<g transform="rotate(9.75)">
			<path id="e" class="st0" d="M466.2-1425l1.2,0.2l0-0.3l-1-0.2l0.1-0.4l0.8,0.1l0-0.3l-0.8-0.1l0-0.3l0.9,0.2l0-0.3l-1.2-0.2
				L466.2-1425z"/>
		</g>
		<g transform="rotate(14.5)">
			<path id="P_1_" class="st4" d="M469.4-1424.4l0.3,0.1l0.2-0.6l0.7,0.2c0.3,0.1,0.6-0.1,0.6-0.4s-0.1-0.6-0.4-0.6l-0.9-0.2
				L469.4-1424.4z M469.9-1425.2l0.6,0.2c0.1,0,0.2,0,0.3-0.2c0-0.1,0-0.2-0.2-0.3l-0.6-0.2L469.9-1425.2z"/>
		</g>
		<g transform="rotate(17.5)">
			<g id="R_1_">
				<g>
					<path id="P_2_" class="st4" d="M471.5-1423.8l0.3,0.1l0.2-0.6l0.6,0.2c0.3,0.1,0.6-0.1,0.7-0.3c0.1-0.3-0.1-0.6-0.3-0.7
						l-0.9-0.3L471.5-1423.8z M472-1424.6l0.6,0.2c0.1,0,0.2,0,0.3-0.1c0-0.1,0-0.2-0.1-0.3l-0.6-0.2L472-1424.6z"/>
				</g>
				<path class="st0" d="M472.8-1423.4c0.1-0.2,0.2-0.7-0.1-0.8l-0.4-0.1c0.5,0.2,0.3,0.7,0.3,0.9"/>
			</g>
		</g>
		<g transform="rotate(20.5)">
			<path id="O_1_" class="st4" d="M474.2-1422.9c0.4,0.1,0.8-0.1,1-0.5c0.2-0.4,0-0.9-0.4-1.1c-0.4-0.1-0.8,0.1-1,0.5
				C473.6-1423.5,473.8-1423,474.2-1422.9 M474.3-1423.2c0.2,0.1,0.5-0.1,0.6-0.3s0-0.6-0.2-0.7c-0.2-0.1-0.5,0.1-0.6,0.3
				C474-1423.6,474.1-1423.3,474.3-1423.2"/>
		</g>
		<g transform="rotate(23.5)">
			<g id="G">
				<g>
					<defs>
						<path id="SVGID_7_" d="M475.5-1422.4l0.7-1.5l1.4,0.6l-0.7,1.5L475.5-1422.4z M476.6-1423.1l-0.1,0.3l0.7,0.3l0.1-0.3
							L476.6-1423.1z"/>
					</defs>
					<clipPath id="SVGID_2_">
						<use xlink:href="#SVGID_7_"  style="overflow:visible;"/>
					</clipPath>
					<g class="st5">
						<path id="O_2_" class="st4" d="M476.2-1422.1c0.4,0.2,0.8,0,1-0.5c0.2-0.4,0-0.9-0.4-1.1s-0.8,0-1,0.5
							S475.8-1422.3,476.2-1422.1 M476.3-1422.4c0.2,0.1,0.5,0,0.6-0.3c0.1-0.3,0-0.6-0.2-0.7c-0.2-0.1-0.5,0-0.6,0.3
							S476.1-1422.5,476.3-1422.4"/>
					</g>
				</g>
				
					<rect x="476.8" y="-1422.9" transform="matrix(0.3987 -0.9171 0.9171 0.3987 1591.306 -418.0026)" class="st0" width="0.2" height="0.6"/>
				
					<rect x="476.5" y="-1422.3" transform="matrix(0.3987 -0.9171 0.9171 0.3987 1591.0178 -417.7321)" class="st0" width="0.8" height="0.2"/>
			</g>
		</g>
		<g transform="rotate(26.5)">
			<g id="R_2_">
				<g>
					<path id="P_3_" class="st4" d="M477.4-1421.5l0.3,0.1l0.3-0.6l0.6,0.3c0.3,0.1,0.6,0,0.7-0.2c0.1-0.3,0-0.6-0.2-0.7l-0.9-0.4
						L477.4-1421.5z M478.1-1422.2l0.6,0.3c0.1,0.1,0.2,0,0.3-0.1c0.1-0.1,0-0.2-0.1-0.3l-0.6-0.3L478.1-1422.2z"/>
				</g>
				<path class="st0" d="M478.7-1420.9c0.1-0.2,0.3-0.7,0-0.9l-0.4-0.2c0.5,0.2,0.2,0.7,0.1,0.9"/>
			</g>
		</g>
		<g transform="rotate(29.5)">
			<path id="E_1_" class="st0" d="M479.3-1420.6l1.3,0.7l0.2-0.3l-1.1-0.6l0.2-0.4l0.8,0.5l0.1-0.3l-0.8-0.5l0.2-0.3l1,0.6l0.2-0.3
				l-1.3-0.7L479.3-1420.6z"/>
		</g>
		<g transform="rotate(32.5)">
			<path id="S" class="st0" d="M481.8-1419.7c-0.1,0.1,0,0.3,0.2,0.4c0.2,0.1,0.3,0.1,0.4,0c0.2-0.3-0.9-0.7-0.6-1.2
				c0.3-0.4,0.8-0.1,1,0c0.2,0.1,0.5,0.4,0.2,0.8l-0.3-0.2c0.1-0.2,0-0.3-0.2-0.4c-0.2-0.1-0.3-0.1-0.4,0c-0.2,0.2,0.9,0.7,0.6,1.2
				c-0.2,0.4-0.6,0.2-0.9,0c-0.2-0.1-0.6-0.5-0.4-0.9L481.8-1419.7z"/>
		</g>
		<g transform="rotate(35.5)">
			<path id="S_1_" class="st0" d="M483.6-1418.5c-0.1,0.1,0,0.3,0.2,0.4c0.2,0.1,0.3,0.1,0.4,0.1c0.2-0.3-0.8-0.8-0.5-1.2
				c0.3-0.4,0.8-0.1,0.9,0.1c0.2,0.1,0.5,0.4,0.2,0.8l-0.3-0.2c0.1-0.1,0-0.3-0.2-0.4c-0.2-0.1-0.3-0.2-0.4,0
				c-0.2,0.2,0.9,0.7,0.5,1.2c-0.3,0.4-0.7,0.2-0.9,0c-0.2-0.2-0.6-0.5-0.3-0.9L483.6-1418.5z"/>
		</g>
		<g transform="rotate(38.5)">
			<path id="O_3_" class="st4" d="M485.3-1416.6c0.3,0.3,0.8,0.2,1.1-0.2c0.3-0.4,0.3-0.9-0.1-1.1c-0.3-0.3-0.8-0.2-1.1,0.2
				S485-1416.9,485.3-1416.6 M485.5-1416.8c0.2,0.2,0.5,0.1,0.7-0.1s0.2-0.5,0-0.7s-0.5-0.1-0.7,0.1
				C485.3-1417.3,485.3-1417,485.5-1416.8"/>
		</g>
	</g>
	<g>
		<polygon class="st6" points="35.7,46.6 35.6,46.1 35.4,46.6 34.8,46.6 35.3,46.9 35.1,47.4 35.6,47.1 36,47.4 35.8,46.9 
			36.3,46.6 		"/>
		<polygon class="st6" points="37.3,54 37.1,53.5 37,54 36.4,54 36.8,54.3 36.7,54.9 37.1,54.5 37.6,54.9 37.4,54.3 37.8,54 		"/>
		<polygon class="st6" points="35.1,55.7 35,55.2 34.8,55.7 34.4,55.7 34.7,55.9 34.6,56.4 35,56.1 35.3,56.4 35.2,55.9 35.6,55.7 
					"/>
		<polygon class="st6" points="38.9,53.1 38.9,52.8 38.8,53.1 38.5,53.1 38.7,53.2 38.6,53.5 38.9,53.3 39.1,53.5 39,53.2 
			39.2,53.1 		"/>
		<polygon class="st6" points="40.9,55.8 40.8,55.4 40.7,55.8 40.2,55.8 40.6,56.1 40.4,56.5 40.8,56.3 41.2,56.5 41,56.1 
			41.4,55.8 		"/>
		<polygon class="st6" points="40.4,57.6 40.3,57.3 40.2,57.6 39.8,57.6 40.1,57.8 40,58.2 40.3,58 40.6,58.2 40.5,57.8 40.8,57.6 
					"/>
		<polygon class="st6" points="55.7,44.3 55.5,43.8 55.3,44.3 54.8,44.3 55.2,44.6 55,45.1 55.5,44.8 55.9,45.1 55.8,44.6 
			56.2,44.3 		"/>
		<polygon class="st6" points="62.1,56.3 61.9,56.8 62.4,56.5 62.8,56.8 62.7,56.3 63.1,56 62.6,56 62.4,55.5 62.2,56 61.7,56 		"/>
		<polygon class="st6" points="65,56.4 65.3,56.2 65,56.2 64.8,55.9 64.7,56.2 64.4,56.2 64.7,56.4 64.6,56.8 64.8,56.6 65.1,56.8 
					"/>
		<polygon class="st6" points="63.3,57.6 63.1,57.1 63,57.6 62.5,57.6 62.9,57.8 62.7,58.3 63.1,58 63.5,58.3 63.3,57.8 63.7,57.6 
					"/>
		<polygon class="st6" points="58.9,60.8 58.7,61.3 58.3,61.3 58.6,61.6 58.5,62 58.9,61.7 59.2,62 59.1,61.6 59.5,61.3 59,61.3 		
			"/>
		<polygon class="st6" points="58.9,63.1 58.8,62.8 58.7,63.1 58.4,63.1 58.6,63.3 58.5,63.7 58.8,63.5 59.1,63.7 59,63.3 
			59.3,63.1 		"/>
		<polygon class="st6" points="60.7,59.9 60.6,59.6 60.5,59.9 60.1,59.9 60.4,60.1 60.3,60.5 60.6,60.3 60.9,60.5 60.8,60.1 
			61.1,59.9 		"/>
		<polygon class="st6" points="62.2,59 62,58.6 61.9,59 61.4,59 61.8,59.3 61.7,59.7 62,59.4 62.4,59.7 62.3,59.3 62.6,59 		"/>
		<polygon class="st6" points="58.6,59.8 58.5,60.2 58.8,59.9 59.1,60.2 59,59.8 59.3,59.6 58.9,59.6 58.8,59.2 58.7,59.6 
			58.3,59.6 		"/>
		<polygon class="st6" points="43.4,50.5 43.3,50.1 43.1,50.5 42.7,50.5 43,50.8 42.9,51.2 43.3,51 43.6,51.2 43.5,50.8 43.9,50.5 
					"/>
		<polygon class="st6" points="54.8,49.3 55.1,49.5 55,49.2 55.3,49 54.9,49 54.8,48.6 54.7,49 54.3,49 54.6,49.2 54.5,49.5 		"/>
		<polygon class="st6" points="50.2,57.7 50,57.2 49.8,57.7 49.3,57.7 49.7,58 49.6,58.6 50,58.2 50.4,58.6 50.3,58 50.7,57.7 		"/>
		<polygon class="st6" points="52.2,54.2 52,53.8 51.9,54.2 51.4,54.2 51.8,54.5 51.7,54.9 52,54.7 52.4,54.9 52.3,54.5 52.6,54.2 
					"/>
		<polygon class="st6" points="49.8,52.9 49.6,53.4 50,53.1 50.4,53.4 50.2,52.9 50.6,52.6 50.1,52.6 50,52.2 49.9,52.6 49.4,52.6 
					"/>
		<polygon class="st6" points="48.3,54.3 48.2,53.9 48.1,54.3 47.7,54.3 48,54.5 47.9,54.8 48.2,54.6 48.5,54.8 48.4,54.5 
			48.7,54.3 		"/>
		<polygon class="st6" points="49.1,55.8 49.3,55.9 49.2,55.7 49.5,55.5 49.2,55.5 49.1,55.3 49,55.5 48.8,55.5 49,55.7 48.9,55.9 
					"/>
		<polygon class="st6" points="55.4,61.7 55.3,61.3 55.2,61.7 54.7,61.7 55.1,62 54.9,62.4 55.3,62.2 55.7,62.4 55.5,62 55.9,61.7 
					"/>
		<polygon class="st6" points="56.9,60.2 56.8,59.8 56.7,60.2 56.3,60.2 56.6,60.4 56.5,60.8 56.8,60.5 57.1,60.8 57,60.4 
			57.3,60.2 		"/>
		<polygon class="st6" points="54,59.8 53.9,59.4 53.8,59.8 53.4,59.8 53.7,60 53.6,60.3 53.9,60.1 54.2,60.3 54.1,60 54.4,59.8 		
			"/>
		<polygon class="st6" points="43.1,59.2 42.9,58.6 42.7,59.2 42.2,59.2 42.6,59.5 42.5,60 42.9,59.7 43.3,60 43.2,59.5 43.6,59.2 
					"/>
		<polygon class="st6" points="50.1,63.8 50,63.6 49.9,63.8 49.8,63.8 49.9,63.9 49.9,64 50,63.9 50.1,64 50.1,63.9 50.2,63.8 		"/>
	</g>
</g>
</svg>
